<?xml version="1.0" standalone="no"?>
<!DOCTYPE svg PUBLIC "-//W3C//DTD SVG 20010904//EN"
 "http://www.w3.org/TR/2001/REC-SVG-20010904/DTD/svg10.dtd">
<svg version="1.0" xmlns="http://www.w3.org/2000/svg"
 width="800.000000pt" height="800.000000pt" viewBox="0 0 800.000000 800.000000"
 preserveAspectRatio="xMidYMid meet">

<g transform="translate(0.000000,800.000000) scale(0.100000,-0.100000)"
fill="#000000" stroke="none">
<path d="M3745 7403 c-510 -31 -958 -150 -1390 -368 -335 -169 -585 -348 -854
-610 -285 -278 -493 -557 -665 -895 -65 -127 -156 -328 -156 -344 0 -4 9 -6
20 -6 11 0 20 -5 20 -11 0 -7 -9 -9 -23 -5 -22 5 -26 -1 -60 -98 -19 -57 -33
-107 -30 -110 3 -3 25 -3 47 1 23 3 38 3 35 -1 -3 -4 -26 -10 -50 -14 l-44 -7
-27 -105 c-16 -58 -37 -154 -48 -215 -12 -60 -23 -119 -25 -130 -4 -18 -12
-20 -107 -20 -120 0 -145 -6 -187 -41 -55 -46 -36 -112 45 -160 56 -33 56 -42
5 -247 -24 -99 -34 -157 -27 -157 7 0 6 -4 -2 -9 -19 -12 -41 -152 -42 -266 0
-175 34 -279 189 -578 87 -169 104 -218 80 -232 -6 -4 -24 -25 -40 -47 -28
-39 -36 -78 -23 -113 20 -50 138 -59 264 -19 45 14 83 24 85 22 1 -2 43 -82
92 -178 110 -216 227 -400 254 -400 10 0 19 -5 19 -11 0 -7 16 -9 48 -4 26 3
64 6 84 7 l37 0 -49 67 c-100 138 -234 368 -294 504 l-26 57 28 0 c24 0 32
-10 81 -108 101 -198 297 -502 324 -502 7 0 48 7 92 14 61 11 81 12 87 3 5 -9
-17 -14 -80 -20 -48 -5 -89 -10 -90 -12 -9 -8 34 -54 50 -55 9 0 20 -5 24 -12
5 -8 2 -9 -10 -5 -11 4 -5 -8 15 -33 18 -22 39 -40 46 -40 8 0 11 -5 7 -11
-17 -28 480 -479 509 -462 7 3 9 3 5 -2 -18 -20 278 -205 501 -313 l155 -75
68 11 c38 7 83 12 101 12 17 1 49 7 70 14 20 8 37 11 37 7 -1 -21 -27 -29
-125 -41 l-110 -14 40 -18 c145 -66 515 -161 755 -195 158 -22 663 -25 810 -5
313 43 573 110 827 210 127 51 166 71 138 72 -36 1 6 20 45 20 42 0 237 103
404 213 103 68 108 72 78 75 -17 2 -40 -2 -51 -7 -24 -13 -88 -14 -95 -2 -7
10 42 19 115 21 90 2 106 11 292 168 42 36 77 71 77 79 0 7 6 13 13 13 29 0
353 352 341 371 -3 5 1 9 8 9 32 0 242 330 353 555 128 261 211 507 271 802 3
15 12 23 25 23 20 0 21 -4 15 -42 -13 -85 -67 -287 -109 -414 -134 -396 -321
-731 -599 -1069 -27 -33 -111 -123 -186 -199 -638 -649 -1524 -1001 -2446
-973 -461 14 -836 101 -1281 297 -137 60 -147 64 -163 61 -7 -1 -11 4 -10 10
2 7 -26 29 -62 49 -150 83 -375 237 -484 330 -157 133 -274 248 -410 402 -59
66 -61 68 -99 61 -30 -4 -38 -3 -33 6 4 6 15 9 24 7 35 -11 41 8 13 43 l-28
34 -86 -13 c-48 -7 -87 -14 -87 -17 0 -21 45 -63 68 -64 18 -1 21 -3 9 -6 -24
-6 -23 -8 53 -104 88 -113 341 -366 470 -470 137 -111 163 -129 192 -129 17 0
19 -3 9 -9 -10 -6 6 -22 60 -58 467 -314 975 -501 1559 -575 163 -20 632 -17
800 5 497 67 917 206 1315 436 78 45 79 46 50 52 -27 6 -25 7 13 8 37 1 62 14
165 83 149 101 281 207 407 327 l95 90 -60 1 c-33 1 -71 6 -85 10 -19 6 -11 8
30 7 30 0 79 5 108 12 49 12 60 21 138 109 407 457 686 1013 804 1602 12 58
24 108 28 111 4 4 32 3 62 -1 129 -19 239 -2 286 45 47 47 20 118 -61 160
l-37 20 6 66 6 67 -42 -10 c-24 -5 -50 -7 -60 -5 -9 3 -18 0 -20 -7 -6 -17 -1
-111 6 -142 l7 -27 -105 6 c-142 8 -310 -10 -736 -79 -85 -13 -209 -33 -275
-44 -66 -11 -203 -33 -305 -49 -1116 -182 -1954 -298 -2625 -365 -82 -9 -195
-20 -250 -26 -194 -20 -831 -77 -1245 -110 -69 -6 -172 -15 -230 -20 -58 -5
-168 -14 -245 -20 -443 -35 -673 -66 -798 -107 -43 -14 -79 -24 -80 -22 -2 2
-8 30 -15 62 -11 58 -63 173 -145 322 -62 113 -105 225 -124 323 -23 117 -9
250 52 487 39 153 45 192 43 259 l-3 78 90 -5 c172 -9 303 9 1770 248 1023
166 2057 292 3160 385 132 11 294 25 360 30 176 15 334 28 475 40 542 44 822
77 901 106 24 9 65 22 92 29 46 13 47 13 47 -10 0 -43 31 -159 56 -208 13 -26
51 -95 85 -153 76 -131 113 -217 133 -316 26 -125 19 -222 -30 -392 -20 -72
-23 -91 -12 -97 10 -7 9 -9 -3 -9 -11 0 -21 -18 -33 -58 -28 -100 -27 -100 61
-80 61 14 50 -8 104 213 29 116 33 146 33 280 1 203 -14 254 -161 544 -62 122
-113 235 -113 249 0 16 13 40 36 63 44 45 56 102 28 137 -40 49 -150 49 -286
-1 l-67 -24 -47 106 c-48 109 -111 230 -172 336 -59 100 -174 274 -186 278 -6
3 -34 1 -61 -3 -28 -4 -57 -4 -65 1 -10 5 2 9 35 9 81 1 85 9 31 79 -40 52
-52 61 -79 61 -18 0 -39 5 -47 10 -12 8 -9 10 12 10 15 0 29 4 32 9 7 10 -164
201 -258 289 -56 52 -73 62 -104 63 -36 1 -36 2 -7 8 l30 6 -80 67 c-44 37
-88 68 -98 68 -10 0 -16 4 -13 9 6 9 -73 71 -204 158 -340 227 -747 403 -1141
492 -311 70 -667 102 -954 84z m515 -174 c52 -5 151 -20 220 -32 69 -12 143
-21 165 -20 22 0 34 -2 26 -5 -14 -5 213 -72 254 -75 11 0 22 -4 25 -7 3 -4
57 -26 120 -49 342 -127 721 -348 970 -563 27 -24 51 -37 62 -35 10 3 18 1 18
-4 0 -5 -4 -9 -9 -9 -4 0 57 -65 137 -145 134 -134 148 -145 184 -147 45 -2
51 -15 8 -20 l-29 -3 54 -65 c35 -42 64 -67 82 -71 25 -6 25 -7 5 -8 l-24 -1
30 -37 c40 -52 140 -203 195 -295 72 -119 197 -373 197 -399 0 -21 -41 -8 -50
16 -22 57 -130 267 -185 359 -78 131 -190 290 -284 403 -60 73 -80 92 -96 87
-11 -3 -47 -7 -80 -10 -57 -5 -59 -4 -35 10 14 8 44 15 68 16 23 0 42 3 42 8
0 15 -225 230 -245 234 -11 2 -19 9 -18 16 6 28 -382 312 -522 382 -28 14 -52
28 -55 31 -3 4 -41 24 -85 46 -60 30 -86 38 -105 32 -14 -4 -34 -7 -45 -7 -11
0 -3 5 18 12 l38 12 -113 47 c-732 304 -1531 339 -2273 100 -189 -61 -322
-115 -300 -123 14 -5 5 -9 -30 -13 -88 -12 -421 -200 -617 -348 -420 -317
-732 -688 -966 -1149 l-74 -145 54 -5 c42 -5 48 -7 28 -13 -14 -3 -40 -8 -59
-10 -34 -3 -35 -5 -78 -117 -24 -62 -42 -119 -39 -127 3 -7 1 -13 -4 -13 -5 0
-14 -18 -20 -41 -6 -22 -14 -47 -17 -56 -5 -13 1 -14 38 -9 l44 5 -45 -12
c-40 -12 -46 -17 -58 -57 -10 -34 -72 -314 -72 -327 0 -2 -11 -3 -25 -3 -31 0
-31 -2 1 156 180 886 735 1669 1522 2145 464 281 983 438 1557 473 92 6 388
-3 495 -15z m-82 -116 c-10 -2 -26 -2 -35 0 -10 3 -2 5 17 5 19 0 27 -2 18 -5z
m825 -10 c-7 -2 -19 -2 -25 0 -7 3 -2 5 12 5 14 0 19 -2 13 -5z m-905 -10
c-21 -2 -55 -2 -75 0 -21 2 -4 4 37 4 41 0 58 -2 38 -4z m-161 -18 c-26 -7
-57 -10 -70 -7 -19 6 -17 7 13 13 19 3 51 7 70 7 33 0 33 0 -13 -13z m-602 -5
c-11 -5 -27 -9 -35 -9 -13 -1 -13 0 0 9 8 5 24 9 35 9 l20 0 -20 -9z m1325 -9
c21 -6 13 -10 -45 -24 -38 -8 -108 -18 -155 -22 -47 -3 -101 -8 -120 -11 -19
-3 -32 -3 -28 1 8 9 68 23 143 35 33 6 78 14 100 19 49 11 73 11 105 2z m-375
-61 c4 -6 -5 -10 -20 -10 -15 0 -24 4 -20 10 3 6 12 10 20 10 8 0 17 -4 20
-10z m-1242 -37 c-7 -2 -21 -2 -30 0 -10 3 -4 5 12 5 17 0 24 -2 18 -5z m811
-14 c-23 -9 -90 -11 -81 -3 10 10 71 21 86 16 11 -4 10 -7 -5 -13z m-930 2 c8
-12 -35 -19 -60 -10 -16 5 -14 7 11 11 17 3 33 6 37 7 4 0 9 -3 12 -8z m799
-12 l42 -1 -50 -10 c-134 -24 -150 -26 -159 -17 -6 6 -3 9 8 9 9 0 15 4 11 9
-5 10 67 20 93 14 8 -2 32 -4 55 -4z m-213 -29 c0 -5 -19 -9 -42 -9 -40 1 -41
2 -13 9 44 11 55 11 55 0z m2090 0 c0 -7 -84 -20 -130 -19 -24 0 -24 0 5 13
32 13 125 18 125 6z m-2201 -21 c-19 -12 -116 -12 -103 0 13 13 43 17 83 12
23 -2 29 -6 20 -12z m-762 -5 c-3 -3 -12 -4 -19 -1 -8 3 -5 6 6 6 11 1 17 -2
13 -5z m491 -19 c-7 -6 -56 -17 -108 -23 -116 -14 -249 -24 -235 -17 12 5 132
23 239 35 43 5 83 13 89 19 6 6 14 8 20 4 5 -3 3 -11 -5 -18z m630 -57 c9 -4
32 -7 51 -7 l33 -1 -27 -36 c-25 -32 -26 -39 -17 -77 6 -23 10 -42 9 -43 -1
-1 -23 2 -48 8 -42 10 -51 8 -83 -11 l-36 -23 0 44 c0 37 -5 47 -37 74 l-38
32 44 13 c36 11 47 20 64 55 l21 43 23 -32 c13 -18 32 -35 41 -39z m-1615 55
c-7 -2 -19 -2 -25 0 -7 3 -2 5 12 5 14 0 19 -2 13 -5z m1497 -43 c12 -8 11
-10 -7 -10 -12 0 -25 5 -28 10 -8 13 15 13 35 0z m760 -52 c0 -5 20 -8 43 -8
24 0 47 -3 50 -7 4 -3 -5 -22 -19 -40 -26 -34 -26 -43 -8 -105 4 -15 1 -15
-41 -2 -44 13 -48 12 -86 -11 l-39 -25 0 44 c0 39 -5 48 -36 74 -38 32 -38 33
18 51 29 10 40 20 53 53 l16 42 24 -30 c13 -16 24 -32 25 -36z m1383 45 c-7
-2 -21 -2 -30 0 -10 3 -4 5 12 5 17 0 24 -2 18 -5z m-784 -37 c-9 -9 -191 -36
-232 -35 -42 1 -42 2 13 10 152 25 228 33 219 25z m188 -32 c-3 -3 -12 -4 -19
-1 -8 3 -5 6 6 6 11 1 17 -2 13 -5z m-487 -14 c-19 -13 -30 -13 -30 0 0 6 10
10 23 10 18 0 19 -2 7 -10z m-107 -7 c-7 -2 -19 -2 -25 0 -7 3 -2 5 12 5 14 0
19 -2 13 -5z m-1543 -33 c17 -24 28 -30 60 -30 50 0 57 -13 26 -51 -21 -24
-24 -34 -16 -55 6 -14 10 -34 10 -44 0 -18 -2 -18 -41 -5 -39 14 -43 14 -85
-11 l-44 -26 0 48 c0 41 -4 51 -32 75 l-33 27 30 11 c17 7 36 14 43 16 6 2 20
20 29 40 9 19 20 35 24 35 4 0 17 -13 29 -30z m1660 -10 c12 -8 9 -10 -11 -10
-15 0 -42 -3 -60 -6 -19 -4 -31 -3 -27 1 6 6 46 18 78 24 3 0 12 -4 20 -9z
m-725 -40 c-3 -5 -21 -9 -38 -9 l-32 2 35 7 c19 4 36 8 38 9 2 0 0 -3 -3 -9z
m994 -25 c21 -31 29 -35 67 -35 24 0 44 -4 44 -8 0 -4 -11 -23 -24 -41 -21
-28 -23 -36 -13 -66 13 -44 6 -51 -40 -37 -33 10 -42 9 -80 -14 l-43 -25 0 47
c0 41 -4 51 -32 75 l-33 27 30 11 c17 7 36 14 43 16 8 3 21 23 30 45 9 22 19
40 22 40 3 0 16 -16 29 -35z m-1589 15 c0 -5 -12 -10 -27 -9 l-28 1 25 8 c14
4 26 8 28 9 1 1 2 -3 2 -9z m-677 -37 c-7 -2 -19 -2 -25 0 -7 3 -2 5 12 5 14
0 19 -2 13 -5z m702 -23 c-3 -5 -27 -10 -53 -9 -35 0 -42 3 -27 9 28 12 88 12
80 0z m-1241 -10 c-6 -6 -21 -6 -39 -1 -30 9 -30 9 10 10 25 1 36 -2 29 -9z
m1029 -17 c-7 -2 -19 -2 -25 0 -7 3 -2 5 12 5 14 0 19 -2 13 -5z m267 -27 c0
-2 -9 -6 -20 -9 -11 -3 -20 -1 -20 4 0 5 9 9 20 9 11 0 20 -2 20 -4z m70 -36
c-36 -12 -62 -12 -55 0 3 6 23 10 43 9 33 -1 34 -2 12 -9z m-220 -50 c0 -5 -2
-10 -4 -10 -3 0 -8 5 -11 10 -3 6 -1 10 4 10 6 0 11 -4 11 -10z m-840 -62 c0
-5 23 -8 50 -8 28 0 50 -3 50 -6 0 -3 -11 -19 -25 -36 -28 -33 -29 -39 -16
-86 11 -36 4 -39 -48 -21 -26 9 -37 8 -67 -10 -43 -26 -44 -26 -44 -1 0 11 -6
20 -12 21 -10 0 -10 2 0 6 21 8 13 31 -23 60 -19 15 -35 31 -35 34 0 4 19 12
43 18 36 9 44 16 60 53 l18 43 24 -30 c13 -17 24 -33 25 -37z m3466 55 c-8 -8
-24 -11 -96 -17 l-55 -5 60 13 c69 16 101 19 91 9z m-1813 -10 c-7 -2 -21 -2
-30 0 -10 3 -4 5 12 5 17 0 24 -2 18 -5z m1483 -83 c50 0 54 -10 19 -48 -19
-20 -24 -34 -20 -52 4 -14 9 -35 12 -47 5 -22 5 -22 -40 -7 -44 15 -46 15 -86
-10 l-41 -26 0 47 c-1 43 -4 51 -35 73 -37 28 -36 33 16 49 28 9 41 21 55 52
l18 41 29 -36 c25 -32 34 -36 73 -36z m-2627 6 c-12 -10 -60 -16 -54 -6 3 5
18 10 32 10 15 0 24 -2 22 -4z m548 -22 c-3 -3 -12 -4 -19 -1 -8 3 -5 6 6 6
11 1 17 -2 13 -5z m830 -20 c-3 -3 -12 -4 -19 -1 -8 3 -5 6 6 6 11 1 17 -2 13
-5z m-1037 -14 c-20 -13 -43 -13 -35 0 3 6 16 10 28 10 18 0 19 -2 7 -10z
m2563 -57 c-7 -2 -19 -2 -25 0 -7 3 -2 5 12 5 14 0 19 -2 13 -5z m-4228 -43
c-3 -5 -11 -10 -16 -10 -6 0 -7 5 -4 10 3 6 11 10 16 10 6 0 7 -4 4 -10z m-70
-20 c3 -5 2 -10 -4 -10 -5 0 -13 5 -16 10 -3 6 -2 10 4 10 5 0 13 -4 16 -10z
m42 -6 c-3 -3 -12 -4 -19 -1 -8 3 -5 6 6 6 11 1 17 -2 13 -5z m2559 -30 c180
-23 413 -90 579 -165 50 -22 50 -22 150 -6 55 10 138 21 185 27 47 5 101 14
120 18 19 5 71 8 115 7 49 -1 70 1 55 5 -23 7 -23 8 -3 9 12 1 25 -4 29 -10 6
-11 22 -9 104 11 25 6 83 13 130 16 47 3 101 11 121 19 20 8 39 12 41 9 4 -4
160 14 286 33 20 3 32 1 32 -6 0 -6 -13 -11 -29 -11 -16 0 -63 -7 -103 -16
-40 -8 -103 -15 -140 -15 -53 0 -68 -3 -68 -14 0 -11 -12 -15 -42 -15 -24 0
-61 -5 -83 -10 -25 -6 -42 -5 -46 1 -4 7 -14 7 -30 0 -34 -14 -189 -28 -228
-20 -20 4 -43 2 -59 -6 -27 -14 -244 -45 -310 -45 -21 0 -57 -6 -81 -14 l-45
-13 100 -58 c54 -31 141 -88 191 -126 51 -38 95 -69 97 -69 18 0 278 -277 346
-368 45 -62 90 -112 99 -113 10 0 11 -2 4 -6 -9 -3 -10 -10 -3 -23 13 -24 18
-23 -320 -50 -1148 -90 -2090 -207 -3353 -417 -87 -14 -160 -23 -163 -20 -17
17 98 283 187 432 35 58 94 147 131 196 37 49 68 92 68 95 0 4 -19 4 -42 1
-41 -5 -42 -5 -18 8 14 8 39 14 56 15 24 0 41 11 77 49 26 27 47 53 47 56 0 7
-92 1 -180 -11 -25 -3 -42 -3 -38 1 5 5 20 10 35 11 16 2 71 9 125 17 l96 13
59 55 c238 220 575 398 905 479 277 68 531 82 814 44z m-2953 -101 c-7 -2 -19
-2 -25 0 -7 3 -2 5 12 5 14 0 19 -2 13 -5z m755 -73 c23 0 42 -3 42 -6 0 -3
-11 -20 -25 -38 -22 -29 -23 -36 -14 -70 6 -21 8 -40 6 -43 -3 -2 -23 1 -45 8
-36 10 -45 9 -77 -10 -20 -11 -38 -21 -41 -21 -2 0 -4 19 -4 41 0 36 -5 47
-37 74 l-37 32 45 11 c40 10 48 17 64 53 l19 41 31 -36 c26 -31 36 -36 73 -36z
m239 54 c-3 -3 -12 -4 -19 -1 -8 3 -5 6 6 6 11 1 17 -2 13 -5z m3731 -22 c-1
-4 4 -17 12 -29 10 -16 25 -23 47 -23 59 0 66 -8 37 -46 -24 -31 -26 -38 -16
-76 6 -23 9 -44 7 -46 -2 -3 -23 3 -46 12 -41 17 -42 17 -80 -9 l-39 -25 0 44
c0 60 -35 90 -95 81 l-40 -6 40 19 c22 10 57 24 77 31 28 9 40 21 52 51 11 28
20 38 31 34 8 -3 14 -9 13 -12z m486 -22 c-10 -10 -145 -32 -153 -25 -9 10 7
16 65 24 85 12 100 13 88 1z m-1249 -70 c4 -6 -6 -10 -22 -9 -25 0 -26 1 -8 9
11 5 21 9 22 9 1 1 5 -3 8 -9z m494 -34 c-2 -2 -35 -6 -74 -8 -40 -3 -61 -2
-50 3 19 7 132 13 124 5z m-281 -23 c-10 -2 -28 -2 -40 0 -13 2 -5 4 17 4 22
1 32 -1 23 -4z m107 -3 c-11 -5 -27 -9 -35 -9 -13 -1 -13 0 0 9 8 5 24 9 35 9
l20 0 -20 -9z m-187 -7 c-10 -2 -26 -2 -35 0 -10 3 -2 5 17 5 19 0 27 -2 18
-5z m-141 -9 c-3 -3 -12 -4 -19 -1 -8 3 -5 6 6 6 11 1 17 -2 13 -5z m171 -11
c-16 -2 -40 -2 -55 0 -16 2 -3 4 27 4 30 0 43 -2 28 -4z m-123 -13 c-3 -5 -12
-10 -20 -10 -8 0 -17 5 -20 10 -4 6 5 10 20 10 15 0 24 -4 20 -10z m-3405
-120 c0 -5 -5 -10 -11 -10 -5 0 -7 5 -4 10 3 6 8 10 11 10 2 0 4 -4 4 -10z
m190 -90 c0 -5 -7 -10 -16 -10 -8 0 -12 5 -9 10 3 6 10 10 16 10 5 0 9 -4 9
-10z m4310 -100 c57 0 63 -9 35 -46 -24 -31 -25 -37 -15 -75 6 -23 10 -42 8
-44 -2 -2 -22 3 -45 11 -41 14 -44 13 -83 -11 l-40 -25 0 44 c0 39 -4 48 -37
75 l-37 30 28 11 c15 5 34 10 42 10 8 0 24 21 36 46 l23 45 28 -35 c21 -26 37
-36 57 -36z m-4860 30 c0 -6 -11 -8 -27 -4 -40 10 -41 14 -5 14 18 0 32 -5 32
-10z m630 -16 c-14 -7 -65 -14 -111 -17 -46 -3 -75 -3 -64 0 11 3 24 12 28 19
6 11 28 14 91 12 73 -3 80 -4 56 -14z m-850 -14 c-8 -5 -19 -10 -25 -10 -5 0
-3 5 5 10 8 5 20 10 25 10 6 0 3 -5 -5 -10z m282 -11 c13 -21 17 -21 86 -9 40
6 79 9 88 6 8 -3 36 -1 61 4 52 12 133 3 96 -11 -26 -10 -177 -23 -252 -22
-34 1 -49 -2 -40 -8 8 -5 31 -9 52 -9 l39 0 -31 -39 c-17 -21 -28 -41 -24 -45
3 -3 22 -6 42 -6 27 0 32 -3 21 -10 -8 -5 -25 -10 -36 -10 -18 0 -20 -5 -16
-27 4 -23 2 -25 -14 -19 -48 19 -74 18 -110 -3 -20 -12 -38 -20 -40 -18 -2 2
-5 23 -6 46 -1 35 -7 47 -34 69 l-33 26 42 16 c30 11 48 26 62 53 23 43 28 44
47 16z m4137 7 c-2 -2 -26 -6 -54 -9 -34 -4 -42 -3 -25 3 25 8 87 13 79 6z
m438 -32 c-3 -3 -12 -4 -19 -1 -8 3 -5 6 6 6 11 1 17 -2 13 -5z m-5257 -14
c-8 -5 -26 -9 -40 -9 -23 0 -23 1 -5 9 11 5 29 9 40 9 17 1 17 -1 5 -9z m390
-19 c-24 -15 -97 -25 -85 -13 6 6 26 12 45 15 19 2 40 4 45 5 6 1 3 -3 -5 -7z
m145 -1 c-3 -5 -12 -10 -18 -10 -7 0 -6 4 3 10 19 12 23 12 15 0z m640 -39
c-6 -5 -58 -14 -116 -20 -58 -6 -113 -13 -122 -17 -9 -3 -17 -2 -17 4 0 6 30
13 68 17 37 3 83 10 102 15 49 11 96 12 85 1z m-1178 -7 c-3 -3 -12 -4 -19 -1
-8 3 -5 6 6 6 11 1 17 -2 13 -5z m891 -31 c-10 -2 -26 -2 -35 0 -10 3 -2 5 17
5 19 0 27 -2 18 -5z m-324 -43 c-28 -11 -170 -23 -162 -14 4 4 25 10 45 14 49
9 142 9 117 0z m-275 -34 c-9 -8 -98 -13 -93 -5 3 5 26 9 51 9 26 0 44 -2 42
-4z m-332 -22 c-3 -3 -12 -4 -19 -1 -8 3 -5 6 6 6 11 1 17 -2 13 -5z m6513
-39 c-7 -8 -21 -15 -31 -15 -10 0 -61 -14 -113 -30 -155 -50 -298 -66 -1306
-150 -1707 -142 -2297 -213 -3915 -470 -143 -23 -296 -48 -340 -56 -44 -8
-109 -18 -145 -24 -36 -5 -164 -25 -285 -44 -319 -51 -526 -76 -640 -77 -121
-1 -212 5 -221 14 -17 17 13 20 108 9 113 -12 204 -6 448 28 126 18 1422 231
1490 245 14 3 45 7 70 10 25 3 97 14 160 24 838 138 1815 252 2885 336 176 14
374 29 440 35 66 5 183 15 260 20 641 48 876 77 1018 125 116 39 136 43 117
20z m-5810 -5 c-8 -5 -22 -10 -30 -10 -13 0 -13 1 0 10 8 5 22 10 30 10 13 0
13 -1 0 -10z m113 -57 c-7 -2 -19 -2 -25 0 -7 3 -2 5 12 5 14 0 19 -2 13 -5z
m245 -40 c-10 -2 -28 -2 -40 0 -13 2 -5 4 17 4 22 1 32 -1 23 -4z m5205 0 c-7
-2 -21 -2 -30 0 -10 3 -4 5 12 5 17 0 24 -2 18 -5z m-6103 -102 c-15 -9 -61
-15 -90 -11 -27 3 15 15 62 17 29 2 38 0 28 -6z m143 -48 c-7 -2 -19 -2 -25 0
-7 3 -2 5 12 5 14 0 19 -2 13 -5z m253 -73 c24 0 44 -3 44 -7 0 -3 -11 -21
-25 -40 -23 -29 -25 -37 -16 -70 15 -53 16 -52 -35 -37 -43 13 -47 12 -85 -11
l-39 -25 0 47 c0 44 -3 50 -35 72 -40 27 -38 36 10 45 30 6 39 15 58 52 l22
45 28 -35 c25 -31 35 -36 73 -36z m-393 3 c-7 -2 -21 -2 -30 0 -10 3 -4 5 12
5 17 0 24 -2 18 -5z m785 -80 c-10 -2 -26 -2 -35 0 -10 3 -2 5 17 5 19 0 27
-2 18 -5z m-70 -10 c-10 -2 -26 -2 -35 0 -10 3 -2 5 17 5 19 0 27 -2 18 -5z
m1079 -29 c-3 -3 -12 -4 -19 -1 -8 3 -5 6 6 6 11 1 17 -2 13 -5z m-49 -11
c-10 -2 -26 -2 -35 0 -10 3 -2 5 17 5 19 0 27 -2 18 -5z m-1565 -30 c-7 -2
-21 -2 -30 0 -10 3 -4 5 12 5 17 0 24 -2 18 -5z m330 -30 c-7 -2 -21 -2 -30 0
-10 3 -4 5 12 5 17 0 24 -2 18 -5z m-166 -119 c-3 -3 -12 -4 -19 -1 -8 3 -5 6
6 6 11 1 17 -2 13 -5z m-44 -11 c-7 -2 -19 -2 -25 0 -7 3 -2 5 12 5 14 0 19
-2 13 -5z m-80 -70 c-7 -2 -19 -2 -25 0 -7 3 -2 5 12 5 14 0 19 -2 13 -5z
m-242 -29 c-46 -8 -86 -12 -88 -10 -8 8 80 24 127 24 35 0 26 -3 -39 -14z
m6649 -508 c0 -2 -7 -6 -15 -10 -8 -3 -15 -1 -15 4 0 6 7 10 15 10 8 0 15 -2
15 -4z m-183 -362 c-3 -3 -12 -4 -19 -1 -8 3 -5 6 6 6 11 1 17 -2 13 -5z m107
-35 c5 -4 -72 -7 -170 -6 -219 1 -191 5 -1359 -188 -1655 -274 -2458 -371
-4115 -495 -546 -41 -909 -74 -1045 -95 -49 -8 -139 -30 -199 -50 -59 -20
-110 -34 -112 -32 -10 10 29 26 141 60 170 52 290 65 1280 147 1066 88 1642
145 2305 231 453 58 1119 157 1750 260 490 80 534 87 770 123 207 32 362 52
450 59 65 5 295 -5 304 -14z m-1654 -354 c-42 -111 -183 -359 -264 -463 -39
-52 -42 -59 -27 -72 14 -14 13 -15 -15 -20 -21 -4 -51 -28 -102 -81 -40 -42
-72 -81 -72 -88 0 -6 -4 -11 -10 -11 -5 0 -56 -39 -112 -86 -301 -252 -626
-403 -1027 -476 -169 -31 -534 -31 -703 0 -297 54 -574 163 -808 316 l-96 63
-79 -5 c-57 -3 -76 -2 -71 7 4 6 25 11 46 11 75 0 74 8 -18 85 -111 94 -201
187 -292 300 l-71 90 68 6 c37 4 136 12 218 19 981 77 1795 171 2735 316 162
25 383 60 490 78 107 19 201 34 207 35 9 1 10 -6 3 -24z m680 -47 c0 -37 5
-46 30 -63 16 -11 30 -23 30 -26 0 -3 -18 -11 -40 -18 -31 -9 -45 -20 -57 -47
-9 -18 -20 -34 -24 -34 -4 0 -17 14 -29 30 -18 26 -28 30 -66 30 -24 0 -44 3
-44 6 0 3 11 20 25 38 21 28 23 37 15 66 -5 19 -8 36 -5 38 3 3 23 0 44 -7 35
-10 44 -9 73 9 18 11 36 20 41 20 4 0 7 -19 7 -42z m-225 -388 c-45 -11 -77
-11 -70 0 3 6 27 9 53 9 42 -1 44 -2 17 -9z m-91 -19 c3 -5 -4 -11 -17 -15
-33 -9 -59 -7 -52 3 3 5 -3 12 -12 14 -10 3 3 5 29 6 26 0 49 -3 52 -8z m-84
-27 c0 -2 -19 -4 -42 -3 -35 1 -38 2 -18 8 23 7 60 4 60 -5z m-123 -10 c-3 -3
-12 -4 -19 -1 -8 3 -5 6 6 6 11 1 17 -2 13 -5z m331 -84 c4 -1 20 -12 36 -25
l30 -24 -46 -11 c-39 -10 -48 -17 -64 -52 l-18 -40 -31 36 c-26 31 -36 36 -74
36 l-43 0 27 36 c24 32 26 39 17 75 -11 43 -12 43 40 29 31 -9 44 -7 75 9 l38
19 3 -44 c2 -24 6 -44 10 -44z m-530 61 c9 -5 -3 -10 -34 -15 -26 -3 -50 -4
-52 -1 -3 3 4 5 16 5 11 0 24 5 27 10 7 12 25 13 43 1z m-158 -11 c-8 -5 -24
-9 -35 -9 l-20 0 20 9 c11 5 27 9 35 9 13 1 13 0 0 -9z m-4030 -92 c0 -34 5
-46 32 -68 l31 -26 -45 -13 c-40 -11 -48 -18 -62 -54 l-16 -41 -27 37 c-25 33
-33 36 -76 37 l-48 0 29 36 c27 32 29 40 20 71 -5 19 -7 37 -5 40 3 2 23 -1
44 -7 35 -11 43 -10 74 9 19 11 37 21 42 21 4 0 7 -19 7 -42z m4287 -44 c-3
-3 -12 -4 -19 -1 -8 3 -5 6 6 6 11 1 17 -2 13 -5z m-147 -18 c0 -2 -9 -6 -20
-9 -11 -3 -18 -1 -14 4 5 9 34 13 34 5z m-291 -41 c-8 -7 -78 -9 -85 -2 -4 4
14 7 41 7 27 0 46 -2 44 -5z m881 -25 c-20 -13 -33 -13 -25 0 3 6 14 10 23 10
15 0 15 -2 2 -10z m-3893 -86 c-3 -3 -12 -4 -19 -1 -8 3 -5 6 6 6 11 1 17 -2
13 -5z m-670 -70 c-3 -3 -12 -4 -19 -1 -8 3 -5 6 6 6 11 1 17 -2 13 -5z m-57
-14 c-36 -12 -62 -12 -55 0 3 6 23 10 43 9 33 -1 34 -2 12 -9z m850 -24 c0 -2
-9 -6 -20 -9 -11 -3 -18 -1 -14 4 5 9 34 13 34 5z m-951 -20 c-10 -9 -79 -14
-79 -5 0 5 19 9 42 9 23 0 39 -2 37 -4z m4381 -34 c0 -33 5 -43 37 -65 l37
-26 -25 -9 c-13 -5 -33 -11 -44 -13 -11 -3 -28 -21 -39 -44 l-18 -39 -29 32
c-19 21 -38 32 -56 33 -16 0 -36 4 -46 8 -16 6 -16 9 8 31 24 22 26 30 20 72
l-7 48 41 -15 c38 -13 44 -13 74 5 44 27 47 26 47 -18z m-4627 -9 c-7 -2 -19
-2 -25 0 -7 3 -2 5 12 5 14 0 19 -2 13 -5z m981 -25 c-27 -4 -121 -16 -208
-28 -213 -29 -211 -28 -149 -78 l38 -30 -43 -13 c-35 -10 -47 -21 -64 -53
l-20 -40 -27 31 c-20 24 -37 33 -73 38 l-48 7 29 35 c35 42 32 67 -6 52 -13
-5 -42 -9 -64 -9 -21 0 -58 -5 -81 -11 -32 -8 -55 -9 -88 0 l-45 11 50 -4 c31
-3 77 3 120 15 38 10 82 19 97 19 22 0 28 5 28 21 0 15 5 19 18 15 59 -18 73
-17 105 3 41 25 47 26 47 6 0 -18 6 -18 86 -5 34 6 74 10 90 11 61 2 209 23
218 30 5 5 16 3 24 -4 13 -10 7 -13 -34 -19z m129 15 c-7 -2 -19 -2 -25 0 -7
3 -2 5 12 5 14 0 19 -2 13 -5z m3302 -13 c-3 -5 -14 -10 -23 -9 -14 0 -13 2 3
9 27 11 27 11 20 0z m-75 -20 c-8 -5 -19 -10 -25 -10 -5 0 -3 5 5 10 8 5 20
10 25 10 6 0 3 -5 -5 -10z m-4360 -10 c-34 -11 -60 -11 -35 0 11 5 29 8 40 8
16 0 15 -2 -5 -8z m1450 -19 c-42 -25 -365 -54 -410 -38 -8 3 -24 8 -35 10
-11 3 7 5 40 6 33 1 94 8 135 14 90 14 292 20 270 8z m-1703 -17 c-3 -3 -12
-4 -19 -1 -8 3 -5 6 6 6 11 1 17 -2 13 -5z m4012 -38 c-12 -10 -60 -16 -54 -6
3 5 18 10 32 10 15 0 24 -2 22 -4z m-159 -10 c0 -2 -7 -6 -15 -10 -8 -3 -15
-1 -15 4 0 6 7 10 15 10 8 0 15 -2 15 -4z m-3843 -22 c-3 -3 -12 -4 -19 -1 -8
3 -5 6 6 6 11 1 17 -2 13 -5z m1020 0 c-3 -3 -12 -4 -19 -1 -8 3 -5 6 6 6 11
1 17 -2 13 -5z m-547 -48 c0 -2 -9 -6 -20 -9 -11 -3 -18 -1 -14 4 5 9 34 13
34 5z m-115 -46 c4 -6 -7 -10 -27 -9 -31 1 -32 1 -8 9 14 4 26 8 27 9 1 1 5
-3 8 -9z m1418 -17 c-7 -2 -19 -2 -25 0 -7 3 -2 5 12 5 14 0 19 -2 13 -5z
m-1693 -17 c0 -9 -30 -14 -35 -6 -4 6 3 10 14 10 12 0 21 -2 21 -4z m317 -12
c-3 -3 -12 -4 -19 -1 -8 3 -5 6 6 6 11 1 17 -2 13 -5z m3080 0 c-3 -3 -12 -4
-19 -1 -8 3 -5 6 6 6 11 1 17 -2 13 -5z m927 -41 c-6 -34 -4 -39 31 -69 l38
-31 -44 -15 c-35 -11 -48 -22 -62 -52 l-18 -38 -34 36 c-28 30 -39 36 -75 36
l-42 0 27 32 c24 28 26 38 21 76 -5 36 -3 43 8 39 46 -18 82 -17 111 3 42 28
47 25 39 -17z m-2042 15 c-17 -8 -26 -8 -34 0 -9 9 -4 12 23 11 32 0 33 -1 11
-11z m1777 -32 c-12 -10 -60 -16 -54 -6 3 5 18 10 32 10 15 0 24 -2 22 -4z
m-3544 -36 c-3 -5 -14 -10 -23 -10 -15 0 -15 2 -2 10 20 13 33 13 25 0z m2512
-26 c-3 -3 -12 -4 -19 -1 -8 3 -5 6 6 6 11 1 17 -2 13 -5z m-2824 -11 c-7 -2
-19 -2 -25 0 -7 3 -2 5 12 5 14 0 19 -2 13 -5z m1056 -33 c-3 -35 1 -44 31
-68 l33 -28 -44 -13 c-37 -10 -47 -18 -61 -53 l-18 -41 -27 36 c-25 33 -33 36
-76 37 l-48 0 29 36 c27 32 29 40 20 71 -5 19 -7 37 -5 40 3 2 22 0 42 -6 31
-8 44 -7 74 9 50 26 53 25 50 -20z m138 34 c-3 -3 -12 -4 -19 -1 -8 3 -5 6 6
6 11 1 17 -2 13 -5z m56 -1 c-7 -2 -21 -2 -30 0 -10 3 -4 5 12 5 17 0 24 -2
18 -5z m-660 -61 c-2 -8 15 -12 55 -13 43 0 52 -2 35 -9 -26 -11 -135 -1 -127
11 3 5 0 9 -6 9 -6 0 -8 5 -5 11 9 14 51 7 48 -9z m1897 -42 c0 -5 -7 -10 -15
-10 -8 0 -15 5 -15 10 0 6 7 10 15 10 8 0 15 -4 15 -10z m-1853 -6 c-3 -3 -12
-4 -19 -1 -8 3 -5 6 6 6 11 1 17 -2 13 -5z m2410 0 c-3 -3 -12 -4 -19 -1 -8 3
-5 6 6 6 11 1 17 -2 13 -5z m-2557 -13 c0 -8 -61 -22 -69 -15 -2 1 12 7 30 13
19 5 35 10 37 10 1 1 2 -3 2 -8z m2285 -21 c-27 -12 -43 -12 -25 0 8 5 22 9
30 9 10 0 8 -3 -5 -9z m1768 3 c-7 -2 -21 -2 -30 0 -10 3 -4 5 12 5 17 0 24
-2 18 -5z m-200 -30 c-7 -2 -19 -2 -25 0 -7 3 -2 5 12 5 14 0 19 -2 13 -5z
m-751 -42 c-3 -34 0 -41 32 -66 32 -25 42 -27 89 -22 76 9 29 -9 -61 -23 -71
-12 -73 -13 -93 -52 l-21 -41 -30 37 c-26 32 -35 36 -74 36 l-45 0 29 36 c27
32 29 40 20 71 -5 19 -8 36 -6 38 2 2 23 -1 46 -7 36 -9 46 -8 74 11 18 11 35
21 38 21 3 0 4 -17 2 -39z m553 30 c-11 -10 -32 -15 -55 -11 -8 1 -1 6 15 10
44 11 50 11 40 1z m385 -26 c-25 -8 -55 -17 -67 -20 -14 -5 -23 -3 -23 4 0 10
16 16 70 24 53 9 63 5 20 -8z m-527 -2 c-7 -2 -19 -2 -25 0 -7 3 -2 5 12 5 14
0 19 -2 13 -5z m160 -10 c-7 -2 -21 -2 -30 0 -10 3 -4 5 12 5 17 0 24 -2 18
-5z m-2138 -23 c-11 -5 -31 -8 -45 -8 l-25 0 25 8 c14 4 34 8 45 8 l20 1 -20
-9z m-357 -90 c4 -1 20 -12 36 -25 l30 -24 -46 -11 c-39 -10 -48 -17 -64 -52
l-18 -39 -32 35 c-28 30 -40 36 -74 36 l-41 0 27 36 c25 33 27 39 17 76 -10
38 -10 39 11 34 60 -18 74 -17 107 3 l34 21 3 -45 c2 -25 6 -45 10 -45z m709
84 c-3 -3 -12 -4 -19 -1 -8 3 -5 6 6 6 11 1 17 -2 13 -5z m2080 0 c-3 -3 -12
-4 -19 -1 -8 3 -5 6 6 6 11 1 17 -2 13 -5z m-587 -44 l-25 -8 25 -1 c34 -1 14
-18 -37 -29 -31 -7 -47 -6 -60 3 -15 11 -14 13 15 20 18 3 32 11 32 16 0 5 17
9 38 8 33 -1 34 -2 12 -9z m890 -20 c-8 -5 -24 -10 -35 -10 -17 0 -17 2 -5 10
8 5 24 10 35 10 17 0 17 -2 5 -10z m-90 -20 c-44 -10 -154 -20 -147 -14 8 8
91 22 137 22 45 0 45 0 10 -8z m-1665 -142 c19 -12 35 -28 35 -34 0 -5 -22
-16 -49 -23 -40 -10 -52 -18 -61 -42 l-13 -30 -26 25 c-26 24 -28 25 -126 16
-55 -5 -101 -7 -103 -5 -2 2 20 9 50 15 44 10 58 19 82 52 26 36 27 43 18 79
-9 36 -8 40 6 34 45 -18 79 -16 113 4 l34 21 3 -44 c3 -37 8 -48 37 -68z
m-713 56 c-4 -33 0 -41 34 -69 l38 -32 -47 -13 c-39 -12 -49 -20 -61 -51 -14
-34 -20 -38 -63 -44 -26 -4 -99 -15 -161 -24 -61 -10 -114 -16 -117 -13 -2 2
3 11 11 19 11 11 37 15 100 14 46 0 96 4 110 9 13 5 38 11 54 12 23 2 27 5 20
18 -15 29 -34 39 -78 42 l-43 3 29 34 c26 31 28 39 19 68 -6 18 -8 36 -5 39 3
3 24 0 46 -7 36 -11 44 -10 74 9 18 12 35 22 38 22 4 0 4 -16 2 -36z m1708
-24 c0 -5 -6 -10 -14 -10 -8 0 -18 5 -21 10 -3 6 3 10 14 10 12 0 21 -4 21
-10z m-1545 -41 c-22 -4 -56 -5 -75 -1 l-35 7 45 5 c25 3 59 3 75 1 29 -5 29
-5 -10 -12z m705 -3 c0 -3 -4 -8 -10 -11 -5 -3 -10 -1 -10 4 0 6 5 11 10 11 6
0 10 -2 10 -4z m-515 -86 c4 -6 -5 -10 -20 -10 -15 0 -24 4 -20 10 3 6 12 10
20 10 8 0 17 -4 20 -10z m-1058 -26 c-3 -3 -12 -4 -19 -1 -8 3 -5 6 6 6 11 1
17 -2 13 -5z m250 0 c-3 -3 -12 -4 -19 -1 -8 3 -5 6 6 6 11 1 17 -2 13 -5z
m-439 -11 c-10 -2 -26 -2 -35 0 -10 3 -2 5 17 5 19 0 27 -2 18 -5z m1202 -13
c-8 -5 -26 -9 -40 -9 l-25 1 25 8 c14 4 32 8 40 9 13 1 13 0 0 -9z m-1330 -10
c-21 -7 -22 -8 -5 -10 11 -1 15 -4 8 -6 -6 -3 -24 2 -40 10 l-28 15 45 0 c37
-1 41 -2 20 -9z m2989 6 c-2 -2 -29 -6 -59 -9 -36 -4 -46 -3 -30 3 25 8 97 13
89 6z m-2399 -36 c0 -5 -17 -9 -37 -9 -38 1 -38 1 -8 9 43 11 45 11 45 0z
m1043 3 c-7 -2 -19 -2 -25 0 -7 3 -2 5 12 5 14 0 19 -2 13 -5z m-1153 -25
c-13 -5 -42 -7 -65 -6 -36 3 -38 5 -17 14 12 5 41 8 65 5 38 -3 40 -4 17 -13z
m1919 -12 c-10 -10 -79 -24 -79 -16 0 8 26 16 64 19 11 0 17 -1 15 -3z m474
-63 c-7 -2 -21 -2 -30 0 -10 3 -4 5 12 5 17 0 24 -2 18 -5z m-286 -29 c-3 -3
-12 -4 -19 -1 -8 3 -5 6 6 6 11 1 17 -2 13 -5z m-499 -9 c-7 -7 -182 -34 -187
-29 -10 9 9 14 75 23 87 11 119 12 112 6z m-210 -32 c-10 -2 -28 -2 -40 0 -13
2 -5 4 17 4 22 1 32 -1 23 -4z m-78 -7 c0 -2 -9 -6 -20 -9 -11 -3 -20 -1 -20
4 0 5 9 9 20 9 11 0 20 -2 20 -4z m-117 -13 c-7 -2 -21 -2 -30 0 -10 3 -4 5
12 5 17 0 24 -2 18 -5z m112 -43 c3 -6 -4 -10 -18 -10 -14 0 -40 -3 -58 -6
-43 -9 -31 6 13 16 47 11 56 11 63 0z m-737 -47 c-10 -2 -26 -2 -35 0 -10 3
-2 5 17 5 19 0 27 -2 18 -5z m-553 -62 c-14 -12 -94 -21 -100 -11 -6 10 23 17
75 19 20 0 30 -3 25 -8z m-212 -28 c-7 -2 -21 -2 -30 0 -10 3 -4 5 12 5 17 0
24 -2 18 -5z m252 -33 c-28 -12 -37 -12 -30 0 3 6 16 10 28 9 21 0 21 -1 2 -9z
m75 -30 c-14 -4 -34 -8 -45 -9 -16 -1 -17 1 -5 9 8 5 29 9 45 9 29 -1 29 -1 5
-9z m603 -67 c-7 -2 -21 -2 -30 0 -10 3 -4 5 12 5 17 0 24 -2 18 -5z"/>
<path d="M4265 5528 c-35 -72 -48 -109 -53 -165 -6 -56 -14 -78 -32 -98 -45
-48 -65 -23 -36 46 14 34 15 86 2 107 -22 36 -118 -29 -157 -104 -36 -73 -59
-104 -75 -104 -21 0 -17 38 11 98 14 30 25 62 25 72 0 42 -21 26 -69 -52 -37
-60 -48 -84 -38 -90 8 -5 5 -8 -10 -8 -12 0 -25 -4 -28 -10 -9 -15 -25 -12
-25 5 0 8 16 43 35 79 36 65 35 84 -4 71 -17 -5 -61 -88 -61 -114 0 -13 -49
-71 -61 -71 -5 0 0 23 12 51 26 68 22 133 -10 137 -62 9 -191 -150 -138 -171
10 -4 10 -6 0 -6 -28 -2 -3 -81 25 -81 10 0 41 34 70 76 16 23 17 28 -36 -119
-31 -86 -34 -101 -22 -125 l12 -27 37 41 c36 42 71 120 71 162 0 13 7 37 16
53 l16 31 16 -33 c25 -49 47 -48 74 3 l22 43 6 -42 c4 -24 9 -45 12 -49 14
-13 45 8 69 45 l24 39 25 -30 26 -31 24 30 c14 16 33 40 42 53 l18 25 -6 -40
c-10 -82 23 -84 83 -7 l32 42 6 -30 c15 -67 66 -60 111 15 13 23 24 33 24 23
0 -9 5 -29 12 -43 17 -39 56 -30 88 19 l25 38 6 -32 c4 -17 12 -37 18 -43 18
-18 55 7 87 56 l28 45 18 -29 c10 -16 22 -29 28 -29 5 0 23 19 40 42 36 50 37
45 5 -57 -27 -86 -30 -112 -15 -135 7 -11 25 19 75 123 72 149 82 196 22 98
-21 -33 -40 -61 -42 -61 -1 0 10 37 26 83 27 78 38 157 22 157 -5 0 -30 -39
-58 -86 -27 -47 -57 -90 -67 -95 -26 -14 -23 2 13 72 30 60 35 99 12 106 -14
5 -58 -69 -72 -122 -10 -40 -60 -105 -80 -105 -6 0 -11 17 -11 38 0 47 18 112
31 112 5 0 21 11 34 25 25 24 34 75 14 75 -7 0 -9 10 -5 25 10 38 -28 34 -44
-5 -7 -16 -17 -30 -22 -30 -5 0 -20 -11 -33 -25 -31 -30 -33 -65 -5 -65 18 0
18 -3 8 -27 -16 -36 -60 -106 -73 -115 -5 -4 -18 -8 -27 -8 -25 0 -23 29 7 88
30 61 32 82 5 82 -23 0 -56 -47 -66 -95 -8 -36 -38 -81 -64 -95 -16 -8 -22 -6
-36 15 -16 25 -15 28 24 113 56 123 77 242 42 242 -5 0 -30 -42 -55 -92z m15
-84 c-31 -75 -35 -62 -8 22 12 40 23 61 26 51 2 -10 -6 -43 -18 -73z m-195
-141 c-50 -87 -85 -112 -85 -61 0 22 97 125 107 114 3 -3 -7 -27 -22 -53z
m-435 -52 c-28 -45 -55 -71 -74 -71 -13 0 -5 34 14 66 22 34 83 79 88 65 2 -5
-11 -32 -28 -60z m30 -141 c0 -23 -34 -95 -50 -105 -17 -10 -12 11 25 113 7
20 25 14 25 -8z"/>
<path d="M4430 5525 c-13 -16 -6 -65 10 -65 13 0 30 34 30 59 0 24 -22 28 -40
6z"/>
<path d="M2762 5479 c-69 -13 -144 -59 -164 -99 -16 -32 -24 -90 -13 -90 18 0
94 47 98 60 5 20 105 70 139 70 49 0 63 -43 26 -77 -22 -19 -80 -53 -93 -53
-3 0 2 16 10 36 19 46 19 55 -1 47 -9 -3 -29 -27 -45 -52 -16 -25 -45 -55 -66
-66 -41 -23 -45 -35 -16 -50 20 -10 20 -11 2 -55 -10 -25 -18 -57 -18 -71 -1
-34 34 -79 61 -79 76 0 170 65 190 131 10 36 9 42 -8 60 -11 11 -49 26 -84 33
l-65 14 50 22 c127 57 176 137 124 204 -22 28 -47 31 -127 15z m57 -303 c13
-13 9 -20 -27 -56 -34 -34 -47 -41 -73 -38 -47 4 -57 27 -34 78 l19 42 50 -6
c27 -3 56 -12 65 -20z"/>
<path d="M3323 5396 c-9 -19 -26 -37 -38 -40 -19 -5 -45 -42 -45 -66 0 -5 9
-10 20 -12 19 -3 19 -4 -4 -53 -23 -50 -92 -133 -102 -123 -3 3 5 24 17 47 23
45 23 104 0 165 -9 23 -14 26 -26 16 -8 -7 -15 -19 -15 -26 0 -7 -23 -55 -52
-105 -51 -90 -81 -118 -112 -106 -27 11 -18 36 28 80 63 60 75 127 24 127 -57
0 -111 -81 -112 -166 -1 -101 54 -134 115 -69 l33 35 26 -25 c48 -46 87 -29
152 65 l17 25 -5 -31 c-7 -38 10 -74 34 -74 19 0 57 37 86 83 24 39 15 43 -22
12 -40 -33 -52 -32 -52 8 0 59 19 106 49 122 16 8 31 22 35 30 10 26 7 55 -5
55 -7 0 -8 11 -4 30 9 43 -20 40 -42 -4z m-313 -141 c0 -13 -30 -62 -44 -74
-23 -20 -21 6 4 47 17 28 40 43 40 27z m136 -89 c-12 -44 -22 -50 -45 -27
l-22 22 28 46 27 47 9 -34 c4 -18 6 -43 3 -54z"/>
<path d="M7126 5000 c-31 -20 -91 -32 -254 -51 -112 -13 -130 -21 -133 -59 -5
-61 2 -91 26 -112 13 -11 31 -42 39 -67 29 -88 95 -616 99 -786 2 -64 -2 -87
-16 -109 -15 -22 -17 -38 -12 -71 10 -71 12 -72 218 -48 100 11 198 19 218 16
47 -6 49 2 56 177 6 145 -6 238 -35 266 -14 15 -17 15 -28 0 -6 -9 -15 -47
-18 -84 -10 -92 -22 -127 -57 -157 -23 -19 -42 -25 -75 -25 -41 0 -46 3 -59
33 -17 41 -48 283 -40 314 7 30 39 30 59 1 9 -12 19 -44 22 -71 4 -26 15 -58
25 -70 l17 -22 11 28 c15 39 13 161 -4 289 -23 172 -46 248 -76 248 -17 0 -19
-8 -19 -84 0 -103 -4 -116 -40 -116 -33 0 -34 1 -54 168 -15 119 -12 161 13
176 6 4 31 7 56 8 56 1 78 -17 114 -92 68 -142 96 -1 40 202 -20 72 -43 119
-57 117 -4 0 -20 -9 -36 -19z m179 -1110 c-3 -5 -27 -9 -53 -9 l-47 2 40 7
c61 11 67 11 60 0z"/>
<path d="M6312 4889 c-50 -25 -72 -62 -72 -119 0 -34 6 -47 39 -79 21 -21 41
-51 45 -67 20 -98 96 -710 96 -779 0 -23 -9 -55 -21 -75 -16 -26 -20 -45 -16
-78 8 -77 12 -78 194 -59 87 9 176 16 198 14 l40 -2 13 50 c9 33 12 95 9 185
-2 112 -7 143 -24 183 -13 27 -29 47 -37 47 -19 0 -16 13 -25 -103 -8 -110
-28 -150 -75 -155 -38 -5 -63 21 -75 78 -20 92 -93 725 -87 759 3 18 13 42 22
52 26 29 13 117 -21 147 -36 31 -141 31 -203 1z"/>
<path d="M5827 4842 c-25 -27 -37 -69 -37 -127 0 -48 3 -54 23 -58 19 -4 19
-4 2 -6 -19 -1 -20 -7 -17 -168 3 -144 -15 -495 -35 -684 -4 -39 -14 -73 -30
-95 -15 -23 -23 -49 -23 -78 0 -83 64 -123 152 -95 81 27 99 116 37 182 -23
23 -29 39 -29 73 0 64 17 75 109 72 l76 -3 13 -40 c12 -37 12 -44 -9 -81 -25
-47 -21 -96 12 -138 18 -23 27 -26 87 -26 90 1 140 13 171 45 22 21 26 34 25
82 0 47 -4 59 -26 77 -14 12 -30 30 -35 41 -6 11 -70 198 -142 415 -73 217
-152 436 -176 487 -62 132 -107 170 -148 125z m128 -605 c44 -124 45 -143 4
-151 -81 -16 -79 -19 -79 103 0 110 12 173 30 155 5 -5 25 -53 45 -107z"/>
<path d="M5243 4761 c-41 -25 -89 -124 -104 -216 -32 -188 29 -436 137 -554
19 -22 63 -58 98 -80 35 -23 68 -53 74 -67 19 -39 15 -108 -6 -127 -54 -49
-127 8 -182 142 -19 45 -40 87 -47 92 -73 62 -10 -343 66 -419 39 -38 128 -66
186 -58 136 21 214 216 185 462 -26 215 -91 328 -227 398 -26 13 -56 32 -65
43 -26 28 -43 103 -31 138 23 71 66 54 143 -59 56 -84 65 -92 84 -77 31 26 26
127 -11 249 -15 48 -19 52 -47 53 -29 0 -29 1 -8 9 28 12 28 22 -4 60 -25 29
-27 30 -45 14 -18 -16 -22 -16 -55 -1 -46 22 -102 21 -141 -2z"/>
<path d="M4475 4665 c-27 -8 -81 -15 -118 -15 -63 0 -71 -3 -99 -30 -28 -28
-30 -36 -26 -80 3 -33 13 -58 31 -80 37 -43 43 -73 82 -382 47 -363 53 -473
31 -527 -21 -54 -20 -76 4 -127 13 -27 32 -46 51 -54 36 -15 125 -8 166 14 59
30 66 103 17 179 -37 57 -82 345 -56 361 35 21 67 -46 107 -222 59 -259 97
-320 192 -309 56 6 88 39 98 99 7 39 -10 108 -26 108 -19 0 -39 51 -63 161
-28 137 -56 206 -98 245 -46 44 -51 67 -25 117 19 37 22 57 22 167 0 101 -4
138 -22 196 -24 75 -67 143 -108 170 -34 23 -100 26 -160 9z m75 -237 c23 -53
43 -191 34 -244 -7 -46 -20 -64 -46 -64 -10 0 -21 6 -23 13 -9 25 -36 318 -30
327 15 25 47 9 65 -32z"/>
<path d="M3812 4585 c-30 -38 -35 -92 -22 -231 10 -98 10 -170 1 -327 -26
-448 -37 -541 -71 -584 -24 -30 -25 -71 -6 -118 17 -40 44 -50 117 -43 71 7
94 32 94 103 0 48 -4 58 -28 78 -20 16 -29 34 -32 67 -7 56 1 69 51 80 87 21
129 9 147 -42 4 -11 13 -15 29 -12 17 3 19 2 6 -3 -26 -12 -58 -81 -58 -125 0
-98 56 -125 201 -98 40 7 61 18 83 41 25 29 28 37 24 85 -4 43 -10 58 -35 81
-25 24 -50 89 -172 453 -78 234 -158 457 -177 495 -60 120 -110 153 -152 100z
m116 -182 c-10 -2 -26 -2 -35 0 -10 3 -2 5 17 5 19 0 27 -2 18 -5z m27 -435
c20 -61 33 -114 28 -119 -4 -4 -30 -9 -58 -11 l-50 -3 1 116 c1 190 20 194 79
17z"/>
<path d="M3251 4519 c-46 -28 -65 -52 -102 -127 -115 -236 -83 -695 67 -971
49 -89 79 -126 132 -161 77 -51 153 -37 209 37 15 21 38 47 51 58 51 46 57
304 7 345 -11 9 -18 1 -35 -37 -31 -71 -56 -93 -103 -93 -32 0 -46 6 -72 35
-72 76 -145 331 -145 508 0 109 19 160 61 165 51 6 96 -54 159 -211 45 -115
96 -108 114 16 11 80 -38 311 -79 374 -15 22 -53 34 -40 13 3 -5 0 -10 -9 -10
-8 0 -22 -3 -30 -6 -12 -5 -15 -2 -10 10 4 11 -8 24 -42 46 -56 35 -87 37
-133 9z m289 -159 c0 -5 -4 -10 -10 -10 -5 0 -10 5 -10 10 0 6 5 10 10 10 6 0
10 -4 10 -10z m37 -916 c-3 -3 -12 -4 -19 -1 -8 3 -5 6 6 6 11 1 17 -2 13 -5z"/>
<path d="M2450 4422 c-140 -12 -253 -32 -272 -49 -30 -27 -22 -122 14 -158 15
-15 31 -48 38 -76 11 -43 15 -49 34 -44 19 5 19 4 -2 -7 -20 -10 -22 -17 -17
-52 26 -191 74 -685 69 -711 -3 -19 -12 -39 -20 -46 -21 -17 -18 -98 6 -136
23 -38 34 -39 130 -18 36 8 95 14 132 15 78 0 112 11 151 48 75 71 110 201
110 412 0 248 -42 476 -117 636 -34 72 -92 145 -130 166 -28 15 -83 24 -126
20z m47 -224 c29 -32 47 -72 72 -154 56 -190 85 -584 49 -666 -20 -45 -59 -68
-83 -48 -8 7 -19 29 -24 49 -16 60 -104 808 -98 825 9 24 60 20 84 -6z"/>
<path d="M1983 4369 c-22 -14 -76 -25 -190 -39 -135 -17 -161 -23 -175 -41
-32 -38 -20 -106 25 -151 28 -28 39 -71 68 -272 54 -380 71 -636 44 -672 -20
-27 -19 -97 3 -124 l18 -22 177 22 c98 11 197 20 219 18 38 -3 42 -1 51 27 5
17 10 98 11 180 1 124 -2 158 -17 198 -19 48 -41 61 -51 29 -3 -10 -10 -52
-16 -95 -15 -123 -37 -152 -125 -163 -44 -7 -45 -6 -60 29 -16 38 -45 225 -45
288 0 20 7 42 15 49 25 21 52 -14 69 -87 17 -74 29 -94 49 -74 28 28 4 349
-38 488 -29 98 -61 80 -57 -33 3 -84 -8 -114 -42 -114 -31 0 -33 8 -52 164
-19 159 -14 181 43 191 70 11 96 -8 146 -107 27 -54 49 -55 61 -5 19 76 -48
339 -86 336 -7 0 -27 -9 -45 -20z m167 -1099 c12 -8 11 -10 -7 -10 -12 0 -25
5 -28 10 -8 13 15 13 35 0z m-267 -197 c-7 -2 -19 -2 -25 0 -7 3 -2 5 12 5 14
0 19 -2 13 -5z"/>
<path d="M1290 4289 c-155 -62 -192 -417 -70 -676 33 -72 103 -151 165 -188
78 -45 111 -113 85 -175 -16 -40 -52 -49 -97 -24 -29 15 -44 38 -89 131 -33
67 -60 113 -69 113 -35 0 -31 -87 10 -253 35 -138 54 -171 117 -203 101 -51
202 -30 261 53 88 124 89 434 3 608 -40 82 -78 121 -161 167 -33 19 -70 49
-82 67 -40 59 -26 161 21 161 24 0 65 -40 100 -98 68 -113 97 -117 104 -14 7
93 -50 274 -100 319 -19 17 -20 17 -34 -1 -13 -18 -15 -18 -63 3 -55 23 -65
24 -101 10z m205 -119 c-27 -4 -54 -3 -59 1 -6 5 15 8 50 8 l59 -2 -50 -7z"/>
<path d="M916 4240 c-83 -26 -98 -119 -31 -190 13 -14 28 -37 34 -52 5 -14 26
-160 47 -325 32 -256 35 -307 26 -361 -12 -74 -32 -109 -68 -118 -81 -20 -136
85 -168 317 -50 363 -56 470 -31 503 19 26 19 99 0 136 -21 40 -43 50 -115 50
-67 0 -132 -26 -150 -59 -20 -38 -11 -96 24 -162 32 -61 35 -76 65 -334 37
-310 53 -402 88 -500 57 -156 134 -228 243 -228 94 0 158 51 201 160 35 89 32
302 -9 623 -36 280 -39 345 -16 379 22 31 14 115 -13 143 -23 22 -85 31 -127
18z"/>
</g>
</svg>
