<?xml version="1.0" standalone="no"?>
<!DOCTYPE svg PUBLIC "-//W3C//DTD SVG 20010904//EN"
 "http://www.w3.org/TR/2001/REC-SVG-20010904/DTD/svg10.dtd">
<svg version="1.0" xmlns="http://www.w3.org/2000/svg"
 width="275.000000pt" height="183.000000pt" viewBox="0 0 275.000000 183.000000"
 preserveAspectRatio="xMidYMid meet">

<g transform="translate(0.000000,183.000000) scale(0.100000,-0.100000)"
fill="#000000" stroke="none">
<path d="M138 1793 c7 -3 16 -2 19 1 4 3 -2 6 -13 5 -11 0 -14 -3 -6 -6z"/>
<path d="M2046 1775 c15 -13 31 -22 33 -19 6 6 -39 43 -53 44 -5 0 4 -11 20
-25z"/>
<path d="M150 1780 c-21 -7 -22 -8 -5 -9 36 -2 65 -30 66 -64 l2 -32 6 35 c6
27 3 40 -13 58 -11 12 -22 22 -25 21 -3 -1 -17 -5 -31 -9z m56 -22 l19 -23
-25 20 c-14 11 -27 21 -29 22 -2 2 0 3 6 3 5 0 18 -10 29 -22z"/>
<path d="M1200 1773 c-14 -9 -37 -27 -51 -40 -23 -21 -30 -23 -49 -13 l-22 12
18 -31 c10 -17 21 -31 25 -31 4 0 22 19 41 43 18 23 42 50 53 59 26 22 17 23
-15 1z"/>
<path d="M1700 1763 c-50 -42 -32 -103 31 -103 34 0 79 39 79 68 0 22 -26 47
-58 55 -15 3 -32 -3 -52 -20z m84 -9 c21 -20 20 -26 -5 -58 -32 -41 -99 -32
-99 14 0 50 69 80 104 44z"/>
<path d="M1745 1739 c-10 -15 3 -25 16 -12 7 7 7 13 1 17 -6 3 -14 1 -17 -5z"/>
<path d="M1710 1729 c0 -5 5 -7 10 -4 6 3 10 8 10 11 0 2 -4 4 -10 4 -5 0 -10
-5 -10 -11z"/>
<path d="M1707 1698 c2 -5 13 -8 23 -8 10 0 21 3 23 8 3 4 -8 7 -23 7 -15 0
-26 -3 -23 -7z"/>
<path d="M71 1766 c-10 -11 -9 -14 1 -12 14 2 23 15 15 22 -2 2 -10 -2 -16
-10z"/>
<path d="M842 1743 c1 -37 1 -37 5 -6 4 29 7 32 46 36 l42 4 -47 1 -48 2 2
-37z"/>
<path d="M1542 1769 c-47 -17 -58 -92 -17 -111 33 -15 71 -2 98 34 19 25 19
29 4 51 -17 27 -53 38 -85 26z m72 -25 c14 -14 14 -18 1 -44 -27 -51 -96 -51
-103 -1 -8 49 66 82 102 45z"/>
<path d="M1535 1730 c-3 -5 -1 -10 4 -10 6 0 11 5 11 10 0 6 -2 10 -4 10 -3 0
-8 -4 -11 -10z"/>
<path d="M1575 1730 c-3 -5 -1 -10 4 -10 6 0 11 5 11 10 0 6 -2 10 -4 10 -3 0
-8 -4 -11 -10z"/>
<path d="M1536 1691 c-3 -4 8 -8 24 -7 17 1 30 4 30 9 0 10 -48 9 -54 -2z"/>
<path d="M2525 1770 c-3 -6 1 -7 9 -4 18 7 21 14 7 14 -6 0 -13 -4 -16 -10z"/>
<path d="M710 1735 c0 -19 5 -35 10 -35 6 0 10 6 10 13 0 6 3 22 6 35 5 16 2
22 -10 22 -12 0 -16 -9 -16 -35z"/>
<path d="M1050 1749 c-16 -29 -9 -29 17 -2 16 16 18 23 8 23 -8 0 -19 -9 -25
-21z"/>
<path d="M1996 1762 c-3 -5 4 -16 15 -25 10 -9 19 -12 19 -7 0 6 -7 13 -16 17
-13 5 -13 7 -2 14 9 6 9 9 1 9 -6 0 -14 -4 -17 -8z"/>
<path d="M1883 1745 c-3 -9 -3 -18 -1 -21 3 -3 8 4 11 16 6 23 -1 27 -10 5z"/>
<path d="M1930 1749 c0 -5 -4 -7 -10 -4 -5 3 -10 1 -10 -4 0 -15 27 -14 34 2
5 10 7 10 12 0 3 -7 12 -13 20 -13 10 0 8 -7 -9 -22 -13 -13 -22 -29 -20 -35
3 -7 0 -13 -6 -13 -6 0 -11 6 -11 14 0 7 -9 16 -20 19 -11 3 -20 1 -20 -4 0
-5 6 -9 14 -9 8 0 16 -7 20 -15 9 -23 25 -18 37 12 13 36 32 47 41 25 6 -16 7
-16 7 0 1 9 -12 26 -28 37 -32 23 -51 27 -51 10z"/>
<path d="M2090 1750 c0 -5 5 -10 11 -10 5 0 7 5 4 10 -3 6 -8 10 -11 10 -2 0
-4 -4 -4 -10z"/>
<path d="M2282 1735 c-19 -15 -33 -21 -37 -15 -9 15 -20 12 -46 -11 l-24 -20
25 15 c16 9 30 12 39 6 9 -5 24 -1 43 13 25 19 31 20 51 8 22 -14 22 -14 3 8
-11 11 -20 21 -22 21 -1 0 -16 -11 -32 -25z"/>
<path d="M2636 1747 c3 -10 9 -15 12 -12 3 3 0 11 -7 18 -10 9 -11 8 -5 -6z"/>
<path d="M337 1736 c-8 -20 4 -28 20 -14 19 15 29 2 13 -17 -7 -9 -10 -19 -6
-23 10 -9 36 27 36 50 0 22 -55 26 -63 4z"/>
<path d="M1385 1740 c-3 -5 -1 -10 4 -10 6 0 11 5 11 10 0 6 -2 10 -4 10 -3 0
-8 -4 -11 -10z"/>
<path d="M2490 1731 c-15 -30 -13 -51 6 -44 11 4 12 8 4 13 -9 6 -9 13 -1 29
7 11 9 21 7 21 -3 0 -10 -9 -16 -19z"/>
<path d="M157 1717 c-24 -18 -29 -19 -37 -7 -5 8 -10 11 -10 5 0 -5 5 -17 10
-25 8 -13 15 -10 42 18 37 37 35 41 -5 9z"/>
<path d="M511 1724 c0 -11 3 -14 6 -6 3 7 2 16 -1 19 -3 4 -6 -2 -5 -13z"/>
<path d="M620 1730 c0 -12 17 -12 45 0 17 7 15 9 -12 9 -18 1 -33 -3 -33 -9z"/>
<path d="M1300 1731 c0 -5 -11 -12 -24 -15 -33 -8 -24 -46 10 -46 13 0 24 -5
24 -11 0 -7 9 0 20 14 25 32 25 31 -5 51 -14 9 -25 12 -25 7z"/>
<path d="M442 1714 c-11 -12 -10 -17 3 -30 15 -15 17 -15 29 2 11 15 11 20 0
31 -15 16 -16 16 -32 -3z"/>
<path d="M2070 1715 c0 -9 -10 -16 -27 -16 -26 -2 -26 -2 -5 -6 16 -3 31 3 43
16 16 17 17 21 4 21 -8 0 -15 -7 -15 -15z"/>
<path d="M42 1690 c0 -19 2 -27 5 -17 2 9 2 25 0 35 -3 9 -5 1 -5 -18z"/>
<path d="M60 1705 c0 -8 4 -15 10 -15 5 0 7 7 4 15 -4 8 -8 15 -10 15 -2 0 -4
-7 -4 -15z"/>
<path d="M230 1698 c0 -28 -15 -53 -31 -53 -7 0 -13 -9 -15 -20 -2 -16 3 -14
27 13 24 27 41 82 24 82 -3 0 -5 -10 -5 -22z"/>
<path d="M1365 1709 c-4 -6 -5 -12 -2 -15 2 -3 7 2 10 11 7 17 1 20 -8 4z"/>
<path d="M2648 1709 c-3 -8 7 -26 23 -40 16 -15 29 -23 29 -19 0 4 -7 14 -16
21 -9 7 -19 22 -23 33 -6 14 -9 16 -13 5z"/>
<path d="M866 1692 c-3 -9 -8 -22 -11 -27 -3 -7 9 -12 30 -13 19 -2 35 2 35 8
0 5 -12 10 -26 10 -22 0 -24 3 -15 14 7 8 8 17 3 20 -6 3 -12 -2 -16 -12z"/>
<path d="M536 1675 c19 -29 44 -33 43 -7 0 10 -3 12 -6 5 -2 -7 -9 -13 -14
-13 -6 0 -8 4 -5 8 2 4 -4 14 -15 20 -19 12 -19 12 -3 -13z"/>
<path d="M610 1690 c0 -13 30 -13 50 0 11 7 7 10 -17 10 -18 0 -33 -4 -33 -10z"/>
<path d="M1170 1690 c0 -7 -8 -22 -17 -32 -15 -17 -15 -18 0 -13 17 7 33 42
23 52 -3 4 -6 0 -6 -7z"/>
<path d="M2554 1691 c3 -4 -4 -17 -14 -30 -18 -25 -14 -67 10 -96 8 -10 7 -14
-2 -17 -7 -3 2 -5 20 -5 28 0 30 2 15 10 -23 12 -43 37 -43 54 0 17 67 18 73
1 4 -8 6 -7 6 3 1 9 8 22 16 29 8 7 15 17 15 23 0 6 -6 2 -14 -8 -14 -19 -15
-19 -35 5 -11 14 -20 20 -21 15 0 -6 5 -16 12 -23 7 -7 10 -12 8 -13 -3 0 -15
-2 -27 -5 -13 -2 -23 1 -23 7 0 5 5 7 12 3 8 -5 9 -2 5 9 -4 10 1 22 14 30 19
14 19 15 -5 15 -14 0 -24 -3 -22 -7z"/>
<path d="M710 1675 c0 -8 5 -15 10 -15 6 0 10 7 10 15 0 8 -4 15 -10 15 -5 0
-10 -7 -10 -15z"/>
<path d="M1040 1681 c0 -10 39 -46 43 -40 2 2 -7 14 -20 26 -13 12 -23 19 -23
14z"/>
<path d="M1380 1684 c0 -1 6 -7 14 -13 10 -9 15 -8 19 3 4 10 0 14 -14 13 -10
-1 -19 -2 -19 -3z"/>
<path d="M355 1659 c-10 -15 3 -25 16 -12 7 7 7 13 1 17 -6 3 -14 1 -17 -5z"/>
<path d="M817 1654 c-16 -16 10 -24 80 -24 42 0 73 3 70 6 -4 4 -36 6 -73 5
-43 -1 -63 2 -59 9 7 11 -8 14 -18 4z"/>
<path d="M1664 1651 c8 -13 -36 -25 -69 -19 -14 3 -22 1 -19 -4 6 -9 49 -7 97
4 22 5 23 22 1 26 -10 3 -14 0 -10 -7z"/>
<path d="M67 1628 c16 -15 25 -18 39 -10 16 9 15 10 -7 18 -46 15 -53 13 -32
-8z m28 -6 c-3 -3 -11 0 -18 7 -9 10 -8 11 6 5 10 -3 15 -9 12 -12z"/>
<path d="M2188 1643 c6 -2 18 -2 25 0 6 3 1 5 -13 5 -14 0 -19 -2 -12 -5z"/>
<path d="M2258 1643 c18 -2 45 -2 60 0 15 2 0 4 -33 4 -33 0 -45 -2 -27 -4z"/>
<path d="M1108 1633 c7 -3 16 -2 19 1 4 3 -2 6 -13 5 -11 0 -14 -3 -6 -6z"/>
<path d="M2442 1620 c0 -14 2 -19 5 -12 2 6 2 18 0 25 -3 6 -5 1 -5 -13z"/>
<path d="M2080 1620 c0 -5 -7 -10 -15 -10 -8 0 -15 -9 -15 -20 0 -13 -5 -18
-15 -14 -11 5 -15 -1 -15 -25 0 -47 26 -40 34 9 3 22 11 40 17 40 6 0 17 7 25
15 14 13 14 15 0 15 -9 0 -16 -4 -16 -10z m-43 -82 c-3 -8 -6 -5 -6 6 -1 11 2
17 5 13 3 -3 4 -12 1 -19z"/>
<path d="M128 1603 c6 -2 18 -2 25 0 6 3 1 5 -13 5 -14 0 -19 -2 -12 -5z"/>
<path d="M2676 1572 l-19 -27 24 22 c12 12 21 24 18 27 -2 2 -13 -8 -23 -22z"/>
<path d="M415 1550 l-50 -7 48 -1 c49 -2 56 -8 35 -32 -11 -12 -10 -12 4 -1 9
7 16 21 15 32 -1 10 -1 18 -2 17 0 0 -22 -4 -50 -8z"/>
<path d="M2334 1546 c-6 -6 -10 -21 -9 -32 1 -11 -4 -21 -11 -21 -7 0 -10 10
-8 23 2 13 -2 24 -11 28 -18 6 -19 1 -5 -24 8 -15 6 -21 -7 -29 -15 -9 -13
-10 14 -11 17 0 35 5 38 10 3 6 16 10 28 11 21 0 21 1 -3 10 -23 10 -24 11 -7
24 13 9 14 14 5 18 -7 2 -18 -1 -24 -7z"/>
<path d="M2488 1548 c5 -5 16 -8 23 -6 8 3 3 7 -10 11 -17 4 -21 3 -13 -5z"/>
<path d="M920 1519 c-17 -31 -4 -66 35 -92 38 -24 53 -53 37 -69 -16 -16 -42
-2 -42 22 0 13 -7 20 -20 20 -28 0 -27 -44 2 -64 25 -18 73 -22 63 -6 -3 5 0
7 8 4 8 -3 18 6 25 21 17 36 -3 77 -43 90 -22 7 -31 17 -33 38 -3 21 1 27 16
27 11 0 22 -7 26 -15 7 -19 36 -20 36 -1 0 45 -89 65 -110 25z"/>
<path d="M1097 1533 c-4 -3 -7 -14 -7 -24 0 -12 6 -16 20 -12 14 4 20 0 20
-11 0 -9 4 -16 8 -16 5 0 7 -13 4 -30 -2 -16 -10 -30 -17 -30 -17 0 -25 33
-13 54 12 21 6 29 -14 21 -9 -4 -20 -31 -27 -63 -7 -31 -15 -67 -18 -79 -4
-18 -1 -23 15 -23 14 0 21 9 26 30 4 24 11 30 30 30 19 0 26 -7 31 -30 5 -21
12 -30 27 -30 16 0 19 5 16 23 -42 202 -41 197 -68 197 -15 0 -30 -3 -33 -7z"/>
<path d="M1221 1430 l1 -110 54 0 c47 0 54 2 54 20 0 17 -7 20 -40 20 l-40 0
0 90 c0 74 -3 90 -15 90 -13 0 -15 -17 -14 -110z"/>
<path d="M1340 1516 c0 -14 4 -36 10 -50 6 -17 6 -26 0 -26 -6 0 -10 -27 -10
-60 l0 -60 60 0 c53 0 60 2 60 19 0 16 -6 19 -37 18 -36 -2 -38 0 -41 31 -3
31 -2 32 33 32 29 0 36 3 33 17 -2 12 -13 17 -33 18 -25 0 -31 4 -33 28 -3 26
-1 27 37 27 30 0 41 4 41 15 0 12 -13 15 -60 15 -57 0 -60 -1 -60 -24z"/>
<path d="M1486 1517 c-22 -32 -10 -62 36 -92 29 -19 38 -32 36 -48 -4 -30 -42
-30 -46 1 -4 29 -42 31 -42 2 0 -28 35 -60 65 -60 28 0 65 35 65 62 0 20 -26
50 -74 84 -27 20 -28 21 -10 38 17 18 18 18 35 -3 22 -26 39 -27 39 -1 0 42
-80 55 -104 17z"/>
<path d="M2071 1524 c0 -11 3 -14 6 -6 3 7 2 16 -1 19 -3 4 -6 -2 -5 -13z"/>
<path d="M160 1515 c0 -8 4 -15 10 -15 5 0 7 7 4 15 -4 8 -8 15 -10 15 -2 0
-4 -7 -4 -15z"/>
<path d="M2390 1520 c0 -5 5 -10 11 -10 5 0 7 5 4 10 -3 6 -8 10 -11 10 -2 0
-4 -4 -4 -10z"/>
<path d="M206 1504 c-7 -18 -8 -90 -2 -83 6 6 17 99 12 99 -2 0 -7 -7 -10 -16z"/>
<path d="M72 1465 c1 -36 2 -41 5 -17 3 21 10 32 21 33 14 0 14 2 2 6 -8 3
-18 11 -22 17 -4 6 -7 -11 -6 -39z"/>
<path d="M121 1443 c-1 -37 -20 -45 -22 -10 -1 18 -2 19 -6 3 -3 -10 0 -23 6
-29 17 -17 33 6 28 39 -4 29 -4 28 -6 -3z"/>
<path d="M144 1458 c-4 -6 -3 -8 4 -4 6 4 12 -5 15 -21 4 -26 4 -26 6 5 1 32
-11 42 -25 20z"/>
<path d="M2624 1446 c-18 -18 -19 -24 -9 -44 9 -17 14 -20 18 -10 4 10 6 10 6
0 1 -8 6 -10 14 -6 6 4 8 3 4 -1 -9 -10 -33 -17 -61 -16 -24 0 -7 -19 20 -23
37 -6 72 48 39 60 -8 4 -15 14 -14 23 0 10 2 11 6 4 3 -10 8 -9 20 3 12 11 13
18 4 27 -8 8 -11 7 -11 -3 0 -10 -3 -11 -8 -4 -5 7 -14 4 -28 -10z"/>
<path d="M2100 1441 c-14 -28 -13 -53 6 -79 15 -21 62 -54 50 -34 -3 5 2 16
11 23 15 12 16 12 10 -4 -4 -11 -3 -16 3 -12 6 3 7 17 4 29 -4 16 0 25 11 30
9 3 14 10 11 14 -6 10 24 9 42 -2 18 -11 14 5 -7 33 -15 20 -19 21 -24 7 -8
-20 -31 -21 -47 -1 -18 21 -57 19 -70 -4z m22 -3 c-7 -7 -11 -23 -11 -37 l2
-26 4 25 c8 41 40 69 40 35 0 -8 -4 -15 -9 -15 -5 0 -8 -10 -6 -22 2 -13 9
-22 16 -20 17 3 15 -13 -4 -29 -14 -11 -19 -10 -35 10 -26 32 -23 91 4 91 7 0
7 -4 -1 -12z"/>
<path d="M2127 1359 c7 -7 15 -10 18 -7 3 3 -2 9 -12 12 -14 6 -15 5 -6 -5z"/>
<path d="M282 1368 l-2 -68 53 2 52 2 -47 3 -47 4 -4 62 -3 62 -2 -67z"/>
<path d="M2384 1388 c-19 -23 -19 -23 1 -6 11 9 31 18 45 21 l25 4 -26 2 c-16
0 -33 -8 -45 -21z"/>
<path d="M2466 1387 c3 -10 9 -15 12 -12 3 3 0 11 -7 18 -10 9 -11 8 -5 -6z"/>
<path d="M93 1383 c9 -2 25 -2 35 0 9 3 1 5 -18 5 -19 0 -27 -2 -17 -5z"/>
<path d="M170 1380 l-25 -8 27 -1 c15 -1 30 4 33 9 7 11 0 11 -35 0z"/>
<path d="M455 1371 c-3 -5 -2 -12 3 -15 5 -3 9 1 9 9 0 17 -3 19 -12 6z"/>
<path d="M2372 1345 c10 -29 55 -95 68 -100 12 -5 13 -4 3 6 -17 17 -16 29 2
29 8 0 16 -8 16 -17 1 -10 5 4 10 32 9 54 5 74 -6 27 -10 -46 -40 -48 -71 -4
-14 21 -24 33 -22 27z"/>
<path d="M418 1303 c12 -2 32 -2 45 0 12 2 2 4 -23 4 -25 0 -35 -2 -22 -4z"/>
<path d="M680 1155 c0 -110 1 -115 21 -115 18 0 20 5 18 48 l-3 47 37 3 c23 2
37 8 37 17 0 21 -15 26 -43 16 -29 -11 -36 -2 -29 36 3 19 11 23 38 23 26 0
34 4 34 18 0 15 -10 18 -55 20 l-55 2 0 -115z"/>
<path d="M855 1263 c-42 -11 -60 -72 -27 -93 16 -11 16 -11 0 -6 -15 5 -18 -1
-18 -39 0 -75 58 -109 110 -67 20 16 22 27 22 97 -1 50 -6 83 -14 91 -17 15
-48 23 -73 17z m45 -42 c13 -25 13 -107 0 -132 -6 -11 -20 -18 -33 -17 -21 2
-22 6 -21 74 1 39 4 76 8 83 11 17 34 13 46 -8z"/>
<path d="M960 1155 c0 -108 1 -115 20 -115 17 0 20 7 20 51 0 49 1 50 28 47
25 -3 27 -7 30 -50 3 -42 6 -48 25 -48 20 0 22 4 18 51 -2 31 -8 52 -17 56
-11 4 -10 9 3 29 15 23 14 24 -3 18 -18 -6 -18 -6 0 8 40 31 -7 68 -85 68
l-39 0 0 -115z m93 64 c15 -24 1 -49 -28 -49 -22 0 -25 4 -25 36 0 31 3 35 21
32 12 -2 27 -10 32 -19z"/>
<path d="M1121 1155 l0 -115 54 0 c47 0 55 3 55 18 0 14 -8 19 -31 20 -38 1
-44 6 -44 41 0 24 3 26 33 23 27 -4 32 -1 32 16 0 20 -14 23 -38 9 -12 -8 -19
1 -24 38 -2 17 3 21 35 23 23 2 37 8 37 17 0 17 -22 25 -70 25 l-38 0 -1 -115z"/>
<path d="M1268 1253 c-15 -17 -24 -87 -20 -155 3 -37 27 -58 67 -58 28 0 37 6
50 30 20 39 19 50 -5 50 -13 0 -20 -7 -20 -20 0 -24 -35 -46 -46 -28 -6 9 -10
47 -14 131 0 5 -5 5 -12 1 -7 -4 -8 -3 -4 5 4 6 11 9 16 6 4 -3 10 2 14 10 8
22 37 18 43 -5 6 -22 43 -28 43 -7 0 7 -7 23 -16 35 -19 27 -74 30 -96 5z"/>
<path d="M1435 1248 c-26 -114 -45 -200 -45 -203 0 -3 8 -5 19 -5 13 0 20 9
25 30 4 24 11 30 31 30 20 0 27 -6 32 -30 4 -21 11 -30 24 -30 24 0 23 3 -4
125 -21 95 -24 100 -49 103 -22 3 -28 -2 -33 -20z m35 -43 c0 -8 4 -15 8 -15
5 0 7 -13 4 -30 -2 -17 -10 -30 -19 -30 -10 0 -13 11 -11 45 2 25 6 45 11 45
4 0 7 -7 7 -15z"/>
<path d="M1582 1254 c-36 -25 -29 -67 19 -104 28 -23 39 -39 37 -54 -4 -30
-42 -28 -46 2 -2 14 -10 22 -22 22 -12 0 -17 -6 -15 -17 2 -10 4 -22 4 -26 1
-5 5 -5 11 -2 5 3 7 0 4 -9 -7 -18 27 -30 58 -20 57 18 65 68 17 108 -17 14
-36 23 -41 20 -7 -4 -8 -2 -4 4 3 6 -1 15 -10 20 -14 8 -14 10 1 25 22 22 32
21 40 -2 8 -26 44 -24 37 1 -5 20 -39 48 -57 48 -6 0 -21 -7 -33 -16z"/>
<path d="M1699 1267 c-9 -26 -5 -37 14 -37 23 0 62 -20 40 -20 -8 0 -12 -27
-12 -85 -1 -78 1 -85 19 -85 18 0 20 7 20 69 0 46 -4 71 -12 74 -10 4 -10 6 0
6 6 1 12 10 12 21 0 15 7 20 25 20 17 0 25 5 25 18 0 16 -9 19 -65 20 -36 1
-65 0 -66 -1z"/>
<path d="M2038 1253 c6 -2 18 -2 25 0 6 3 1 5 -13 5 -14 0 -19 -2 -12 -5z"/>
<path d="M2132 1230 c0 -19 2 -27 5 -17 2 9 2 25 0 35 -3 9 -5 1 -5 -18z"/>
<path d="M75 1219 c-4 -6 -13 -8 -21 -5 -8 3 -14 1 -14 -4 0 -15 30 -12 46 5
9 8 11 15 5 15 -5 0 -13 -5 -16 -11z"/>
<path d="M133 1199 c-2 -23 3 -25 10 -4 4 8 3 16 -1 19 -4 3 -9 -4 -9 -15z"/>
<path d="M185 1210 c-16 -7 -17 -9 -3 -9 9 -1 20 4 23 9 7 11 7 11 -20 0z"/>
<path d="M2288 1199 l-38 -19 0 -88 c0 -49 5 -93 11 -99 7 -7 10 -164 9 -502
l-1 -491 166 0 165 0 0 33 c0 32 1 32 39 29 32 -3 42 1 60 23 11 15 21 33 21
39 0 6 -9 -4 -20 -22 -18 -29 -25 -33 -58 -30 l-37 3 -2 55 c-1 30 -2 288 -2
573 l-1 517 -137 0 c-118 -1 -144 -4 -175 -21z"/>
<path d="M2647 1202 c-10 -10 -17 -25 -16 -33 0 -8 4 -4 9 9 5 12 15 22 21 22
9 0 9 -3 0 -14 -6 -7 -8 -22 -4 -31 5 -14 3 -16 -8 -10 -8 5 -7 1 3 -10 17
-18 18 -18 38 0 25 22 26 53 3 71 -24 18 -27 17 -46 -4z"/>
<path d="M348 1182 c-30 -23 -33 -30 -25 -50 6 -12 13 -22 17 -22 14 0 55 39
43 40 -18 0 -16 29 2 36 16 7 21 24 6 24 -4 0 -24 -12 -43 -28z m8 -49 c-5
-11 -10 -13 -17 -6 -7 7 -7 17 3 32 10 18 14 19 16 6 2 -9 1 -23 -2 -32z"/>
<path d="M2056 1185 c-4 -13 -2 -14 14 -5 23 13 26 20 6 20 -8 0 -16 -7 -20
-15z"/>
<path d="M2150 1181 c0 -6 4 -13 10 -16 6 -3 7 1 4 9 -7 18 -14 21 -14 7z"/>
<path d="M42 1160 c0 -14 2 -19 5 -12 2 6 2 18 0 25 -3 6 -5 1 -5 -13z"/>
<path d="M428 1163 c-21 -5 -23 -19 -5 -27 8 -3 5 -11 -12 -25 l-23 -21 23 0
c32 1 69 33 69 59 0 21 -13 24 -52 14z m42 -14 c0 -6 -6 -17 -14 -24 -12 -12
-15 -12 -19 5 -3 10 -2 21 1 24 9 10 32 6 32 -5z"/>
<path d="M115 1150 c3 -5 -2 -10 -11 -10 -10 0 -15 -3 -11 -6 8 -8 47 5 47 17
0 5 -7 9 -16 9 -8 0 -12 -4 -9 -10z"/>
<path d="M163 1143 c9 -2 23 -2 30 0 6 3 -1 5 -18 5 -16 0 -22 -2 -12 -5z"/>
<path d="M2026 1134 c-9 -8 -16 -20 -16 -26 0 -6 8 0 18 12 21 26 42 20 42
-11 0 -14 -7 -19 -24 -19 -14 0 -32 -10 -40 -22 -19 -26 -20 -38 -5 -38 5 0 8
4 4 9 -7 12 22 41 41 41 21 0 54 -19 54 -30 0 -5 -19 -13 -42 -19 l-43 -11 39
5 c52 6 67 21 41 43 -12 11 -19 26 -17 41 6 37 -26 52 -52 25z"/>
<path d="M2156 1134 c-18 -18 -21 -34 -6 -34 6 0 10 5 10 10 0 6 7 6 19 -2 10
-6 17 -17 14 -25 -3 -7 2 -16 11 -19 30 -11 17 -33 -21 -37 l-38 -4 38 -1 c44
-2 62 22 32 44 -14 11 -16 16 -6 28 10 12 8 15 -11 18 -15 2 -23 9 -22 21 2
21 0 21 -20 1z"/>
<path d="M2133 1086 c12 -9 14 -16 8 -21 -6 -3 -11 -14 -10 -23 0 -14 2 -14 6
-2 4 8 13 20 22 27 19 13 15 18 -19 27 -23 7 -24 6 -7 -8z"/>
<path d="M2720 1005 c-8 -9 -8 -15 -2 -15 12 0 26 19 19 26 -2 2 -10 -2 -17
-11z"/>
<path d="M427 996 c-3 -8 0 -17 7 -19 10 -4 12 1 9 14 -6 23 -9 24 -16 5z"/>
<path d="M278 965 c-6 -14 -19 -25 -30 -25 -13 0 -18 -8 -18 -31 0 -63 40 -89
86 -54 10 8 27 15 37 15 26 0 22 43 -5 55 -14 6 -24 21 -26 38 -4 34 -29 35
-44 2z m25 -65 l-22 -17 22 -10 c18 -8 16 -10 -16 -11 -22 -1 -35 3 -32 8 3 6
2 10 -4 10 -5 0 -8 8 -6 18 2 9 4 20 4 24 1 4 10 5 21 3 13 -2 20 2 20 11 0
13 3 13 17 -2 16 -16 16 -18 -4 -34z m57 0 c0 -5 -3 -10 -7 -11 -5 0 -19 -2
-32 -5 -20 -4 -22 -2 -11 11 14 17 50 20 50 5z"/>
<path d="M1788 983 c6 -2 18 -2 25 0 6 3 1 5 -13 5 -14 0 -19 -2 -12 -5z"/>
<path d="M1971 979 l-23 -9 6 -153 c3 -83 6 -302 6 -484 0 -326 0 -333 20
-333 20 0 20 7 20 495 0 272 -1 495 -2 494 -2 0 -14 -5 -27 -10z"/>
<path d="M50 970 c-13 -8 -12 -10 3 -10 9 0 17 5 17 10 0 12 -1 12 -20 0z"/>
<path d="M1830 976 c0 -2 8 -10 18 -17 15 -13 16 -12 3 4 -13 16 -21 21 -21
13z"/>
<path d="M1790 931 c0 -17 5 -33 10 -36 6 -4 10 8 10 29 0 20 -4 36 -10 36 -5
0 -10 -13 -10 -29z"/>
<path d="M62 925 c0 -16 2 -22 5 -12 2 9 2 23 0 30 -3 6 -5 -1 -5 -18z"/>
<path d="M425 930 c3 -5 8 -10 11 -10 2 0 4 5 4 10 0 6 -5 10 -11 10 -5 0 -7
-4 -4 -10z"/>
<path d="M715 908 c-99 -16 -182 -32 -184 -34 -2 -1 -1 -14 3 -28 5 -21 17
-29 66 -43 33 -10 60 -21 60 -24 0 -8 -276 -263 -290 -267 -5 -2 -10 2 -10 8
0 7 -9 42 -21 80 -14 48 -27 71 -44 80 -22 12 -32 5 -158 -96 l-136 -109 0
-67 c-1 -38 2 -68 5 -68 3 0 40 28 83 63 138 114 161 130 165 115 3 -7 14 -46
26 -86 20 -69 22 -72 43 -60 12 6 106 87 209 180 103 92 189 168 193 168 3 0
5 -24 6 -52 1 -68 10 -100 26 -90 6 4 41 69 77 145 37 76 75 156 86 178 l20
39 -22 -1 c-13 0 -104 -14 -203 -31z"/>
<path d="M96 914 c-9 -22 -8 -24 9 -18 8 4 15 12 15 20 0 19 -16 18 -24 -2z"/>
<path d="M1085 880 c-10 -11 -24 -20 -32 -20 -7 0 -13 -5 -13 -11 0 -5 -5 -7
-11 -4 -6 4 -8 14 -5 22 3 8 1 11 -4 8 -13 -8 -13 -35 1 -35 5 0 7 -5 3 -11
-3 -6 5 -3 20 6 15 10 26 13 26 6 0 -6 5 -11 11 -11 8 0 9 4 0 13 -8 11 -5 16
14 25 14 6 25 16 25 22 0 16 -15 12 -35 -10z"/>
<path d="M1210 885 c-7 -8 -17 -12 -23 -8 -6 3 -7 1 -3 -5 4 -7 1 -12 -8 -12
-8 0 -14 6 -12 13 1 6 1 9 -1 4 -3 -4 -10 -4 -16 0 -7 4 -6 -1 2 -10 11 -14
11 -20 0 -34 -12 -16 -12 -17 2 -5 9 7 27 11 40 10 16 -2 24 2 24 12 0 8 6 19
13 23 14 9 16 27 3 27 -5 0 -14 -7 -21 -15z m0 -35 c0 -5 -4 -10 -10 -10 -5 0
-10 5 -10 10 0 6 5 10 10 10 6 0 10 -4 10 -10z"/>
<path d="M1335 891 c-3 -6 -14 -8 -25 -6 -11 2 -22 -1 -25 -6 -4 -5 -11 -7
-16 -3 -6 3 -5 -2 1 -13 7 -10 23 -24 37 -30 21 -10 23 -10 12 3 -6 8 -9 18
-5 21 4 4 12 1 17 -7 9 -13 10 -12 6 2 -4 10 1 18 15 21 11 3 17 10 13 16 -8
14 -22 14 -30 2z m-21 -23 c-3 -4 -12 -8 -20 -8 -8 0 -13 4 -10 8 3 5 12 9 20
9 8 0 13 -4 10 -9z"/>
<path d="M1466 884 c-4 -9 -4 -19 -2 -21 8 -8 26 8 26 23 0 19 -16 18 -24 -2z"/>
<path d="M1519 883 c-12 -15 -12 -16 4 -10 39 15 64 -21 30 -43 -10 -6 -12
-10 -4 -8 8 2 21 13 28 25 12 18 12 23 -2 37 -21 21 -39 20 -56 -1z"/>
<path d="M1730 893 c0 -5 10 -18 23 -29 l22 -19 -20 25 c-11 14 -21 27 -22 29
-2 2 -3 0 -3 -6z"/>
<path d="M1040 878 c0 -4 4 -8 9 -8 6 0 12 4 15 8 3 5 -1 9 -9 9 -8 0 -15 -4
-15 -9z"/>
<path d="M1795 870 c4 -6 11 -8 16 -5 14 9 11 15 -7 15 -8 0 -12 -5 -9 -10z"/>
<path d="M2697 835 c-4 -8 -13 -12 -21 -9 -16 6 -30 -11 -20 -27 4 -8 9 -8 17
0 14 14 27 14 27 1 0 -5 -15 -13 -32 -18 -25 -6 -33 -14 -35 -33 -1 -15 0 -18
3 -6 6 18 31 18 27 0 -1 -5 7 -9 17 -9 10 0 16 6 13 13 -3 7 -9 11 -13 8 -5
-3 -11 -1 -14 4 -3 5 7 11 23 14 20 4 30 13 33 31 6 30 -16 56 -25 31z"/>
<path d="M1838 833 c6 -2 18 -2 25 0 6 3 1 5 -13 5 -14 0 -19 -2 -12 -5z"/>
<path d="M1280 820 c0 -6 7 -10 15 -10 8 0 15 2 15 4 0 2 -7 6 -15 10 -8 3
-15 1 -15 -4z"/>
<path d="M1508 823 c7 -3 16 -2 19 1 4 3 -2 6 -13 5 -11 0 -14 -3 -6 -6z"/>
<path d="M1778 823 c6 -2 18 -2 25 0 6 3 1 5 -13 5 -14 0 -19 -2 -12 -5z"/>
<path d="M1048 813 c7 -3 16 -2 19 1 4 3 -2 6 -13 5 -11 0 -14 -3 -6 -6z"/>
<path d="M439 795 c-15 -8 -29 -21 -33 -30 -3 -8 -12 -15 -20 -15 -10 0 -13
-6 -10 -15 4 -8 2 -15 -4 -15 -14 0 9 -48 27 -55 18 -7 81 14 81 27 0 6 -7 7
-17 3 -35 -15 -61 -17 -67 -6 -4 6 3 15 16 20 17 7 19 10 6 10 -26 1 -22 21 5
21 15 0 18 3 9 8 -18 12 22 47 43 38 11 -4 15 -2 13 6 -6 18 -20 19 -49 3z"/>
<path d="M2610 794 c0 -14 3 -14 15 -4 8 7 15 14 15 16 0 2 -7 4 -15 4 -8 0
-15 -7 -15 -16z"/>
<path d="M81 754 c-19 -13 -30 -24 -26 -24 4 0 2 -6 -4 -13 -15 -19 19 -50 45
-40 43 15 65 35 54 48 -8 9 -8 15 0 20 8 5 8 11 -1 21 -15 19 -28 17 -68 -12z
m61 -6 c-12 -12 -35 -1 -27 12 3 5 13 6 21 3 10 -4 12 -9 6 -15z m-37 -18 c3
-6 -1 -13 -9 -16 -9 -3 -13 -11 -9 -18 4 -6 0 -5 -9 2 -9 8 -14 20 -11 28 6
16 29 19 38 4z"/>
<path d="M1527 752 c-16 -14 -38 -27 -49 -27 -12 0 -22 -6 -24 -13 -1 -7 0 -8
3 -2 6 13 30 13 39 -1 3 -6 0 -16 -7 -21 -11 -8 -10 -9 4 -4 12 4 17 0 17 -14
0 -10 -8 -21 -17 -23 -13 -3 -11 -5 6 -6 22 -1 23 1 18 44 -6 41 -5 45 23 62
17 9 30 21 30 25 0 14 -14 7 -43 -20z"/>
<path d="M1650 390 c0 -253 4 -390 10 -390 6 0 10 137 10 390 0 253 -4 390
-10 390 -6 0 -10 -137 -10 -390z"/>
<path d="M1120 756 c0 -21 34 -76 44 -73 20 7 15 24 -9 35 -21 10 -24 14 -13
26 7 8 16 12 21 9 4 -2 7 1 7 6 0 6 -11 11 -25 11 -15 0 -25 -6 -25 -14z"/>
<path d="M1203 758 c-2 -5 -1 -8 4 -8 4 0 2 -4 -5 -9 -12 -7 -12 -12 -1 -30
17 -26 26 -27 34 -1 4 13 15 20 30 20 14 0 29 9 35 21 11 19 9 20 -40 17 -29
-2 -54 -6 -57 -10z"/>
<path d="M2707 764 c-9 -10 2 -24 19 -24 8 0 14 7 14 15 0 15 -21 21 -33 9z"/>
<path d="M943 739 c26 -15 3 -43 -24 -28 -10 5 -19 7 -19 5 0 -16 37 -23 54
-10 16 11 17 16 6 29 -7 8 -18 15 -24 15 -6 0 -3 -5 7 -11z"/>
<path d="M976 737 c3 -10 9 -15 12 -12 3 3 0 11 -7 18 -10 9 -11 8 -5 -6z"/>
<path d="M1560 718 c0 -9 -6 -19 -12 -21 -10 -4 -10 -6 0 -6 14 -1 28 26 18
36 -3 4 -6 -1 -6 -9z"/>
<path d="M1300 695 c-10 -12 -10 -15 4 -15 9 0 16 7 16 15 0 8 -2 15 -4 15 -2
0 -9 -7 -16 -15z"/>
<path d="M1538 673 c6 -2 18 -2 25 0 6 3 1 5 -13 5 -14 0 -19 -2 -12 -5z"/>
<path d="M1438 643 c6 -2 18 -2 25 0 6 3 1 5 -13 5 -14 0 -19 -2 -12 -5z"/>
<path d="M1538 643 c6 -2 18 -2 25 0 6 3 1 5 -13 5 -14 0 -19 -2 -12 -5z"/>
<path d="M821 622 c-12 -22 3 -42 30 -42 9 0 19 -7 23 -15 3 -8 13 -15 23 -15
16 1 16 2 -2 18 -13 11 -19 26 -17 45 3 23 0 27 -22 27 -14 0 -30 -8 -35 -18z
m44 -13 c0 -7 -8 -15 -17 -17 -18 -3 -25 18 -11 32 10 10 28 1 28 -15z"/>
<path d="M840 609 c0 -5 5 -7 10 -4 6 3 10 8 10 11 0 2 -4 4 -10 4 -5 0 -10
-5 -10 -11z"/>
<path d="M1174 575 c-15 -23 -15 -27 0 -50 9 -14 21 -25 27 -25 6 0 7 -4 4
-10 -3 -5 9 -3 26 4 39 17 59 56 29 56 -11 0 -20 -4 -20 -10 0 -5 -9 -10 -20
-10 -24 0 -26 25 -4 38 19 10 11 32 -11 32 -8 0 -22 -11 -31 -25z"/>
<path d="M1240 585 c0 -16 27 -32 37 -21 7 7 -16 36 -28 36 -5 0 -9 -7 -9 -15z"/>
<path d="M664 579 c-4 -6 1 -16 10 -21 9 -5 16 -14 16 -20 0 -6 -9 -3 -20 7
-17 15 -20 16 -20 3 0 -15 20 -28 41 -28 5 0 9 9 9 20 0 11 -5 20 -11 20 -5 0
-8 4 -4 9 3 5 1 12 -4 15 -5 4 -13 1 -17 -5z"/>
<path d="M612 573 c-18 -7 -33 -49 -25 -68 3 -9 12 -14 20 -11 8 3 11 1 8 -4
-3 -6 3 -10 15 -10 12 0 18 4 15 10 -3 6 1 7 9 4 9 -3 16 -1 16 5 0 7 -7 14
-16 18 -12 4 -14 14 -10 34 6 29 -2 34 -32 22z"/>
<path d="M2690 535 c0 -8 5 -15 10 -15 6 0 10 7 10 15 0 8 -4 15 -10 15 -5 0
-10 -7 -10 -15z"/>
<path d="M876 484 c-11 -30 -6 -44 19 -50 15 -4 32 -1 42 7 14 12 15 11 10 -6
-10 -32 9 -50 49 -46 16 1 23 35 12 55 -7 13 -17 16 -34 12 -20 -5 -26 -2 -34
19 -11 29 -54 35 -64 9z m51 -19 c0 -6 -6 -12 -14 -12 -7 0 -13 6 -13 12 0 6
6 12 13 12 8 0 14 -6 14 -12z m63 -45 c0 -19 -18 -19 -23 -1 -3 14 -1 18 9 14
8 -3 14 -9 14 -13z"/>
<path d="M429 418 c-14 -49 7 -73 40 -44 10 9 22 16 27 16 6 0 19 7 30 15 18
14 18 14 -9 15 -16 0 -26 -4 -22 -10 4 -7 -3 -7 -20 0 -25 10 -44 13 -46 8z
m36 -28 c0 -8 -9 -16 -20 -17 -11 -2 -14 0 -7 3 10 5 10 9 0 21 -10 13 -9 15
7 12 11 -3 20 -11 20 -19z"/>
<path d="M644 402 c3 -17 1 -22 -9 -18 -8 3 -17 1 -20 -3 -6 -11 40 -20 56
-11 8 6 8 10 -3 16 -8 5 -18 16 -22 24 -3 8 -4 5 -2 -8z"/>
<path d="M897 414 c-4 -4 -7 -16 -7 -26 0 -14 6 -19 23 -16 14 2 22 10 22 23
0 20 -25 32 -38 19z m23 -24 c0 -5 -4 -10 -10 -10 -5 0 -10 5 -10 10 0 6 5 10
10 10 6 0 10 -4 10 -10z"/>
<path d="M174 394 c9 -8 16 -19 16 -24 0 -4 11 -10 24 -12 17 -3 23 -1 19 8
-2 7 -11 10 -18 8 -7 -3 -18 4 -25 15 -6 12 -15 21 -21 21 -6 0 -3 -7 5 -16z"/>
<path d="M133 360 c-18 -11 -33 -23 -33 -28 0 -16 25 -32 50 -32 17 0 21 -3
12 -9 -10 -6 -9 -11 4 -22 13 -10 16 -10 10 -1 -8 14 11 45 24 37 4 -2 16 3
26 11 18 15 18 15 0 10 -13 -5 -17 -2 -12 9 3 8 2 15 -3 15 -5 0 -11 -9 -14
-20 -6 -25 -35 -26 -53 -2 -13 16 -14 16 -8 -1 5 -13 2 -16 -10 -11 -25 9 -19
24 14 35 17 6 30 15 30 20 0 12 0 12 -37 -11z"/>
<path d="M2661 354 c0 -11 3 -14 6 -6 3 7 2 16 -1 19 -3 4 -6 -2 -5 -13z"/>
<path d="M160 335 c0 -9 5 -15 11 -13 6 2 11 8 11 13 0 5 -5 11 -11 13 -6 2
-11 -4 -11 -13z"/>
<path d="M677 316 c-4 -9 -3 -26 2 -38 l8 -22 6 24 c8 29 -7 61 -16 36z"/>
<path d="M1056 314 c-10 -27 -7 -314 4 -314 6 0 10 62 10 165 0 91 -2 165 -4
165 -2 0 -7 -7 -10 -16z"/>
<path d="M554 306 c-3 -8 -1 -23 5 -33 9 -15 10 -13 11 15 0 34 -7 42 -16 18z"/>
<path d="M594 306 c-3 -8 -1 -23 5 -33 9 -15 10 -13 11 15 0 34 -7 42 -16 18z"/>
<path d="M636 312 c-3 -6 -2 -20 2 -33 l9 -23 6 25 c7 25 -6 48 -17 31z"/>
<path d="M721 290 c0 -33 1 -34 11 -12 8 17 8 26 0 34 -9 9 -12 4 -11 -22z"/>
<path d="M319 286 c-32 -15 -46 -58 -31 -90 23 -50 108 -45 126 7 20 57 -41
110 -95 83z m77 -35 c16 -32 3 -64 -30 -76 -33 -11 -57 2 -70 38 -21 59 73 94
100 38z"/>
<path d="M338 258 c9 -9 15 -9 24 0 9 9 7 12 -12 12 -19 0 -21 -3 -12 -12z"/>
<path d="M326 223 c-10 -25 17 -48 40 -34 11 6 13 11 7 11 -7 0 -13 9 -13 20
0 24 -25 27 -34 3z"/>
<path d="M2668 283 c6 -2 18 -2 25 0 6 3 1 5 -13 5 -14 0 -19 -2 -12 -5z"/>
<path d="M746 194 c-12 -12 -16 -37 -16 -105 0 -83 1 -89 21 -89 19 0 20 5 18
105 -1 58 -4 105 -5 105 -1 0 -10 -7 -18 -16z"/>
<path d="M2676 194 c-9 -23 -4 -24 17 -2 13 14 14 18 3 18 -8 0 -17 -7 -20
-16z"/>
<path d="M2707 173 c-11 -13 -25 -22 -33 -19 -8 3 -14 1 -14 -4 0 -18 32 -10
52 13 18 20 19 20 13 2 -5 -15 -3 -17 5 -8 8 7 9 17 4 26 -8 12 -12 11 -27
-10z"/>
<path d="M55 145 c2 -25 -1 -45 -6 -45 -5 0 -9 -10 -9 -22 0 -19 -2 -20 -10
-8 -8 13 -10 12 -10 -2 0 -19 11 -21 56 -12 l29 6 -9 64 c-8 49 -14 64 -27 64
-13 0 -16 -9 -14 -45z m28 -25 c4 -37 3 -50 -3 -40 -9 14 -15 109 -6 99 2 -2
6 -29 9 -59z m-19 -46 c3 -8 2 -12 -4 -9 -6 3 -10 10 -10 16 0 14 7 11 14 -7z"/>
<path d="M30 147 c0 -9 -4 -17 -10 -17 -5 0 -9 -10 -9 -22 1 -19 2 -19 6 -5 3
10 11 16 18 13 9 -3 12 2 10 16 -6 27 -15 36 -15 15z"/>
<path d="M2630 125 c0 -8 9 -10 25 -7 14 2 25 6 25 7 0 1 -11 5 -25 7 -16 3
-25 1 -25 -7z"/>
<path d="M220 120 c-9 -6 -10 -10 -3 -10 6 0 15 5 18 10 8 12 4 12 -15 0z"/>
<path d="M428 96 c-12 -9 -18 -27 -18 -55 0 -34 3 -41 20 -41 18 0 20 7 20 55
0 30 -1 55 -2 55 -2 0 -11 -7 -20 -14z"/>
</g>
</svg>
