<?xml version="1.0" standalone="no"?>
<!DOCTYPE svg PUBLIC "-//W3C//DTD SVG 20010904//EN"
 "http://www.w3.org/TR/2001/REC-SVG-20010904/DTD/svg10.dtd">
<svg version="1.0" xmlns="http://www.w3.org/2000/svg"
 width="800.000000pt" height="600.000000pt" viewBox="0 0 800.000000 600.000000"
 preserveAspectRatio="xMidYMid meet">

<g transform="translate(0.000000,600.000000) scale(0.100000,-0.100000)"
fill="#000000" stroke="none">
<path d="M852 5134 c-352 -104 -611 -408 -686 -804 -20 -105 -21 -311 -1 -423
32 -181 106 -359 202 -483 68 -88 1533 -1676 1543 -1672 4 2 378 372 831 823
753 749 829 828 878 909 61 98 111 215 142 333 30 108 38 370 15 498 -86 495
-456 845 -894 845 -126 0 -221 -20 -328 -70 -212 -98 -359 -246 -469 -469 -50
-102 -71 -162 -95 -279 -12 -61 -19 -80 -23 -62 -59 284 -133 439 -285 601
-130 138 -286 230 -451 265 -108 23 -280 18 -379 -12z m2216 -149 c264 -89
469 -324 549 -630 22 -87 26 -121 26 -260 1 -146 -2 -169 -27 -260 -16 -55
-31 -115 -33 -132 -3 -18 -9 -33 -14 -33 -5 0 -18 -19 -30 -42 -24 -48 -84
-137 -123 -183 l-25 -30 6 128 6 127 -518 -2 -519 -3 -87 -325 c-48 -179 -89
-318 -93 -310 -3 8 -32 136 -64 284 -41 190 -60 261 -64 240 -3 -16 -34 -251
-69 -522 -35 -271 -66 -482 -70 -470 -3 13 -46 321 -95 685 -49 364 -91 659
-95 655 -3 -4 -12 -36 -19 -72 -6 -36 -19 -95 -27 -133 l-15 -67 -697 2 -696
3 -3 37 -3 38 668 2 667 3 72 345 c51 247 73 337 77 315 3 -16 41 -291 83
-610 42 -319 80 -583 83 -587 4 -4 31 180 60 410 30 229 57 425 61 435 3 11
37 -125 80 -322 41 -187 77 -335 81 -330 3 6 28 93 55 195 l49 184 548 0 549
0 -6 28 c-2 15 -8 54 -11 87 -8 76 -47 232 -78 316 -73 194 -175 350 -326 499
-119 118 -209 185 -338 250 l-74 37 68 21 c92 28 111 31 238 28 89 -3 126 -8
193 -31z"/>
<path d="M6011 4536 c-7 -8 -11 -27 -9 -43 6 -50 78 -40 78 11 0 41 -45 62
-69 32z"/>
<path d="M4023 4315 l2 -205 43 0 44 0 -3 83 -4 82 88 3 87 3 0 -86 0 -85 40
0 40 0 0 205 0 205 -40 0 -40 0 0 -85 0 -85 -85 0 -85 0 0 85 0 85 -45 0 -45
0 3 -205z"/>
<path d="M5593 4315 l2 -205 105 0 c127 0 170 19 210 90 21 38 25 58 25 125 0
67 -4 86 -24 119 -37 59 -84 76 -213 76 l-108 0 3 -205z m214 120 c31 -22 46
-78 40 -149 -5 -52 -10 -65 -36 -88 -24 -22 -41 -28 -76 -28 -60 0 -66 17 -58
165 l6 115 51 0 c30 0 61 -6 73 -15z"/>
<path d="M5308 4458 c-20 -7 -28 -17 -28 -34 0 -14 -6 -24 -14 -24 -13 0 -26
-20 -26 -41 0 -5 11 -9 25 -9 l26 0 -3 -101 c-3 -95 -2 -102 21 -120 25 -21
81 -25 112 -9 11 6 19 21 19 36 0 23 -3 25 -24 20 -49 -12 -56 -1 -56 90 l0
84 40 0 c36 0 40 3 40 25 0 22 -4 25 -35 25 -33 0 -35 2 -35 35 0 38 -11 42
-62 23z"/>
<path d="M4501 4392 c-83 -45 -96 -190 -23 -255 29 -26 94 -39 143 -28 48 11
45 8 54 50 7 31 5 33 -11 26 -11 -5 -42 -10 -70 -13 -45 -3 -54 -1 -68 19 -34
49 -24 58 72 61 l87 3 -1 48 c0 38 -6 53 -26 74 -35 35 -109 42 -157 15z m108
-64 c12 -33 6 -38 -50 -38 -53 0 -61 10 -32 42 24 26 71 24 82 -4z"/>
<path d="M4790 4396 c-29 -10 -36 -18 -38 -44 -4 -36 2 -38 46 -16 18 8 44 14
59 12 23 -2 29 -9 31 -34 3 -30 2 -30 -60 -42 -70 -13 -98 -36 -98 -82 0 -36
27 -68 67 -79 26 -8 37 -5 64 15 32 23 33 23 46 4 19 -26 69 -27 83 -1 15 30
12 41 -11 41 -21 0 -21 3 -15 90 l8 90 -30 30 c-25 24 -38 30 -74 29 -24 0
-59 -6 -78 -13z m100 -181 c0 -39 -71 -64 -84 -29 -11 28 14 46 72 53 6 0 12
-10 12 -24z"/>
<path d="M6205 4401 c-27 -12 -53 -42 -56 -66 -7 -47 10 -74 64 -101 59 -30
70 -43 55 -61 -14 -17 -60 -16 -84 2 -31 24 -44 18 -44 -20 0 -29 4 -36 28
-42 84 -22 159 5 176 65 12 43 -10 75 -75 107 -61 31 -65 60 -9 59 19 0 42 -4
52 -8 12 -6 18 -1 23 24 4 17 5 34 2 36 -10 10 -112 14 -132 5z"/>
<path d="M6449 4387 c-44 -29 -63 -70 -63 -132 0 -96 53 -149 149 -149 66 0
95 16 95 54 0 28 -1 29 -29 19 -49 -17 -101 -7 -124 23 -11 14 -16 31 -13 37
4 7 41 11 92 11 l84 0 0 48 c-1 73 -42 112 -118 112 -24 0 -52 -9 -73 -23z
m109 -49 c7 -7 12 -20 12 -30 0 -15 -9 -18 -55 -18 -56 0 -62 9 -32 48 12 15
59 16 75 0z"/>
<path d="M6745 4395 c-22 -8 -41 -15 -42 -15 -7 0 -2 -36 6 -48 7 -12 14 -11
39 2 43 22 79 20 92 -5 17 -31 6 -46 -42 -54 -100 -15 -132 -51 -104 -119 8
-20 16 -36 18 -36 2 0 18 -4 35 -9 27 -8 38 -5 68 14 34 24 35 24 46 4 8 -16
19 -19 47 -17 32 3 37 7 40 31 2 19 -1 27 -12 27 -13 0 -16 15 -16 89 0 105
-3 117 -41 136 -35 19 -82 18 -134 0z m98 -180 c-7 -32 -26 -47 -55 -43 -34 5
-32 50 2 59 48 14 58 11 53 -16z"/>
<path d="M7054 4400 c-29 -11 -64 -58 -64 -84 0 -32 20 -54 75 -84 34 -19 50
-33 50 -47 0 -26 -43 -32 -84 -11 -39 21 -38 21 -43 -18 -4 -34 -3 -35 43 -46
58 -14 121 0 144 33 21 29 19 90 -2 109 -10 9 -37 25 -60 37 -30 15 -43 28
-43 42 0 18 5 21 38 17 20 -3 44 -8 53 -12 13 -6 18 0 21 24 4 26 1 33 -19 41
-30 11 -81 11 -109 -1z"/>
<path d="M7303 4391 c-61 -39 -85 -108 -64 -187 20 -75 95 -114 182 -95 49 11
47 10 55 49 6 32 6 32 -20 22 -70 -26 -146 0 -146 50 0 19 7 20 90 20 l90 0 0
45 c0 65 -38 106 -106 112 -37 3 -57 -1 -81 -16z m107 -56 c23 -28 4 -45 -50
-45 -54 0 -58 4 -34 38 18 26 65 30 84 7z"/>
<path d="M5060 4278 c0 -68 -3 -133 -6 -145 -6 -22 -3 -23 41 -23 l47 0 -7 83
c-6 73 -5 85 12 106 14 16 30 24 51 24 30 0 32 2 32 39 0 32 -3 38 -22 38 -12
0 -35 -12 -50 -27 l-28 -27 0 27 c0 24 -4 27 -35 27 l-35 0 0 -122z"/>
<path d="M6000 4255 l0 -145 40 0 40 0 0 145 0 145 -40 0 -40 0 0 -145z"/>
<path d="M5450 3610 l0 -70 -37 0 c-80 0 -141 -55 -150 -133 -14 -121 84 -206
167 -147 l29 21 11 -21 c9 -17 19 -20 48 -18 32 3 37 7 40 31 2 19 -1 27 -12
27 -14 0 -16 24 -16 190 l0 190 -40 0 -40 0 0 -70z m-2 -212 c3 -70 1 -78 -19
-88 -48 -26 -89 14 -89 88 0 56 24 84 68 80 l37 -3 3 -77z"/>
<path d="M5626 3664 c-19 -18 -20 -28 -6 -55 20 -37 80 -18 80 26 0 42 -44 59
-74 29z"/>
<path d="M6251 3666 c-7 -8 -11 -27 -9 -43 6 -50 78 -40 78 11 0 41 -45 62
-69 32z"/>
<path d="M4429 3643 c0 -5 -1 -97 -2 -205 l-2 -198 43 0 42 0 0 64 0 63 56 6
c95 10 144 61 144 152 0 95 -46 125 -190 125 -49 0 -90 -3 -91 -7z m179 -75
c7 -7 12 -31 12 -54 0 -34 -5 -47 -27 -64 -15 -12 -38 -20 -52 -18 -25 3 -26
6 -29 76 l-3 72 44 0 c23 0 48 -5 55 -12z"/>
<path d="M6058 3588 c-20 -7 -28 -17 -28 -34 0 -14 -6 -24 -14 -24 -13 0 -26
-20 -26 -41 0 -5 11 -9 25 -9 l26 0 -3 -101 c-3 -95 -2 -102 21 -120 25 -21
81 -25 112 -9 11 6 19 21 19 36 0 23 -3 25 -24 20 -49 -12 -56 -1 -56 90 l0
84 40 0 c36 0 40 3 40 25 0 22 -4 25 -35 25 -33 0 -35 2 -35 35 0 38 -11 42
-62 23z"/>
<path d="M5029 3517 c-44 -29 -63 -70 -63 -132 0 -96 53 -149 149 -149 66 0
95 16 95 54 0 28 -1 29 -29 19 -49 -17 -101 -7 -124 23 -11 14 -16 31 -13 37
4 7 41 11 92 11 l84 0 0 48 c-1 73 -42 112 -118 112 -24 0 -52 -9 -73 -23z
m109 -49 c7 -7 12 -20 12 -30 0 -15 -9 -18 -55 -18 -56 0 -62 9 -32 48 12 15
59 16 75 0z"/>
<path d="M5831 3522 c-51 -26 -73 -74 -69 -149 3 -43 10 -71 24 -90 28 -37 85
-56 138 -46 37 8 41 12 44 41 l3 32 -44 -6 c-37 -5 -48 -3 -66 15 -26 26 -29
96 -5 130 15 21 22 23 64 17 47 -6 48 -6 52 25 4 25 1 32 -19 40 -37 14 -85
11 -122 -9z"/>
<path d="M6464 3530 c-82 -33 -109 -188 -44 -258 49 -52 156 -48 204 8 39 47
46 143 14 203 -24 46 -116 71 -174 47z m97 -66 c21 -25 24 -120 5 -149 -19
-28 -56 -33 -80 -10 -30 30 -32 127 -4 163 14 17 63 15 79 -4z"/>
<path d="M6842 3520 c-39 -24 -42 -24 -42 -5 0 11 -11 15 -40 15 l-40 0 0
-145 0 -145 40 0 40 0 0 105 c0 93 2 105 19 115 11 5 29 10 40 10 34 0 43 -32
35 -135 l-7 -95 46 0 45 0 -5 128 c-6 140 -13 157 -68 167 -21 4 -40 -1 -63
-15z"/>
<path d="M4770 3408 c0 -68 -3 -133 -6 -145 -6 -22 -3 -23 41 -23 l47 0 -7 83
c-6 73 -5 85 12 106 14 16 30 24 51 24 30 0 32 2 32 39 0 32 -3 38 -22 38 -12
0 -35 -12 -50 -27 l-28 -27 0 27 c0 24 -4 27 -35 27 l-35 0 0 -122z"/>
<path d="M5620 3385 l0 -145 40 0 40 0 0 145 0 145 -40 0 -40 0 0 -145z"/>
<path d="M6240 3385 l0 -145 40 0 40 0 0 145 0 145 -40 0 -40 0 0 -145z"/>
<path d="M4820 2740 l0 -70 -37 0 c-80 0 -141 -55 -150 -133 -14 -121 84 -206
167 -147 l29 21 11 -21 c9 -17 19 -20 48 -18 32 3 37 7 40 31 2 19 -1 27 -12
27 -14 0 -16 24 -16 190 l0 190 -40 0 -40 0 0 -70z m-2 -212 c3 -70 1 -78 -19
-88 -48 -26 -89 14 -89 88 0 56 24 84 68 80 l37 -3 3 -77z"/>
<path d="M5290 2590 l0 -220 40 0 40 0 0 220 0 220 -40 0 -40 0 0 -220z"/>
<path d="M6256 2794 c-19 -18 -20 -28 -6 -55 20 -37 80 -18 80 26 0 42 -44 59
-74 29z"/>
<path d="M6411 2590 l2 -220 41 0 41 0 0 220 0 220 -43 0 -42 0 1 -220z"/>
<path d="M6740 2740 l0 -70 -35 0 c-43 0 -94 -20 -117 -46 -24 -28 -39 -97
-32 -146 14 -88 105 -137 166 -89 24 20 25 20 41 0 25 -29 75 -25 87 7 13 34
13 34 -10 34 -19 0 -20 7 -20 190 l0 190 -40 0 -40 0 0 -70z m-5 -215 c0 -78
-1 -80 -28 -89 -43 -16 -71 18 -71 87 -1 68 15 89 63 85 l36 -3 0 -80z"/>
<path d="M6921 2796 c-7 -8 -11 -27 -9 -43 6 -50 78 -40 78 11 0 41 -45 62
-69 32z"/>
<path d="M3866 2758 c-7 -32 -36 -327 -36 -360 0 -25 4 -28 34 -28 l33 0 8 98
c4 53 10 117 14 142 l6 45 44 -122 c43 -123 44 -123 76 -123 32 0 32 1 75 115
24 64 47 118 51 120 4 3 10 -48 14 -113 3 -64 7 -126 8 -137 2 -15 11 -21 40
-23 44 -4 42 -26 19 223 l-17 180 -49 0 -49 0 -41 -122 c-22 -68 -43 -123 -46
-123 -3 0 -24 55 -46 123 l-40 122 -47 3 c-41 3 -47 1 -51 -20z"/>
<path d="M5560 2575 l0 -205 93 0 c141 1 197 33 197 114 0 48 -8 65 -41 81
l-28 15 24 26 c35 38 35 106 0 138 -31 29 -64 36 -166 36 l-79 0 0 -205z m178
118 c18 -25 15 -41 -13 -69 -17 -17 -34 -24 -53 -22 -26 3 -27 6 -30 62 l-3
59 43 -7 c24 -4 49 -14 56 -23z m15 -175 c36 -42 -1 -88 -70 -88 l-43 0 0 54
c0 52 1 55 28 59 39 6 65 -2 85 -25z"/>
<path d="M7635 2669 c-16 -5 -51 -7 -77 -3 -87 11 -144 -22 -155 -90 -5 -29
-1 -44 17 -67 l22 -31 -21 -22 -21 -23 21 -27 21 -27 -22 -24 c-48 -51 4 -105
100 -105 82 0 140 42 140 101 0 37 -38 65 -97 73 -69 10 -83 16 -83 32 0 10
13 14 51 14 45 0 55 4 86 35 32 32 35 40 30 75 -5 37 -3 40 19 40 20 0 24 5
24 30 0 32 -6 34 -55 19z m-91 -55 c26 -10 37 -39 26 -68 -18 -48 -100 -29
-100 23 0 13 37 51 49 51 5 0 17 -3 25 -6z m39 -263 c8 -8 9 -16 1 -29 -8 -12
-25 -17 -60 -17 -44 0 -49 2 -52 24 -2 13 2 28 10 33 16 11 87 3 101 -11z"/>
<path d="M4390 2652 c-44 -21 -70 -72 -70 -135 0 -98 45 -151 129 -151 92 1
141 54 141 154 0 29 -7 67 -16 85 -28 60 -114 82 -184 47z m104 -58 c11 -11
16 -35 16 -79 0 -70 -14 -95 -55 -95 -13 0 -31 10 -39 22 -18 26 -22 119 -6
149 13 23 62 26 84 3z"/>
<path d="M5043 2655 c-47 -20 -73 -68 -73 -133 0 -100 47 -153 138 -155 75 -2
99 8 104 43 5 35 -1 43 -22 29 -8 -5 -36 -9 -61 -9 -49 0 -74 17 -81 55 -3 19
3 20 84 23 99 3 107 10 88 82 -19 70 -99 99 -177 65z m105 -77 c3 -27 2 -28
-47 -28 -38 0 -51 4 -51 14 0 26 31 47 64 44 25 -2 32 -8 34 -30z"/>
<path d="M7187 2645 c-36 -25 -37 -25 -37 -5 0 17 -6 20 -39 20 l-40 0 1 -145
0 -145 42 0 41 0 -3 104 -3 103 32 13 c55 23 64 9 67 -114 l3 -106 39 0 40 0
0 121 c0 66 -4 129 -10 139 -9 16 -58 40 -84 40 -6 0 -28 -11 -49 -25z"/>
<path d="M5910 2540 c0 -115 1 -122 25 -145 31 -32 82 -33 119 -4 l27 22 15
-22 c15 -21 47 -27 78 -15 22 8 21 52 -1 56 -15 3 -16 17 -14 116 l3 112 -41
0 -41 0 0 -104 0 -104 -28 -10 c-54 -19 -62 -4 -62 113 l0 105 -40 0 -40 0 0
-120z"/>
<path d="M6250 2515 l0 -145 40 0 40 0 0 145 0 145 -40 0 -40 0 0 -145z"/>
<path d="M6910 2515 l0 -145 40 0 40 0 0 145 0 145 -40 0 -40 0 0 -145z"/>
<path d="M6122 1425 c-65 -14 -115 -43 -132 -75 -6 -10 -10 -53 -10 -94 l0
-76 145 0 145 0 0 -25 0 -25 -225 0 c-261 0 -284 -6 -329 -82 -74 -128 -51
-385 40 -454 27 -21 49 -28 104 -32 l70 -5 0 79 c0 101 13 147 55 192 l33 37
209 6 c225 6 250 11 292 65 20 25 21 39 21 213 l0 187 -34 33 c-18 17 -55 39
-82 47 -71 22 -226 27 -302 9z m3 -71 c25 -10 37 -50 23 -79 -6 -14 -14 -25
-17 -25 -3 0 -16 -3 -28 -6 -27 -7 -63 27 -63 60 0 39 45 65 85 50z"/>
</g>
</svg>
