<?xml version="1.0" encoding="UTF-8"?>
<svg version="1.1" viewBox="0 0 2048 1221" width="989" height="590" xmlns="http://www.w3.org/2000/svg">
<path transform="translate(0)" d="m0 0h2048v1221h-2048z" fill="#E1E2E4"/>
<path transform="translate(158,23)" d="m0 0h1871v1088h-1872v-286h139v109l-13 12-5 14-5 20-4 5v3l-9-1-2 4-3-1v-2l6-4-2-7h-7l-6-8-5 2-3 3v2l4-1h4l3 7v3h-9l-3 2v6l3 3 1 14h5l6 15 8 30 3 6v2l7-4 5-8 5-20 5-12 10-10 2 3v94l1-101 7 1 3 7 7 31 4 11 1 3 5-3 5-8 8-29 7-12 7-9h10l2 6 8 34 5 10 4-2 4-5 4-11 6-18 8-14h17l3 9 6 21 5 9 6 1 3-10 10-29 1-1h26l2 5 5 24 3 11h2l2-5 7-10 6-24 1-1h16 2 13l4 18 4 8 4-2 7-14 3-10h36l6 11 4 1 3-3 4-9h137l138-1h87l2 1v88l1-88 2-1h221l1 1 1 85 1-86h223l1 1 1 61v-60l1-2h225 3 222l2 1v105l1-106h100l-100-1v-170l3-1h-3l-1-14-1 13-223 1-2-2-1-170-77-1-1 5-5 3-5-2-2-4-9-1h-36l-3 16h10l3 4-1 5-2 2h-9l1 2v6l-5 3-5-2-3-7-3-21-1-10 1-11h1l3 14h3l5-10 5-31 4-45 2-26 4-29 4-14 5-39 2-7 1-1h5l1 10-5 2-1 1 1 7 6 1 1 9-4 5 1 5 4 3 5 59v18l-3 2-1 4 6 6 4 24 1 7 7-3 2-5 3-21 5-3v-7l-3-2 2-30 3-35 4-28 5-16 3-41 1-11 2-12 5-16 2 2 2 15 2 29 3 43 5 88 3 30v7l3 2 5-1 2-2v-5l6-1 1-1v-8l-4-2v-7l-1-1v-8l3-19 5-81 3-2 1-5-1-4h-2l1-20 3-25 5-16 2-3 4-2v-6l-1-1v-7l4-16h3l2 10 5 79 5 82 3 25v4l4-1 5-15 5-30 5-78 2-29 3-28 5-22 7-41 2-7h2l2 10 4 53 7 114 4 32 4 2 2-6 3-7 5-40 4-62 3-39 3-22 4-18 5-49 4-19 2-2 2 16 5 71 6 99 4 33 1 3 5-1 3-4 5-38 3-44 2-35 5-43 5-18 2-29 1-26 2-19 5-21 2 1 2 13 5 82 5 115 4 49v5h4l9-45 3-46 4-75 2-39 2-20 5-21 4-14 5-28h3l2 5 5 91 4 91 4 52v8l5-1 5-20 4-28 3-53 1-16 5-85 3-21 4-21 5-36 4-20 3-7v-42l-4 10-6 28-3 25-1 1h-42l-5-1-1-34-1 35h-96l-129-1h-227v-80l-1 80h-224l-1-101v55l-1 46h-224l-1-6-1 6h-452v-108l-1 108h-226l-1-101v54l-1 47-72 1h-67v-111z" fill="#E1E2E4"/>
<path transform="translate(0)" d="m0 0h2048v1221h-2048zm155 21v113h-7l-2 2 4 1 5-1v170h-9v2h9v170h-9v2h9v170h-10l2 2h8v171l-9 1 1 2h8v169h-8l-1 2h9v116l140 1 1 9h2l1-9h224l1 9h2v-9h223l1 9h2v-9l225-1v7l2 3v-9h223l1 9h2l1-9h222l1 9h2v-9h225l1 9 2-1v-8l223-1v9l2 1 1-9 146-1v-1092z" fill="#FDFDFD"/>
<path transform="translate(1944,107)" d="m0 0 2 1-1 8-3 8-5 29-5 35-4 21-2 21-3 55-1 23-2 33-2 31-4 28-5 20-4 2-2-1-4-44-3-64-4-83-3-51-2-5h-1l-6 33-6 20-3 17-2 27-3 62-4 73-1 11-9 45-3 1-2-1-2-16-3-38-5-115-5-82-2-13-4 15-2 11-1 13-2 42-2 18-2 5-3 16-4 35-2 35-3 44-5 38-5 6-5-1-3-17-2-19-7-114-5-68-1-2-4 19-5 49-5 23-4 39-4 67-4 38-3 17-5 10-4-1-2-7-3-26-7-114-4-53-1-10h-2l-6 36-4 22-3 12-4 39-5 83-2 20-4 23-5 15-5 1-3-20-3-39-5-86-3-45-1-10h-3l-2 12-1 4v7l1 1v6l-5 3-4 11-3 12-4 40h2l2 6-2 4-2 1-5 81-3 19v8l1 1v7l4 4v6l-5 3-2 1-1 4-4 3-5-1-2-2-1-18-2-19-7-119-2-23-2-26-1-7-2 3-4 14-1 9-1 11-3 41-5 16-5 38-4 50-1 5 4 2v7l-5 3-4 25-5 4h-4l-4-17-2-14-5-4-1-3 3-5h2l-3-43-3-34-5-5 1-5 3-3v-9h-6l-2-3v-5l3-3h4l-1-10-5 1-2 7-5 39-4 14-5 38-3 40-3 29-4 24-5 10-4 1-3-9-1 6 3 24 2 10 2 3 4 1 4-2v-8l9-1 2-3-1-5-1-1-10-1 2-16 1-1h39l7 2 2 4 4 1 5-3 1-4h77l1 1 1 170 2 1h222v-13l2-1v15l4-1 40 1v1h-44v170h100l43 1v1h-133l-10-1v112h-1l-1-6v-92l1-13h-224l-1 112h-1l-1-112h-214l-11-1v62l-1 51h-1l-1-112h-211l-12-1v86l-1 26h-1l-1-111h-222l-1 111h-1l-1-30 1-81h-227v112h-1v-112l-136 1-4 10-5 2-5-5-3-7-36-1-3 12-6 12-3 3-4-2-4-10-2-11v-4l-13 1-2 1v-2l-16 1-6 24-10 15h-2l-5-15-5-24h-26l-11 32-3 7-3 1-5-3-5-11-5-18-2-8-17-1-2 5-7 14-7 22-4 6-4 4-3-1-5-10-9-39h-10l-11 16-4 11-6 22-7 10-4 1-4-8-4-15-6-26-3-3-5-1v102l-2-1v-94l-1-2-9 9-5 12-5 20-5 8-5 4h-3l-4-8-8-30-5-13v-2l-5 1-1-1-1-14-3-3v-6l4-3h7l2 1-4-10-5 2-3-3 5-5 4-1 4 5 2 3h7l3 6-2 4-5 2 1 2 3-1 3-3 6 1 2-5 3-5 2-3h6l5 1 5-5 6-5 5-1 11 3 4 3v2h2v-2h14l4 3 5-7 4-4 7-8 3-2h4l3 5h6l4 3 1 5 5 3 1 6h2l1-3 8-2 8-10 6-12 8-7 4 1 4 11 2 10h6l2 2v6l-3 4h9l2 1 1-4 2-1 2-7 5-2 6-8 5-16 4-5 7-5 5 5 4 11 2 6 4 1 1 2v6l-2 2v7l1 2 7-7h8v-6l3-4 3-10 10-9 6-8 7-1 5 5 2 8v4l9 2 3 3 1 3 2 1 2-4 6-2 4-11 7-10 6-10 7-6 5 5 6 13v5l5 2 8 8 1 2v6l-5 3-5-2 1 9 3 10 3 1 5-15 3-14v-3l-7 1-3-4 1-5 5-4 8-1 3-5 3-1 3-10 4-10 9-10 4 2 4 13 4 2 3 6 6 8 1 5h7l2-1-1-9 4-4 2-7 5-2 3-12 3-10 9-12 2-1 4 4 4 11 2 10 5 1 3 6 3 3v5h3l1-4 5-6h2v-9l7-13 6-7 6-11 3-2 7 1 3 4 1 3 4 4v5l-2 2v3l4 1 2 5-1 4 5 4v6l-5 3h-2l2 11v4h4v-6l3-2h5v-7l-4-3v-6l2-3h4l-2-4 1-6 3-3 6-18 4-6 7-16 5-7 5-1 5 11 2 11 5 1 2 6-3 4h-2l3 24 4-2 3-6h2l1-7 5-1 1-7 7-21 3-5 6-22 6-11 5-4 2 1 5 20 3 17 1 2 4 1 2 7-5 6v3h6l3 3h3v-6l2-3 3-1 1-11-2-3 1-6 2-2 4-1 5-12 4-22 4-10 7-11h3l6 14 4 3v7l-3 1 4 29 1 8 7 8-1 6 6 2 2 1v-6l-4-2v-6l3-3h2l3-27-4-4v-5l3-3h3l1-4 4-5-1-8 2-3 6-1 3-7-5-1-2-5 3-5 5-3 7-6 5 1 3 5-3 5-1 4 3 4 1 9 3 1 1 6-1 2v10l1 7h2l6 1 2 3-1 5-4 3h-2v2h-2l2 14 1 10 1 2 4-1 4 2v-7l-6-4-1-5 3-4 7-1 1-17 6-28 6-15 7-20 6-12h7l2 2v12l1 4 7 1 2 2v6l-4 3h-4l4 28 3 31 10 2-1-10 3-5v-12l2-9 5-25 6-15 2-12 2-9 3-12 9-10 3 3 2 6 3 3v7l4 3v6l-3 3v9l6 47v3l7-3 5 3v-4l-3-1v-7l4-4 3-19 5-19 2-5-9-4-1-1v-6l4-3 5 1h2l-1-5 3-4h2l1-11 2-9 7-14-1-8 3-5 5-1 4 3 1 3 6 2 1 2v6l-3 2h-6v3l3 17 2 2v7l-1 2 4 45 3 35v5h2l1-4 5-1v-16l3-12v-11l5-38v-13l2-3h2v-7l4-4h2l1-7-1-5 5-5-1-8 4-4 6 1 5 8 2 5 5 46 3 36 2 7 4 5-2 6-2 2 1 10 2-1 5-20 1-13-2-2v-6l3-5 3-23 4-28 6-16h-5l-3-3v-6l4-3 5 1h2l6-18 4-6 2-2h3l1 5h6l3 3v5l-4 4 2 29 5 2 1 1v6l-4 3v2l7 2 1 1v6l-4 3-3 1 4 43 3 14 1 1v-6l-2-4 1-4 3-3h2v-10l-2-3 1-5 2-2 7-51 2-9 5-13 3-21-5-3v-6l5-4-1-1 1-7 5-26 1-5-1-5 4-5 3-5 5-1 4 4-1 6-3 3 3 15 4 38 1 17-1 2h-2l1 3 4 37 2 2v7h-2l4 31 1 3 4 3 4-25 1-18 1-5v-12l2-5 5-25 4-11 3-22 2-23-1-2-5-3-1-1 1-7 1-1h7l3 2 3-10-5-2v-6l3-3h6l2-4h6l3 4-1 5-4 3-3-1 3 5 1 1v8l2 14 3 32 2 16 3 3v5l-3 3 2 22v15l3 27v5h2l5-25 1-8v-15l4-37 1-19-3-3-1-3 3-5 3-3 1-13-2-3 1-7 1-1h5l3-10 2-4-4-1-3-3 2-6 1-1 7-1 4-12 5-4 3 1 5 10 2 19 2 3v5l-1 1 2 26 2 31 2 13-1 1 1 20 3 16 3-12 3-18 2-26 3-36v-6l-2-5 3-5 4-25 4-12 2-16 6-21 4-12 4-5 3 1 5 6-1 8 5 5-1 5-2 4 6 75 1 16 1 4v16l3 21 1 3 5-30 2-28 6-61 3-16 3-10 4-29 2-16 2-12 2-3-4-1-2-2v-5l3-3h8l4-2 2 7 4 32 2 18 1 6v11l3 42 2 30 1 6v9l3 16 1 3 3-19v-12l1-2 7-72 3-22 5-16 2-14-5 1-8-7-1-5 4-4 6 1 3 3 2-10v-7l-4-3v-6l4-3h2l2-34 3-16-3-1v-2h-2l-2-3v-5l3-3h5l3 2 1-5 3-5 2 3 3 15 2 17v16h5l3 5-1 5-4 2h-4l1 2 4 52 1 25 1 4 5 3 1 1v5l-4 3h-2l2 32 1 27 1 19 4-4 4-24v-15l2-18 3-49-2-3 1-5 2-4 3-36 3-14 4-14v-4l-4 1-5-5 1-5 2-2h6l3 5 3-13 3-10h-2l-1 7-3 2-5-1-2-2v-6l3-3 5-1 5-25v-2l-3-3v-5l3-3 7 1 5 8 1 5 3 49 1 36 4 72 1 11 1 26 2 20 1 2 5-33v-12l3-32 5-68 3-25 4-16 6-35 4-17 5-10h3l4 16 3 25 7 115 2 38 3 17 3-27 5-59 4-53 3-26 4-13 1-9 1-20 4-29 7-25 3-6h3l2 11 3 32 3 43 4 66 1 13 1 30 4 33h1l5-54 6-76 3-26 4-14 2-25 3-39 2-18 8-30 3-3 3 5 4 24 3 49 5 110 2 32 1 28 1 12 2-6 3-21 10-162 2-20 4-15 5-19 5-25 3-6 4-2 5 8 2 6 3 54 3 66 1 9v14l3 59 2 21 1 1 5-52 5-83 4-57 2-14 4-20 5-36 4-20 5-13z" fill="#E0E1E4"/>
<path transform="translate(157,825)" d="m0 0h139v109l-13 12-5 14-5 20-4 5v3l-9-1-2 4-3-1v-2l6-4-2-7h-7l-6-8-5 2-3 3v2l4-1h4l3 7v3h-9l-3 2v6l3 3 1 14h5l6 15 8 30 3 6v2l7-4 5-8 5-20 5-12 10-10 2 3v94l1-101 7 1 3 7 7 31 4 11 1 3 5-3 5-8 8-29 7-12 7-9h10l2 6 8 34 5 10 4-2 4-5 4-11 6-18 8-14h17l3 9 6 21 5 9 6 1 3-10 10-29 1-1h26l2 5 5 24 3 11h2l2-5 7-10 6-24 1-1h16 2 13l4 18 4 8 4-2 7-14 3-10h36l6 11 4 1 3-3 4-9h137l138-1h87l2 1v88l1-88 2-1h221l1 1 1 85 1-86h223l1 1 1 61v-60l1-2h225 3 222l2 1v105l1-106h68l76 1 1 114h-1872z" fill="#FDFDFD"/>
<path transform="translate(158,23)" d="m0 0h1871l-1 112h-82l-1-64-4 10-6 28-3 25-1 1h-42l-5-1-1-34-1 35h-96l-129-1h-227v-80l-1 80h-224l-1-101v55l-1 46h-224l-1-6-1 6h-452v-108l-1 108h-226l-1-101v54l-1 47-72 1h-67v-111z" fill="#FEFEFE"/>
<path transform="translate(1944,107)" d="m0 0 2 1-1 8-3 8-5 29-5 35-4 21-2 21-3 55-1 23-2 33-2 31-4 28-5 20-4 2-2-1-4-44-3-64-4-83-3-51-2-5h-1l-6 33-6 20-3 17-2 27-3 62-4 73-1 11-9 45-3 1-2-1-2-16-3-38-5-115-5-82-2-13-4 15-2 11-1 13-2 42-2 18-2 5-3 16-4 35-2 35-3 44-5 38-5 6-5-1-3-17-2-19-7-114-5-68-1-2-4 19-5 49-5 23-4 39-4 67-4 38-3 17-5 10-4-1-2-7-3-26-7-114-4-53-1-10h-2l-6 36-4 22-3 12-4 39-5 83-2 20-4 23-5 15-5 1-3-20-3-39-5-86-3-45-1-10h-3l-2 12-1 4v7l1 1v6l-5 3-4 11-3 12-4 40h2l2 6-2 4-2 1-5 81-3 19v8l1 1v7l4 4v6l-5 3-2 1-1 4-4 3-5-1-2-2-1-18-2-19-7-119-2-23-2-26-1-7-2 3-4 14-1 9-1 11-3 41-5 16-5 38-4 50-1 5 4 2v7l-5 3-4 25-5 4h-4l-4-17-2-14-5-4-1-3 3-5h2l-3-43-3-34-5-5 1-5 3-3v-9h-6l-2-3v-5l3-3h4l-1-10-5 1-2 7-5 39-4 14-5 38-3 40-3 29-4 24-5 10-4 1-3-9-3-19-1-17-5-2-1-1v-6l4-3v-12l-6-76-3-5v-9h-2l-5 20 4 2 1 4-2 4-5 1-2 10-5 18v9l6-1 3 3v6l-3 3h-5l4 6v5l-3 3h-6l-1 24-4 42-3 16 5 1 2 6-5 5h-5l-4 10h-4l-1-4-6-2-1-1v-6l3-3-1-20-1-9-4-2-1-2v-6l4-3-2-31-2-24-1-5-3-2v-2l-3 2-6-1-2-1-2 5v3l1-1h6l2 2v7l-2 2h-6l-4-3-2 12v12l-2 9-6 73-2 12 4 1 2 3-1 5-3 3-6-1v12l4 1 1 1v7l-1 1-2 12-4 12-3 6-2-1-3-11v-7l-5-1-1-7 3-3 1-10-1-16-2-22-3-40-2-3v-6l1-5-2-23-2-26-2-9h-2v8l-5 5-5 42-5 15-3 16v6l3 3 1 3-2 4-5 1-1 15-4 32 5 1 2 3-1 5-5 3-4-1-1 6v3l1 5-1 3-3 2-6-1-2-2v-6l1-5-4-2-1-7 1-5-3-29-4-4v-6l2-2v-10l-3-27 1-2-4-2-1-5 3-4-3-26-2 4-4 11-5 29-5 11 5 2v7l-2 2h-5l-3 24-1 4 5 1 2 2-1 7-3 2h-3v8l1 1v6l-3 3-1 5v12l-4 7-3 7-2 2 5 5-1 6-6 2-5-3v-6l2-3-3-9-3-16-5-53-2-11v-14l-2-15v2l-1 6-3 2-6-1-5 15-4 13-4 33-1 9 4 1 1 7-3 3-2 5h-2l-2 17-5 21 5 1 1 6-1 3-2 1h-6l-3-3-3-1-5-21-6-7v-5l4-4-1-18-5-56-2-13h-3v9l-5 4-2 6 1 5-2 4-3 2v7l-5 2-3 29-4 34 6 1 2 2v6l-5 3h-4l-1 10v5l-5 6-3 7 3 1 1 6-4 4h-5-2l-2 4-2 3 1 5 5 3 2 12 2 1 2-6 4-9 3-8h22l1 1-1 169h-224l-1-5-1 5-117 1h-108-3-82l1-5 4-13 6-27 4-9 3-4 6-20 3-4-1-2h-2l-2 6-5 2-7 1-2 13-7 22-2 4-2 1h-6l-6-12-5-26-5 2-4 3h-8l-6 2-2 5-3 9-5 20-4 8-5 4-4-1-5-10-5-24-4 2-3 5-3 1-5-2h-3l-3 5-4 4h-4l-2 12-4 12-4 6-4 3-4-2-4-8-5-22-4 5-2 4-7 1-3-1-6 3h-7l-4 15-6 10-5 5h-2l-5-5-3-1-1-2v-7h2l-3-16-3 3-7 4-7-1-1-2-3-1v6l-5 3h-6l-2 10-5 9-2 2h-6l-6-9-3-13-5 1-4-2-4 6-7-1-2-2v-4l-4 1 1 1v6l-4 3-3 1-4 12-4 6-4 3-4-1-4-5-4-13-3-12h-2l-3 6-5 1-4-2-1-5-8 7-5 2-1 8-4 12-6 9-3 2-4-1-5-9-6-25v-3l-4 1-4 4-7 1-1 1-8-1-3 11-5 18-7 9-5 3-5-7-5-19v-2h-7l-2-4-3 1-5-4v-6l4-3h7l2 1-4-10-5 2-3-3 5-5 4-1 4 5 2 3h7l3 6-2 4-5 2 1 2 3-1 3-3 6 1 2-5 3-5 2-3h6l5 1 5-5 6-5 5-1 11 3 4 3v2h2v-2h14l4 3 5-7 4-4 7-8 3-2h4l3 5h6l4 3 1 5 5 3 1 6h2l1-3 8-2 8-10 6-12 8-7 4 1 4 11 2 10h6l2 2v6l-3 4h9l2 1 1-4 2-1 2-7 5-2 6-8 5-16 4-5 7-5 5 5 4 11 2 6 4 1 1 2v6l-2 2v7l1 2 7-7h8v-6l3-4 3-10 10-9 6-8 7-1 5 5 2 8v4l9 2 3 3 1 3 2 1 2-4 6-2 4-11 7-10 6-10 7-6 5 5 6 13v5l5 2 8 8 1 2v6l-5 3-5-2 1 9 3 10 3 1 5-15 3-14v-3l-7 1-3-4 1-5 5-4 8-1 3-5 3-1 3-10 4-10 9-10 4 2 4 13 4 2 3 6 6 8 1 5h7l2-1-1-9 4-4 2-7 5-2 3-12 3-10 9-12 2-1 4 4 4 11 2 10 5 1 3 6 3 3v5h3l1-4 5-6h2v-9l7-13 6-7 6-11 3-2 7 1 3 4 1 3 4 4v5l-2 2v3l4 1 2 5-1 4 5 4v6l-5 3h-2l2 11v4h4v-6l3-2h5v-7l-4-3v-6l2-3h4l-2-4 1-6 3-3 6-18 4-6 7-16 5-7 5-1 5 11 2 11 5 1 2 6-3 4h-2l3 24 4-2 3-6h2l1-7 5-1 1-7 7-21 3-5 6-22 6-11 5-4 2 1 5 20 3 17 1 2 4 1 2 7-5 6v3h6l3 3h3v-6l2-3 3-1 1-11-2-3 1-6 2-2 4-1 5-12 4-22 4-10 7-11h3l6 14 4 3v7l-3 1 4 29 1 8 7 8-1 6 6 2 2 1v-6l-4-2v-6l3-3h2l3-27-4-4v-5l3-3h3l1-4 4-5-1-8 2-3 6-1 3-7-5-1-2-5 3-5 5-3 7-6 5 1 3 5-3 5-1 4 3 4 1 9 3 1 1 6-1 2v10l1 7h2l6 1 2 3-1 5-4 3h-2v2h-2l2 14 1 10 1 2 4-1 4 2v-7l-6-4-1-5 3-4 7-1 1-17 6-28 6-15 7-20 6-12h7l2 2v12l1 4 7 1 2 2v6l-4 3h-4l4 28 3 31 10 2-1-10 3-5v-12l2-9 5-25 6-15 2-12 2-9 3-12 9-10 3 3 2 6 3 3v7l4 3v6l-3 3v9l6 47v3l7-3 5 3v-4l-3-1v-7l4-4 3-19 5-19 2-5-9-4-1-1v-6l4-3 5 1h2l-1-5 3-4h2l1-11 2-9 7-14-1-8 3-5 5-1 4 3 1 3 6 2 1 2v6l-3 2h-6v3l3 17 2 2v7l-1 2 4 45 3 35v5h2l1-4 5-1v-16l3-12v-11l5-38v-13l2-3h2v-7l4-4h2l1-7-1-5 5-5-1-8 4-4 6 1 5 8 2 5 5 46 3 36 2 7 4 5-2 6-2 2 1 10 2-1 5-20 1-13-2-2v-6l3-5 3-23 4-28 6-16h-5l-3-3v-6l4-3 5 1h2l6-18 4-6 2-2h3l1 5h6l3 3v5l-4 4 2 29 5 2 1 1v6l-4 3v2l7 2 1 1v6l-4 3-3 1 4 43 3 14 1 1v-6l-2-4 1-4 3-3h2v-10l-2-3 1-5 2-2 7-51 2-9 5-13 3-21-5-3v-6l5-4-1-1 1-7 5-26 1-5-1-5 4-5 3-5 5-1 4 4-1 6-3 3 3 15 4 38 1 17-1 2h-2l1 3 4 37 2 2v7h-2l4 31 1 3 4 3 4-25 1-18 1-5v-12l2-5 5-25 4-11 3-22 2-23-1-2-5-3-1-1 1-7 1-1h7l3 2 3-10-5-2v-6l3-3h6l2-4h6l3 4-1 5-4 3-3-1 3 5 1 1v8l2 14 3 32 2 16 3 3v5l-3 3 2 22v15l3 27v5h2l5-25 1-8v-15l4-37 1-19-3-3-1-3 3-5 3-3 1-13-2-3 1-7 1-1h5l3-10 2-4-4-1-3-3 2-6 1-1 7-1 4-12 5-4 3 1 5 10 2 19 2 3v5l-1 1 2 26 2 31 2 13-1 1 1 20 3 16 3-12 3-18 2-26 3-36v-6l-2-5 3-5 4-25 4-12 2-16 6-21 4-12 4-5 3 1 5 6-1 8 5 5-1 5-2 4 6 75 1 16 1 4v16l3 21 1 3 5-30 2-28 6-61 3-16 3-10 4-29 2-16 2-12 2-3-4-1-2-2v-5l3-3h8l4-2 2 7 4 32 2 18 1 6v11l3 42 2 30 1 6v9l3 16 1 3 3-19v-12l1-2 7-72 3-22 5-16 2-14-5 1-8-7-1-5 4-4 6 1 3 3 2-10v-7l-4-3v-6l4-3h2l2-34 3-16-3-1v-2h-2l-2-3v-5l3-3h5l3 2 1-5 3-5 2 3 3 15 2 17v16h5l3 5-1 5-4 2h-4l1 2 4 52 1 25 1 4 5 3 1 1v5l-4 3h-2l2 32 1 27 1 19 4-4 4-24v-15l2-18 3-49-2-3 1-5 2-4 3-36 3-14 4-14v-4l-4 1-5-5 1-5 2-2h6l3 5 3-13 3-10h-2l-1 7-3 2-5-1-2-2v-6l3-3 5-1 5-25v-2l-3-3v-5l3-3 7 1 5 8 1 5 3 49 1 36 4 72 1 11 1 26 2 20 1 2 5-33v-12l3-32 5-68 3-25 4-16 6-35 4-17 5-10h3l4 16 3 25 7 115 2 38 3 17 3-27 5-59 4-53 3-26 4-13 1-9 1-20 4-29 7-25 3-6h3l2 11 3 32 3 43 4 66 1 13 1 30 4 33h1l5-54 6-76 3-26 4-14 2-25 3-39 2-18 8-30 3-3 3 5 4 24 3 49 5 110 2 32 1 28 1 12 2-6 3-21 10-162 2-20 4-15 5-19 5-25 3-6 4-2 5 8 2 6 3 54 3 66 1 9v14l3 59 2 21 1 1 5-52 5-83 4-57 2-14 4-20 5-36 4-20 5-13z" fill="#FDFDFD"/>
<path transform="translate(1468,135)" d="m0 0h185l5 1 37-1h65l122 1-1 16-3 17-6 20-3 14-1 8v21l-2 20-5 81-3 51-2 30-4 26-2 3-1-2-1-12-2-43-4-84-4-80-2-18-3-18-2-4-2 2-8 30-2 18-3 39-2 25-4 14-4 37-6 76-4 43-2 3-2-11-3-25-1-30-4-62-3-49-3-34-2-20-3 1-6 18-3 12-4 29-1 20-2 13-3 9-3 26-7 90-4 41-1 8-2 1-3-18-9-153-3-25-3-16h-3l-2 5-4 13-5 25-4 24-4 16-4 46-5 66-2 28-4 25-2 2-2-12-1-12-1-26-2-29-3-54-1-36-3-49-2-7-3-5-7-1-2 2v7l3 1-4 22-2 6-6 2-1 1v6l3 2 5-1 2-7h2l1-2-1 4-5 22-2-1-2-4h-6l-2 3 1 5 4 2h3l1 5-6 20-3 31-1 12-3 6 1 5 1 4-4 57-1 7v15l-4 24-3 4h-2l-2-19-2-42v-17l5-3v-5l-6-4-1-4-2-40-3-39 7-2 1-5-2-5h-5l-2-25-3-17-2-8-4 9-8-1-2 2v5l1 3h2l3 3-3 29-1 18-1 3-5 3v6l4 3-1 14-2 4-5-4-6 1-1 5 6 7 7 1-1 14-5 16-4 31-6 63-1 2v12l-3 20-2-1-3-12-1-7v-13l-1-2-2-30-3-42v-14l-2-8-3-29-3-23-4 3h-8l-2 2v5l5 3-4 19-3 7-3 13-1 1h-29l-2-1-5-28-1-9-2-2-6 1-1 6 2 4h5l-7 21-2 7h-51v-165l1-6h165l-166-1v-165l1-5z" fill="#FDFDFD"/>
<path transform="translate(1944,107)" d="m0 0 2 1-1 8-3 8-5 29-5 35-4 21-2 21-3 55-1 23-2 33-2 31-4 28-5 20-4 2-2-1-4-44-3-64-4-83-3-51-2-5h-1l-6 33-6 20-3 17-2 27-3 62-4 73-1 11-9 45-3 1-2-1-2-16-3-38-5-115-5-82-2-13-4 15-2 11-1 13-2 42-2 18-2 5-3 16-4 35-2 35-3 44-5 38-5 6-5-1-3-17-2-19-7-114-5-68-1-2-4 19-5 49-5 23-4 39-4 67-4 38-3 17-5 10-4-1-2-7-3-26-7-114-4-53-1-10h-2l-6 36-4 22-3 12-4 39-5 83-2 20-4 23-5 15-5 1-3-20-3-39-5-86-3-45-1-10h-3l-2 12-1 4v7l1 1v6l-5 3-4 11-3 12-4 40h2l2 6-2 4-2 1-5 81-3 19v8l1 1v7l4 4v6l-5 3-2 1-1 4-4 3-5-1-2-2-1-18-2-19-7-119-2-23-2-26-1-7-2 3-4 14-1 9-1 11-3 41-5 16-5 38-4 50-1 5 4 2v7l-5 3-4 25-5 4h-4l-4-17-2-14-5-4-1-3 3-5h2l-3-43-3-34-5-5 1-5 3-3v-9h-6l-2-3v-5l3-3h4l-1-10-5 1-2 7-5 39-4 14-5 38-3 40-3 29-4 24-5 10-4 1-3-9-3-19-1-17-5-2-1-1v-6l4-3v-12l-6-76-3-5v-9h-2l-5 20 4 2 1 4-2 4-5 1-2 10-5 18v9l6-1 3 3v6l-3 3h-5l4 6v5l-3 3h-6l-1 24-4 42-3 16 5 1 2 6-5 5h-5l-4 10h-4l-1-4-6-2-1-1v-6l3-3-1-20-1-9-4-2-1-2v-6l4-3-2-31-2-24-1-5-3-2v-2l-3 2-6-1-2-1-2 5v3l1-1h6l2 2v7l-2 2h-6l-4-3-2 12v12l-2 9-6 73-2 12 4 1 2 3-1 5-3 3-6-1v12l4 1 1 1v7l-1 1-2 12-4 12-3 6-2-1-3-11v-7l-5-1-1-7 3-3 1-10-1-16-2-22-3-40-2-3v-6l1-5-2-23-2-26-2-9h-2v8l-5 5-5 42-5 15-3 16v6l3 3 1 3-2 4-5 1-1 15-4 32 5 1 2 3-1 5-5 3-4-1-1 6v3l1 5-1 3-3 2-6-1-2-2v-6l1-5-4-2-1-7 1-5-3-29-4-4v-6l2-2v-10l-3-27 1-2-4-2-1-5 3-4-3-26-2 4-4 11-5 29-5 11 5 2v7l-2 2h-5l-3 24-1 4 5 1 2 2-1 7-3 2h-3v8l1 1v6l-3 3-1 5v12l-4 7-3 7-2 2 5 5-1 6-6 2-5-3v-6l2-3-3-9-3-16-5-53-2-11v-14l-2-15v2l-1 6-3 2-6-1-5 15-4 13-4 33-1 9 4 1 1 7-3 3-2 5h-2l-2 17-5 21 5 1 1 6-1 3-2 1h-6l-3-3-3-1-5-21-6-7v-5l4-4-1-18-5-56-2-13h-3v9l-5 4-2 6 1 5-2 4-3 2v7l-5 2-3 29-4 34 6 1 2 2v6l-5 3h-4l-1 10v5l-5 6-3 7 3 1 1 6-4 4h-5l-3-3v-13l-3-20-6-68-1-7-4-4 1-7 1-4h-3l-5-1-2-1v17l5 5-1 7-2 2-5 1-4 10-4 14-4 23 1 11-2 2-3 16 1 10-7 8-4 2 1 5-3 3-4 1-5-4v-5l3-3h3l-4-16v-4l-4-1-2-2v-5l3-3-1-14-3-33-2-11-1-2v-8l-6-1-1 4 4 4v5l-3 3-4 1-3 12-5 13-5 27 4 1 1 1v7l-2 2-4 1v7l3 5-2 5-4 1-1 9-5 12-5 5-3-2-7-18v-12l-2-21h-5l-3-3v-6l4-3h3l-4-28v-3l-6 2h-3v2l5 3v6l-3 3h-8l-1 5-4 11 6-1 4 4-1 6-6 6h-6v6l4 1 1 6-2 3-4 1-1 4v16l-2 2-5 19-6 11h-4l-3-8-3-10-3-27v-4l-3-1-1-6 2-3v-9l-2-11-4-3v-6l2-2v-7l-1-2-3 1-4 10-2 7-5 2 2 10-3 4-3 1-4 22-1 14v6l-1 1-3 19-8 20-2 3-4-1-5-16-3-23-4-4 1-6 1-1v-10l-2-20h-4-4v2l4 2 1 1v6l-3 3h-5v5l-3 3h-7v3l4 4-1 6-7 3-1 10v7l-2 2-6 26-3 6-3 2-5-1-5-13-5-30-1-3-6-4-1-5-5-1-2-2v-6l3-3 2-7 5-1-2-10-2-1-2 6-3 8-4 16-1 2 5-1 4 3v6l-2 3h-6l-3-2v-4h-2l-2 11-1 3 9-1 3 4-1 6-3 3-1 5-2 2-7-1-2 5-5 23-4 8-4 3h-3l-6-16-3-7v-12l-2-18-5-1v-2l-6 5-7 1-5-1-1 5 6 2 1 7-3 3h-3l-1 4-3 1v8l-2 5-3 17-6 14-4 5-4-1-5-13-5-32-2-7-7 1v6l-6 4-10 3 2 4-1 6-4 4-4 23-5 12-6 9h-3l-5-13-4-25-1-10h-5l-1 5-6 2h-2l-2 6-5 2-7 1-2 13-7 22-2 4-2 1h-6l-6-12-5-26-5 2-4 3h-8l-6 2-2 5-3 9-5 20-4 8-5 4-4-1-5-10-5-24-4 2-3 5-3 1-5-2h-3l-3 5-4 4h-4l-2 12-4 12-4 6-4 3-4-2-4-8-5-22-4 5-2 4-7 1-3-1-6 3h-7l-4 15-6 10-5 5h-2l-5-5-3-1-1-2v-7h2l-3-16-3 3-7 4-7-1-1-2-3-1v6l-5 3h-6l-2 10-5 9-2 2h-6l-6-9-3-13-5 1-4-2-4 6-7-1-2-2v-4l-4 1 1 1v6l-4 3-3 1-4 12-4 6-4 3-4-1-4-5-4-13-3-12h-2l-3 6-5 1-4-2-1-5-8 7-5 2-1 8-4 12-6 9-3 2-4-1-5-9-6-25v-3l-4 1-4 4-7 1-1 1-8-1-3 11-5 18-7 9-5 3-5-7-5-19v-2h-7l-2-4-3 1-5-4v-6l4-3h7l2 1-4-10-5 2-3-3 5-5 4-1 4 5 2 3h7l3 6-2 4-5 2 1 2 3-1 3-3 6 1 2-5 3-5 2-3h6l5 1 5-5 6-5 5-1 11 3 4 3v2h2v-2h14l4 3 5-7 4-4 7-8 3-2h4l3 5h6l4 3 1 5 5 3 1 6h2l1-3 8-2 8-10 6-12 8-7 4 1 4 11 2 10h6l2 2v6l-3 4h9l2 1 1-4 2-1 2-7 5-2 6-8 5-16 4-5 7-5 5 5 4 11 2 6 4 1 1 2v6l-2 2v7l1 2 7-7h8v-6l3-4 3-10 10-9 6-8 7-1 5 5 2 8v4l9 2 3 3 1 3 2 1 2-4 6-2 4-11 7-10 6-10 7-6 5 5 6 13v5l5 2 8 8 1 2v6l-5 3-5-2 1 9 3 10 3 1 5-15 3-14v-3l-7 1-3-4 1-5 5-4 8-1 3-5 3-1 3-10 4-10 9-10 4 2 4 13 4 2 3 6 6 8 1 5h7l2-1-1-9 4-4 2-7 5-2 3-12 3-10 9-12 2-1 4 4 4 11 2 10 5 1 3 6 3 3v5h3l1-4 5-6h2v-9l7-13 6-7 6-11 3-2 7 1 3 4 1 3 4 4v5l-2 2v3l4 1 2 5-1 4 5 4v6l-5 3h-2l2 11v4h4v-6l3-2h5v-7l-4-3v-6l2-3h4l-2-4 1-6 3-3 6-18 4-6 7-16 5-7 5-1 5 11 2 11 5 1 2 6-3 4h-2l3 24 4-2 3-6h2l1-7 5-1 1-7 7-21 3-5 6-22 6-11 5-4 2 1 5 20 3 17 1 2 4 1 2 7-5 6v3h6l3 3h3v-6l2-3 3-1 1-11-2-3 1-6 2-2 4-1 5-12 4-22 4-10 7-11h3l6 14 4 3v7l-3 1 4 29 1 8 7 8-1 6 6 2 2 1v-6l-4-2v-6l3-3h2l3-27-4-4v-5l3-3h3l1-4 4-5-1-8 2-3 6-1 3-7-5-1-2-5 3-5 5-3 7-6 5 1 3 5-3 5-1 4 3 4 1 9 3 1 1 6-1 2v10l1 7h2l6 1 2 3-1 5-4 3h-2v2h-2l2 14 1 10 1 2 4-1 4 2v-7l-6-4-1-5 3-4 7-1 1-17 6-28 6-15 7-20 6-12h7l2 2v12l1 4 7 1 2 2v6l-4 3h-4l4 28 3 31 10 2-1-10 3-5v-12l2-9 5-25 6-15 2-12 2-9 3-12 9-10 3 3 2 6 3 3v7l4 3v6l-3 3v9l6 47v3l7-3 5 3v-4l-3-1v-7l4-4 3-19 5-19 2-5-9-4-1-1v-6l4-3 5 1h2l-1-5 3-4h2l1-11 2-9 7-14-1-8 3-5 5-1 4 3 1 3 6 2 1 2v6l-3 2h-6v3l3 17 2 2v7l-1 2 4 45 3 35v5h2l1-4 5-1v-16l3-12v-11l5-38v-13l2-3h2v-7l4-4h2l1-7-1-5 5-5-1-8 4-4 6 1 5 8 2 5 5 46 3 36 2 7 4 5-2 6-2 2 1 10 2-1 5-20 1-13-2-2v-6l3-5 3-23 4-28 6-16h-5l-3-3v-6l4-3 5 1h2l6-18 4-6 2-2h3l1 5h6l3 3v5l-4 4 2 29 5 2 1 1v6l-4 3v2l7 2 1 1v6l-4 3-3 1 4 43 3 14 1 1v-6l-2-4 1-4 3-3h2v-10l-2-3 1-5 2-2 7-51 2-9 5-13 3-21-5-3v-6l5-4-1-1 1-7 5-26 1-5-1-5 4-5 3-5 5-1 4 4-1 6-3 3 3 15 4 38 1 17-1 2h-2l1 3 4 37 2 2v7h-2l4 31 1 3 4 3 4-25 1-18 1-5v-12l2-5 5-25 4-11 3-22 2-23-1-2-5-3-1-1 1-7 1-1h7l3 2 3-10-5-2v-6l3-3h6l2-4h6l3 4-1 5-4 3-3-1 3 5 1 1v8l2 14 3 32 2 16 3 3v5l-3 3 2 22v15l3 27v5h2l5-25 1-8v-15l4-37 1-19-3-3-1-3 3-5 3-3 1-13-2-3 1-7 1-1h5l3-10 2-4-4-1-3-3 2-6 1-1 7-1 4-12 5-4 3 1 5 10 2 19 2 3v5l-1 1 2 26 2 31 2 13-1 1 1 20 3 16 3-12 3-18 2-26 3-36v-6l-2-5 3-5 4-25 4-12 2-16 6-21 4-12 4-5 3 1 5 6-1 8 5 5-1 5-2 4 6 75 1 16 1 4v16l3 21 1 3 5-30 2-28 6-61 3-16 3-10 4-29 2-16 2-12 2-3-4-1-2-2v-5l3-3h8l4-2 2 7 4 32 2 18 1 6v11l3 42 2 30 1 6v9l3 16 1 3 3-19v-12l1-2 7-72 3-22 5-16 2-14-5 1-8-7-1-5 4-4 6 1 3 3 2-10v-7l-4-3v-6l4-3h2l2-34 3-16-3-1v-2h-2l-2-3v-5l3-3h5l3 2 1-5 3-5 2 3 3 15 2 17v16h5l3 5-1 5-4 2h-4l1 2 4 52 1 25 1 4 5 3 1 1v5l-4 3h-2l2 32 1 27 1 19 4-4 4-24v-15l2-18 3-49-2-3 1-5 2-4 3-36 3-14 4-14v-4l-4 1-5-5 1-5 2-2h6l3 5 3-13 3-10h-2l-1 7-3 2-5-1-2-2v-6l3-3 5-1 5-25v-2l-3-3v-5l3-3 7 1 5 8 1 5 3 49 1 36 4 72 1 11 1 26 2 20 1 2 5-33v-12l3-32 5-68 3-25 4-16 6-35 4-17 5-10h3l4 16 3 25 7 115 2 38 3 17 3-27 5-59 4-53 3-26 4-13 1-9 1-20 4-29 7-25 3-6h3l2 11 3 32 3 43 4 66 1 13 1 30 4 33h1l5-54 6-76 3-26 4-14 2-25 3-39 2-18 8-30 3-3 3 5 4 24 3 49 5 110 2 32 1 28 1 12 2-6 3-21 10-162 2-20 4-15 5-19 5-25 3-6 4-2 5 8 2 6 3 54 3 66 1 9v14l3 59 2 21 1 1 5-52 5-83 4-57 2-14 4-20 5-36 4-20 5-13z" fill="#0171BB"/>
<path transform="translate(158,23)" d="m0 0h1871l-1 112h-82l-1-64-4 10-6 28-3 25-1 1h-42l-5-1-1-34-1 35h-96l-128-1v-110l-1360 1-1 8v54l-1 47-72 1h-67v-111z" fill="#FEFEFE"/>
<path transform="translate(751,651)" d="m0 0h226l1 1v71l1-72h164l-2 12-4 28-5 11-4 13-5 3v6l10 5-4 11-4 17-2 15-4 4v7l2 1v4l-6-2-6 2-2-10-5-40v-9l3-3v-6l-4-4v-8l-3-1-3-8-9 9-3 12-2 9-3 15-5 12-5 25-2 11v10l-3 5v10h-6l-4-2-1-2-5-45-1-12 7-3v-6l-3-2h-5l-2-5v-12l-1-1h-7l-7 16-8 23-4 11-5 24-1 17-1 1-7 1-2 5 2 4 5 3-1 7-6-1-3 1-2-13-1-14h2v-2l6-4-1-6-6-1-2 1-2-9v-10l1-5-1-3-2-1-3-11-2-2 1-4 3-5-3-5-6 1-7 7-4 2-1 4 1 3 5 2-2 7-7 2-1 6 1 4-5 6-1 3-5 3v7l4 2-3 25-5 5v6l3 2v6l-9-2 1-7-7-8-4-32v-5l2-1v-15l-6-34-3-10-5 8-5 11-6 30-4 1-4 17-5 23h-17l-6-38-4-18v-4l-6 5-5 12-6 21-6 15-2 7h-24l-5-23-3-10-5 5-10 22-3 6h-35l-3-5-6 2z" fill="#FDFDFD"/>
<path transform="translate(1488,494)" d="m0 0 3 1v9l3 5 6 76v12l-4 3v6l5 3 3 24v18l3 24 2 10 2 3 4 1 4-2v-8l9-1 2-3-1-5-1-1-10-1 2-16 1-1h39l7 2 2 4 4 1 5-3 1-4h77l1 1v171l-181 1h-45l-1-1v-171l1-1 14 1 2 16v8l-3 3v6l6 3 2 4h2l5-11 7-1 2-5-2-4-4-1 2-16 4-42 1-17 1-7 7-2 1-1-1-7-2-4 6-2 1-1v-6l-2-2-7 1v-10l8-28 5-2 1-5-4-4 1-7 3-13z" fill="#FDFDFD"/>
<path transform="translate(1715,306)" d="m0 0h2l2 10 4 53 7 114 2 18v19l4 28v3l5-4 2-8 4-37 1-17 1-5h38l2 8 4 24 5-4 2-11 2-17h46l1 22h3l2-18 1-4h27l1 1v154l-1 15h-224v-170h12l1 2 3 46 3 25v4l4-1 5-15 5-30 5-78 2-29 3-28 5-22 7-41z" fill="#FDFDFD"/>
<path transform="translate(298,651)" d="m0 0h226v173h-226z" fill="#FEFEFE"/>
<path transform="translate(752,307)" d="m0 0h225l1 1v164l-1 6h-226v-170z" fill="#FEFEFE"/>
<path transform="translate(526,651)" d="m0 0h224v173h-224l-1-1z" fill="#FEFEFE"/>
<path transform="translate(789,135)" d="m0 0h184l5 1v170h-227v-170z" fill="#FEFEFE"/>
<path transform="translate(751,479)" d="m0 0h226l1 1v163l-1 7h-226z" fill="#FEFEFE"/>
<path transform="translate(1659,651)" d="m0 0h224v158l-1 14-223 1-1-1v-171z" fill="#FEFEFE"/>
<path transform="translate(298,307)" d="m0 0h226v171h-226z" fill="#FEFEFE"/>
<path transform="translate(335,135)" d="m0 0h184l5 1v170h-226v-170z" fill="#FEFEFE"/>
<path transform="translate(298,479)" d="m0 0h226v171h-226z" fill="#FEFEFE"/>
<path transform="translate(1431,825)" d="m0 0h226v170h-227v-169z" fill="#FEFEFE"/>
<path transform="translate(979,307)" d="m0 0h224l1 49v26l-1 96h-224z" fill="#FEFEFE"/>
<path transform="translate(526,307)" d="m0 0h223l1 1v170h-224l-1-1z" fill="#FEFEFE"/>
<path transform="translate(1205,307)" d="m0 0h223l1 1v170h-224z" fill="#FEFEFE"/>
<path transform="translate(1016,135)" d="m0 0h182l5 1 1 49v24l-1 97h-224v-170z" fill="#FEFEFE"/>
<path transform="translate(563,135)" d="m0 0h183l4 1v170h-225l1-170z" fill="#FEFEFE"/>
<path transform="translate(1242,135)" d="m0 0h182l5 1v170h-224v-170z" fill="#FEFEFE"/>
<path transform="translate(1658,825)" d="m0 0h225v156l-1 14h-224z" fill="#FEFEFE"/>
<path transform="translate(526,479)" d="m0 0h224v171h-224l-1-1z" fill="#FEFEFE"/>
<path transform="translate(979,479)" d="m0 0h224v153l-7 18h-39l-4-13v-2h-2l-1 5-5 10h-166z" fill="#FEFEFE"/>
<path transform="translate(1205,825)" d="m0 0h224v170h-224z" fill="#FEFEFE"/>
<path transform="translate(980,762)" d="m0 0 3 1 1 2v7l-2 2v6l4 3 2 11v9l-1-3h-7l-3 7-11 18h12v164l-1 6-117 1h-108-3-82l1-5 4-13 6-27 4-9 3-4 6-20 4-7 4-2 1-4h5l3 17 3 18 4 11v2l3-1 6-10 4-10 4-23 5-6-1-6v-3l12-4 3-2 1-6 7-2 3 8 5 32 5 13 4-1 7-14 2-6 2-14 2-6 1-7 3-2 1-3 5-3-1-7-5-2 1-5h9l5-3 4-2 1 2 4 1 2 10 1 16 1 6 3 8 4 11v2l7-4 4-11 5-23 2-2 7 1 2-3 1-5 3-1v-6l-2-3h-5l-5 1 4-15h2l1 4 2 1h6l1-2v-6l-3-2h-5l4-18 4-10 2-4 3 1 1 10-5 2-2 7-2 2v6l3 2h4l1 6 6 4 3 17 4 19 4 10 6-1 3-6 6-26 2-2v-11l2-7 6-2 1-6-4-5 1-2 7-1 2-2 1-5 6-2 1-1v-6l-4-3v-2l8-2 1 2 2 20v10l-2 3 1 6 3 2 3 23 5 16h3l8-19 3-14 1-8 1-1v-10l3-21 2-11 5-3 1-5-2-5 6-6 4-13z" fill="#FDFDFD"/>
<path transform="translate(1205,479)" d="m0 0h195l29 1v29l-4 17-8 23-1 10 6 2-3 10-2 4-5 1-1 7 2 3-1 13-5 5-1 4 1 4 3 1-1 19-4 40v12l-3 18-4 15h-2l-3-22-2-36-1-11 3-3v-5l-3-3-4-34-2-22-1-9v-5l-3-3v-3l5-1 2-2-1-6-1-1h-6l-2 3-8 1-1 8 5 2-2 10h-3l-1-1h-7l-1 7 6 4 1 4-4 37-3 12-4 13-3 17-2 7v10l-1 5-1 18-4 25-2 2-1-3-3-2-2-9-2-19v-6h2l-1-7-2-2-4-37v-3h2l-1-19-4-38-2-12-1-3 2-3h2v-6l-3-3-5 1-6 9 1 7-5 22-2 9v5l1 2-5 3v6l5 3-3 21-6 16-2 13-6 44-3 4 1 5 1 1v8l-5 5-1 4 2 4v6l-2 1-4-16-4-44 7-3v-6l-8-3 1-3 3-2v-6l-5-3-2-13-1-16 4-4v-7h-2l-3-24-4-16-4 4-7 16-1 7-3 3-2 10-4 13-1 1h-28l-1-9 2-2-1-7-6-2 1-4-7 3v-25z" fill="#FDFDFD"/>
<path transform="translate(1204,25)" d="m0 0h1v109h224v-108h1l1 28v57l-1 23h227v-109h1v109h128l96 1v-35l1-75h1v109h47l4-31 6-25 3-7 2-1v38h-4l-1 5-4 12-4 21-5 37-4 19-3 36-4 62-3 51-5 52-2 2-2-13-1-11-3-59v-15l-1-8-5-106-1-14-5-12-2-1-4 4-3 11-5 26-6 20-2-1v-15l3-17 6-23 3-13 3-22h-224v157h-1v-157h-226v143l-1 27h166l8 1v1h-52l-121-1v104l-1 67h51l2-11 5-15 1-1-4-1-3-4 1-6 3-2 5 1 2 2 3 19 2 12v6h31l5-19h1v11l-4 29-5 18-5 49-3 30-1 18-5 30-2 1-4-25v-18l-1-2-4-55-3-37 3-5-1-5-4-4 1-7v-2l-4-2-1-2-3 1-4 8-7 26-1 2-2 16-5 16-3 21-3 5 2 5-1 19-3 31-2 26-5 23-2-1-3-16-1-20 1-3-2-11-3-43-1-14 1-1-1-7-2-7-1-13-4-8v-2l-5 1-3 4-3 10-1 1-7 1-2 1 2-9 7-20 3-14 1-29-224-1v149l3-2h3v3l6 3 1 7-2 2v9l28-1 5-16 2-9 3-1v-7l7-16 5-5 3 8 3 15 1 8v9h-6l-1-5-5 3-5 10-5 15-4-2-5 1-1 1v6l2 2 5 1-1 6-4 10-4 28-3 23-3 5v6l2 2-1 13-5 20-3 1-2-11 3-2 1-5-5-6-3-28-3-34-3-26-6-12-6-1-3 3 1 8-5 5 1 9-7 7-1 7-3 3v13l-5 38v11l-3 12v13l-1 3-5 2-1 3h-2l-2-16-5-59-1-11 1-1v-7l-2-2-3-17-1-6 2 1v2l8-2v-6l-1-2-6-2-2-4-5-1-3 2-1 4 1 7-8 16-3 18-4 4 1 7-6-3 2-10 5-12 2-8 4-27 2-7h-164v72l-2 1v-72l-2-2h2v-170l-2-2h2v-5l2-1v6h224v-171l-2-1h2v-170h-5l-1-2h6v-101zm38 110-37 1v170h224v-170l-5-1zm-37 172v171h224v-170l-1-1zm-226 172v171h166l6-12v-3h2l3 12 1 3h39l7-18v-153z" fill="#E1E2E4"/>
<path transform="translate(1376,575)" d="m0 0 3 1 2 9 2 26 2 27-1 1v6l2 3 4 54 2 18v10l-2 7-2 2 1 7 4 1 3 14 2 4 5-13 2-7 1-9 1-1v-7l-4-2-1-9 1-3h6l3-4-1-5-1-1 2-32 2-20 1-1h14v173h-199l3-9 4-14 1-16-5-1 2-12 3-14 1-10 3-3 2-5 2-2-1-7-3-1v-9l4-33 4-13 5-15 2-1 5 1 3-3-1-7 3 1 2 15v17l2 8 5 53 3 16 3 10-2 2v6l6 2 4-1v-6l-5-5 4-5 3-8 2-3v-12l2-6h2v-8l-1-1v-9l6-1 1-7-2-2-4-1 2-18 2-10 6-2v-7l-4-2 3-9 3-13 4-22 5-12 2 1 3 26-3 4 1 5 3 2 3 29v10l-2 2v6l4 4 3 32-1 7 1 2 4 2-1 11 3 2 7-1-1-8v-3l2-6 7-1 2-3-1-5-5-2 1-14 3-28 1-5 5-1 1-5-1-4-3-1 1-12 4-16 3-9 5-42 5-5v-8z" fill="#FDFDFD"/>
<path transform="translate(298,825)" d="m0 0h226v69l-12 12-4 9-8 29-5 10-4 4-3-4-3-17-7-33-4-10-4 1-7 11-6 15-5 5-12 32-2 4-4-2-5-10-6-21-6-20v-2l-7 4-4 5-6 14-5 5-4 10-6 22-3 8-3-1-1-6-5-3-2-6-5-1-4-1-2-5-7 3-6 7-5 5-5 7-2-1v-2h-10l-6-1v2h-2l-3-13-7-25-3-6-6 3z" fill="#FDFDFD"/>
<path transform="translate(1884,651)" d="m0 0h144v173h-144z" fill="#FEFEFE"/>
<path transform="translate(1941,479)" d="m0 0h87v171h-144v-170z" fill="#FEFEFE"/>
<path transform="translate(1884,825)" d="m0 0h144v171h-44l-100-1z" fill="#FEFEFE"/>
<path transform="translate(158,651)" d="m0 0h138l1 49v28l-1 95-53 1h-85z" fill="#FEFEFE"/>
<path transform="translate(253,135)" d="m0 0h40l3 1 1 49v26l-1 95-91 1h-48v-171z" fill="#FDFDFD"/>
<path transform="translate(211,479)" d="m0 0h85l1 50v26l-1 95h-138v-170z" fill="#FEFEFE"/>
<path transform="translate(228,307)" d="m0 0h68l1 50v26l-1 95h-138v-170z" fill="#FEFEFE"/>
<path transform="translate(1884,308)" d="m0 0h11l2 5 3 64 3 36v8l5-1 5-20 4-28 3-53 1-11h107v170h-144z" fill="#FDFDFD"/>
<path transform="translate(1886,173)" d="m0 0 3 2 1 4 5 91 1 22v17l-12-1v170h143v1l-86 1h-57v155h-1l-1-145v-9l-27-1-2 18-1 4h-3l-1-3v-19h-46v9l-2 16-3 5-4 3-2-7-4-26h-38l-2 34-4 31-5 6h-2l-3-16-2-15v-7l2-4 2 7 3 1 2-6 3-7 5-40 4-62 3-39 3-22 4-18 5-49 4-19 2-2 2 16 5 71 6 99 4 33 1 3 5-1 3-4 5-38 3-44 2-35 5-43 5-18 2-29 1-26 2-19 5-21 2 1 2 13 5 82 5 115 4 49v5h4l9-45 3-46 4-75 2-39 2-20 5-21 4-14 5-28z" fill="#E1E2E4"/>
<path transform="translate(526,825)" d="m0 0h223l-2 5-8 10-3 7-6 30-2 13v8l-5 5-1 3h-3l-1-7-3-1-2-5-6-2-4-16-3-6v-2l-4 1-8 11-3 10-3 12-6 3-2 7-3 3 1 9-3 2h-7l-3-7-6-8-1-5-5-2-4-13h-4l-7 8-8 20-4 3-2 4-8 1-5 4 1 6 1 1 8-1-1 8-4 17-4 9-4-2-4-15v-5l6 2 4-2v-6l-7-8-2-2-5-2-1-8-7-13-2-1-7 6-9 15-4 6-4 10-6 2-2 3-3-1-3-5-2-6-9-40-3-7-3-1-4 1v-61z" fill="#FDFDFD"/>
<path transform="translate(979,651)" d="m0 0h164l-2 12-4 28-5 11-4 13-5 3v6l10 5-4 11-4 17-2 15-4 4v7l2 1v4l-6-2-6 2-2-10-5-40v-9l3-3v-6l-4-4v-8l-3-1-3-8-9 9-3 12-2 9-3 15-5 12-5 25-2 11v10l-3 5v10h-6l-4-2-1-2-5-45-1-12 7-3v-6l-3-2h-5l-2-5v-12l-1-1h-7l-7 16-8 23-4 11-5 24-1 17-1 1-7 1-2 5 2 4 5 3-1 7-6-1-3 1-2-13-1-14h2v-2l6-4-1-6-6-1-2 1-2-9v-10l1-5-1-3-2-1-3-11-2-2 1-4 3-5-3-5-6 1-7 7-4 2-1 4 1 3 5 2-2 7-7 2-1 6 1 4-5 6h-2v-8l5-27 6-10 8-16 2-5z" fill="#FDFDFD"/>
<path transform="translate(158,23)" d="m0 0h1811v1l-1671 1-1 8v54l-1 47-72 1h-67v-111z" fill="#FAFAFB"/>
<path transform="translate(1947,136)" d="m0 0h81v171h-107l2-36 2-11 2-15 4-20 9-57 5-19z" fill="#FDFDFD"/>
<path transform="translate(1969,23)" d="m0 0h60l-1 112h-82l-1-64-4 10-6 28-3 25-1 1h-42l-5-1v-110z" fill="#FDFDFD"/>
<path transform="translate(155,21)" d="m0 0h1876v1092l-146 1-1 9-2-1v-9l-223 1v8l-2 1-1-9h-225v9h-2l-1-9h-222l-1 9h-2l-1-9h-223v9l-2-3v-7l-225 1v9h-2l-1-9h-223v9h-2l-1-9h-224l-1 9h-2l-1-9-140-1v-116h-9l1-2h8v-169h-8l-1-2 9-1v-171h-8l-2-2h10v-170h-9v-2h9v-170h-9v-2h9v-170l-6 1-3-2 2-1h7zm3 2-1 1v1087h1872v-1088z" fill="#040307"/>
<path transform="translate(1603,384)" d="m0 0 2 2 2 15 2 29 3 43 5 88 3 30v7l3 2 5-1 2-2v-5l6-1 1-1v-8l-4-2v-7l-1-1v-8l3-19 4-63 1-2h17v170h-80l-4-3 1-14 4-31 1-19 2-1v-7l-3-2 2-30 3-35 4-28 5-16 3-41 1-11 2-12z" fill="#FDFDFD"/>
<path transform="translate(519,965)" d="m0 0 7 2v8l-2 2-1-6-10 9-3 8-6 27-3 9-9 13h-2l-5-15-5-24h-26l-11 32-3 7-3 1-5-3-5-11-5-18-2-8-17-1-2 5-7 14-7 22-4 6-4 4-3-1-5-10-9-39h-10l-11 16-4 11-6 22-7 10-4 1-4-8-4-15-6-26-3-3-5-1v102l-2-1v-94l-1-2-9 9-5 12-5 20-5 8-5 4h-3l-4-8-8-30-5-13v-2l-5 1-1-1v-14h4l2 3 7 1 6 21 4 6 5-3 6-8 7-25 2-4h8l3-2 7-1 2-3h4l8 30 4 7 4-1 5-5 5-12 3-12 6-4 5-5h2l2 5 6 1 3-3 3-5 2 2 5 20 4 8 2 2 5-1 4-5 4-11 2-4 6-3v-6l-1-2h5l2 5 7 1 3-6 6 2h4l5 15 4 6h6l5-8 4-12 9-2 2-7 4 1v2h7l9-6 2-1 2 11v6h-2l1 9 5 1 3 3v2l7-6 6-12 3-12 3-1 7-1z" fill="#C5E0F0"/>
<path transform="translate(693,911)" d="m0 0 2 1-2 4-8 24-3 3-5 16-6 26-5 12-52 1-4 10-5 2-5-5-3-7-36-1-3 12-6 12-3 3-4-2-4-10-2-11v-4l-13 1-2 1v-2h-16l1-9 3-8 11-10h1l1 5 1-8 3-2 3-6h2l2-4 5 24 5 9 6-2 2-5 4-9 4-16 4-1 5-5 2-4 5 1 4 1 3-2 3-5h4l5 24 5 10 5-1 3-3 5-14 5-21 4-6 6-3h8l5-4h4l3 12 4 17 4 8h6l2-1 6-18 3-11 2-9 4-2 7-1 3-6z" fill="#C5E0F0"/>
<path transform="translate(925,733)" d="m0 0 2 1 4 14 5 30v8l-5-3-5-12v-2l-3 1-8 14-4 15-2 13-5 12-6 3-1 6 2 3-1 11-4 2-1 2v7l-5-1v-2l-8-1-1-4 5-5-1-7-5-1-2-6-4-22-3-11-5 3-7 14-6 21-4 8-5 16-2 7-4 1-2 7-3 3-3 5h-3l-3-16v-8l4-4-2-6-4-1-5-16-2-6-6 3-16 32-4 13-3 1-1 8 1 4-4 1-1 2v6l4 3-1 7-7 2-1 6h-4l-2-10v-5l6-3v-6l-5-4 1-4-1-5-5-1 1-4 1-1-1-7-3-2-3-6-7-1-4 4-6 11-6 7-5 10-1 9h-3l1-12 4-23 4-17 6-9 6-8 2-6 5-3 3 1 2 5 35-1 11-25 4-6 3-2 3 7 4 17 1 10h24l1-7 8-21 6-21 5-8 3-3h2l5 22 5 30v8h17l2-13 6-25 1-2 3-1 6-30 8-17z" fill="#C6E0F0"/>
<path transform="translate(1829,197)" d="m0 0 2 1 2 13 5 82 5 115 3 38 1 20v12h-45l3-37 1-37 2-39 3-31 3-24 5-18 2-29 1-26 2-19z" fill="#FCFDFD"/>
<path transform="translate(1206,666)" d="m0 0 4 1 3 23 1 11v13h-1l-1-8-4-2h-2l-1 120h21v1h-21v170h224v-141h2v115l-1 26h12v1h-11v62l-1 51h-1l-1-112h-211l-12-1v86l-1 26h-1l-1-111h-222l-1 111h-1l-1-30 1-81h-227v112h-1v-112h-84v-1l83-1 1-86h1l1 86h225v-5l2-1v6h224v-169h-22l-4 12-5 10-3-1-1-12-4-1-3-3 1-6 3-4 2-3 1 1 7-1 1-6-3-3 3-9 4-4v-9l2-6 8-3v-6l-7-3 1-16 5-44 1-3 4-2v-8l4-2 1-4-1-6 3-5 4-3v-9z" fill="#E0E1E4"/>
<path transform="translate(1772,253)" d="m0 0 2 4 6 83 6 99 2 19v20l-9 1-31-1 2-42 4-63 3-27 5-23 5-49 4-19z" fill="#FCFDFD"/>
<path transform="translate(1892,136)" d="m0 0h39l-1 12-4 26-1 8-1 20-3 36-4 62-3 51-5 52-2 2-2-13-1-11-3-59v-15l-1-8-5-106v-23l-2-29z" fill="#FBFCFD"/>
<path transform="translate(1717,256)" d="m0 0h3l4 33 1 18h32l1-8h1v19l-2 13-3 9-3 26-7 90-4 41-1 8-2 1-3-18-9-153-3-25-3-16h-3l-2 5-4 13-5 25-4 24-3 11-2-2 1-14 3-19 5-22 1-7h-91v-1l91-1 4-22 5-21z" fill="#FAFCFD"/>
<path transform="translate(1430,480)" d="m0 0h50l-1 11-5 21-2 7-2 19-1 20-2 13-3 5 2 5-1 19-3 31-2 26-5 23-2-1-3-16-1-20 1-3-2-11-3-43-1-14 1-1-2-32-2-22-2-13-2-3-4 1-3 2z" fill="#FCFDFD"/>
<path transform="translate(1549,479)" d="m0 0h2l-2 4-2 3 1 5 4 3 5 59v18l-3 2-1 4 6 6 1 8 1 28 5 31h-45l1-22h1v5l5 2 5-1 1-6-1-2-4-1-6 2 1-21 3-31 1-3 7 1 3-3-1-6-5-1-4 1 4-17 4-19 5-35 2-7h2v-6z" fill="#FCFDFD"/>
<path transform="translate(746,906)" d="m0 0 4 1 1 2-1 86-1 1h-82l1-5 4-13 6-27 4-9 3-4 6-20 4-7 7-1 4 22 6 42 4 13v2h3l2-6 7-17 10-48 3-6z" fill="#FDFDFD"/>
<path transform="translate(529,889)" d="m0 0 4 2 4 11 8 36v5l-5-1-3-1-3-12-4-4-7 1-8 10-7 6-4 12-2 2-1 6-8 1-6 6-2 4-1-13 2-2v-8l-5-1-5-15-4-6-5 3-5 5-3 6-4 13-6 7-5 2-2 7-2 1-1 3h-12l1-3h2v-8l-7-2-6-19-1-2-5 1-7 8-6 12-7 8-8 1 9-32 5-8 3-3 6-14 8-7h3l6 18 6 22 4 10 5 5 3-9 10-27 6-7 7-17 7-9 4 1 4 10 9 43 1 7 3 3 6-10 7-24 4-13 4-6 14-14z" fill="#C4E0F0"/>
<path transform="translate(1715,306)" d="m0 0h2l2 10 4 53 6 99v12h-35v-14l3-51 4-39 5-22 7-41z" fill="#FBFCFC"/>
<path transform="translate(1867,308)" d="m0 0h16v143l-1 27h-26v-7l3-18 2-26 1-38 4-76z" fill="#FDFDFD"/>
<path transform="translate(1488,494)" d="m0 0 3 1v9l3 5 6 76v12l-4 3v6l5 3 3 24v17h-37l2-25 4-36 5-4-1-7-2-4 6-2 1-1v-6l-2-2-7 1v-10l8-28 5-2 1-5-4-4 1-7 3-13z" fill="#FCFDFD"/>
<path transform="translate(810,858)" d="m0 0h2l1 2 4 1 2 10 1 16-3-4-2-10-5-3-6 12-9 21-5 19-5 29-5 13-5 7-3-3-4-13-6-39-3-15-3-3v6l-3 3-7-1-2 4-4 5-5 22-6 29-7 17-3 6h-3l-4-10-4-24-5-36-1-9-3-1 1-4h5l3 17 3 18 4 11v2l3-1 6-10 4-10 4-23 5-6-1-6v-3l12-4 3-2 1-6 7-2 3 8 5 32 5 13 4-1 7-14 2-6 2-14 2-6 1-7 3-2 1-3 5-3-1-7-5-2 1-5h9l5-3z" fill="#C5E0F0"/>
<path transform="translate(573,946)" d="m0 0 5 1 7 2 4 5 8 38v4l-35 1-5 15-5 9-3 3-4-2-4-10-2-11v-4l-13 1-2 1v-2h-16l1-9 3-8 11-10h1l1 5 1-8 3-2 3-6h2l2-4 5 24 5 9 6-2 2-5 4-9 4-16 4-1 5-5z" fill="#C4E0F0"/>
<path transform="translate(1498,480)" d="m0 0h31l-3 25-1 20-7 71-1 18-5 30-2 1-4-25v-18l-1-2-4-55-3-37 3-5-1-5-4-4 1-2z" fill="#FCFDFD"/>
<path transform="translate(1186,651)" d="m0 0h8l-2 6-3 7-3 19-1 20v8l-5 38v11l-3 12v13l-1 3-5 2-1 3h-2l-2-16-5-59-1-11 1-1v-7l-2-2-3-17-1-6 2 1v2l8-2v-6l-2-3-3-1-2-9v-4z" fill="#FDFDFD"/>
<path transform="translate(1429,155)" d="m0 0h2v124l-1 27h166l8 1v1h-52l-121-1v104l-1 67h51l2-11 5-15 1-1-4-1-3-4 1-6 3-2 5 1 2 2 3 19 2 12v6h31l5-19h1v11l-4 29-5 18h-1v-12l3-22 1-3h-31v7l-1-2-4-2-1-2-3 1-4 8-7 26-1 2-2 16-5 16h-1v-12l2-19 6-23 3-16h-50l1 23 3-3 4 1 3 6 2 17 2 31v9l-2-1-2-19-4-8v-2l-5 1-3 4-3 10-1 1-7 1-2 1 2-9 7-20 3-14 1-29h-29v-2h29l-1-172z" fill="#E1E2E4"/>
<path transform="translate(925,733)" d="m0 0 2 1 4 14 5 30v8l-5-3-5-12v-2l-3 1-8 14-4 15-2 13-5 12-6 3-1 6 2 3-1 11-4 2-1 2v7l-5-1v-2l-8-1-1-4 5-5-1-7-5-1-2-6-4-22-3-11-5 3-7 14-6 21-4 8-5 16-2 7-4-1 4-21 5-25 6-16 5-16 5-15 4-6 3-3h2l5 22 5 30v8h17l2-13 6-25 1-2 3-1 6-30 8-17z" fill="#C5E0F0"/>
<path transform="translate(1783,307)" d="m0 0h27l-4 40-6 76-4 43-2 3-2-11-3-25-1-30-4-62-1-17z" fill="#F9FBFC"/>
<path transform="translate(297,555)" d="m0 0h1v95l53-1h90l82 1v1h-225l1 172 17 1v1h-18l1 105 3-3 4 2 5 15 5 19v6l-5-2-10-2-5 2-7 5-3 4-11-1-1-4 5-18 4-8 12-11 1-109h-138v-1l85-1h53v-172l-2-1h2v-94z" fill="#E1E2E4"/>
<path transform="translate(1038,746)" d="m0 0h2l3 17 1 14-6 3v6l2 2 5 1 2 13 1 8v12l1 3-30 1-2 10-5 37-5 16-5 9-3-1-4-15-3-24v-14l2 4 4 13 3 1 7-14 4-16 2-2v-16l2-5 4-1 1-5-1-3-3-1v-6l7-2 5-6v-6l-9-1 2-9 3-7 10-1v-8l-5-3 1-3z" fill="#FCFCFD"/>
<path transform="translate(1218,651)" d="m0 0h26v5l-3 2v6l2 2 5 1-1 6-4 10-4 28-3 23-3 5v6l2 2-1 13-5 20-3 1-2-11 3-2 1-5-5-6-3-28v-13h2l-3-31-2-24v-9z" fill="#FCFDFD"/>
<path transform="translate(1587,449)" d="m0 0h2l-1 14-5 16-4 31-6 63-1 2v12l-3 20-2-1-3-12-1-7v-13l-1-2-2-30-3-42v-14l-1-8h24l4-27z" fill="#FBFCFD"/>
<path transform="translate(1543,451)" d="m0 0h5l1 10-5 2-1 1 1 7 6 1 1 6-2 2h-4v6h-2l-2 13-5 34-6 26-2 5 4-2 5 1 2 3-1 6-3 2-5-1-2-1-4 46-1 9 7-3 4 2 1 6-4 4-5-1-3-2-2 17h42v1l-6 1h-36l-3 16h10l3 4-1 5-2 2h-9l1 2v6l-5 3-5-2-3-7-3-21-1-10 1-11h1l3 14h3l5-10 5-31 4-45 2-26 4-29 4-14 5-39 2-7z" fill="#C8E0EF"/>
<path transform="translate(1265,595)" d="m0 0 2 1 4 16 2 14v9h-6l-1-5-5 3-5 10-5 15-7-3v-4l-26 1v9l4 46v9l-3-1-5-46-6-12-6-1-3 3 1 8-5 5 1 9-7 7-1 7-3 1v-13l3-19 6-13-8 1h-19l-9-1v-1h38l1-5 6-15 5-4h3v3l6 3 1 7-2 2v9l28-1 5-16 2-9 3-1v-7l7-16z" fill="#C9E0EF"/>
<path transform="translate(1302,627)" d="m0 0 6 3-3 21-6 16-2 13-6 44-3 4 1 5 1 1v8l-5 5-1 4 2 4v6l-2 1-4-16-4-44 7-3v-6l-8-3 1-3 3-2v-6l-5-3-2-13v-13h27l1-13z" fill="#FBFCFC"/>
<path transform="translate(1829,197)" d="m0 0 2 1 2 13 5 82v16l-18-1v9l-3 23-5 27-4 35h-1v-14l2-35 5-43 5-18 2-29 1-26 2-19z" fill="#FAFCFD"/>
<path transform="translate(1861,406)" d="m0 0h1v21l-2 26-5 31-3 18h-3l-1-3v-19h-46v9l-2 16-3 5-4 3-2-7-4-26h-38l-2 34-4 31-5 6h-2l-3-16-2-15v-7l2-4 2 7 3 1 2-6 3-7 5-40h1v13l39 1v-13h1l2 10 5-1 3-4 5-38 1-12h1v21l-3 36 44 1-1-21h1v5h4l9-45z" fill="#CAE0EE"/>
<path transform="translate(1603,384)" d="m0 0 2 2 2 15 2 29 3 43v17h-1v-10h-17l-1 16-7 35-3 22-2 19-3 1 2-30 3-35 4-28 5-16 3-41 1-11 2-12z" fill="#C7E0EF"/>
<path transform="translate(980,762)" d="m0 0 3 1 1 2v7l-2 2v6l4 3 2 11v9l-1-3h-7l-3 7-11 18-2 6-9 66-6 16-4 7h-2l-3-9-3-18-1-9v-18l2 4 4 12h3l8-19 3-14 1-8 1-1v-10l3-21 2-11 5-3 1-5-2-5 6-6 4-13z" fill="#C5E0F0"/>
<path transform="translate(1203,711)" d="m0 0h1l-1 113h-22l1-13 3-30 5-3v-6l-4-3 4-28 3-12 6-11z" fill="#FDFDFD"/>
<path transform="translate(584,872)" d="m0 0 4 2 4 10 6 27 5 20 4 6 8-1-1 8-4 17-4 9-4-2-4-15v-5l6 2 4-2v-6l-7-8-2-2-5-2-1-8-7-13-2-1-7 6-9 15-4 6-4 10-6 2-2 1 2-9 8-29 7-16 12-20z" fill="#C4E0F0"/>
<path transform="translate(640,930)" d="m0 0 3 3 6 25 7 29 3 9h-44l1-8 7-23 8-17 6-14z" fill="#FEFEFE"/>
<path transform="translate(1861,303)" d="m0 0h1v13l-4 68-2 30-4 26-2 3-1-2-1-12-2-43-3-61v-19l18 1z" fill="#F8FBFC"/>
<path transform="translate(1208,703)" d="m0 0 5 3v8h2l3 34v6l-4 4v5l6 7 1 20 1 14 4 16v4h-21v-118z" fill="#FCFDFD"/>
<path transform="translate(519,965)" d="m0 0 7 2v8l-2 2-1-6-10 9-3 8-6 27-3 9-9 13h-2l-5-15-5-24-24-1 1-2h2l2-9 3-11 7-2 9-6 2 11v6h-2l1 9 5 1 3 3v2l7-6 6-12 3-12 3-1 7-1z" fill="#C4E0F0"/>
<path transform="translate(928,800)" d="m0 0 2 2 2 20v6l-1-3-12 1-2 6-5 27-4 5-6 23-7 34-3 7-5 1-4-6-4-18-6-43-2-10v-6h3l3 17 4 19 4 10 6-1 3-6 6-26 2-2v-11l2-7 6-2 1-6-4-5 1-2 7-1 2-2 1-5 6-2 1-1v-6l-4-3v-2z" fill="#C5E0F0"/>
<path transform="translate(1376,575)" d="m0 0 3 1 2 9 2 26 2 27-1 1v6l2 3v6l-1-2-17 1-4 21-4 13-4 22-2 17h-4l1-14 3-28 1-5 5-1 1-5-1-4-3-1 1-12 4-16 3-9 5-42 5-5v-8z" fill="#C7E1F0"/>
<path transform="translate(763,825)" d="m0 0h30l-5 25-4 27-1 6 1 4-4 1-1 2v6l4 3-1 7-7 2-1 6h-4l-2-10v-5l6-3v-6l-5-4 1-4-1-5-5-1 1-4 1-1v-16l-5-29z" fill="#FDFDFD"/>
<path transform="translate(1363,598)" d="m0 0h1v12l-3 22-5 15-4 21-2 7v10l-1 5-1 18-4 25-2 2-1-3-3-2-2-9-2-19v-6h2l-1-7-2-2-4-37v-3h2l1-2v5h20l1-13 4-20 5-16z" fill="#FCFDFD"/>
<path transform="translate(1945,70)" d="m0 0h1v38h-4l-1 5-4 12-4 21-5 37-3 14h-1v-15l4-29 3-17-38 1 1 4 2 33-1 5-2-3-5-10-4 2-4 13-5 26-6 20-2-1v-15l3-17 6-23 3-13 3-22 6-1 43-1 4-31 6-25 3-7z" fill="#C2DEF0"/>
<path transform="translate(1095,665)" d="m0 0 2 1 6 35 1 17-3-1v-9l-3-1-3-8-9 9-3 12-2 9-3 15-5 12-5 25-2 11v10l-3 5v10h-6l-4-2-1-2-5-45-1-12h4l5 33 3 12 3-4 3-9 3-15 3-29 4-21-4-4 1-6 3-2 5-1 6-25 6-15z" fill="#C5E0F0"/>
<path transform="translate(458,971)" d="m0 0 4 1v2h2l-1 9-4 12-5 3-11 32-3 7-3 1-5-3-5-11-5-18-2-8-15-1v-1h15l-4-12v-2h-4l1-5 6 2h4l5 15 4 6h6l5-8 4-12 9-2z" fill="#C4E0F0"/>
<path transform="translate(978,472)" d="m0 0h1v6h222v1h-222v171h166l2-6 4-9h2l5 15 9 1v1h-9l2 13 3 1-5-1-2-4-5-1-3 2-1 4 1 7-8 16-3 18-4 4 1 7-6-3 2-10 5-12 2-8 4-27 2-7h-164v72l-2 1v-72l-2-2h2v-170l-2-2h2v-5z" fill="#E1E2E4"/>
<path transform="translate(698,833)" d="m0 0 3 1 4 11 7 36 1 11h-5l-2-5-3-12-3-6v-2l-4 1-8 11-3 10-3 12-6 3-2 7-3 3 1 9-3 2h-7l-1-4h3l5-12 6-27 5-12 3-5 6-20 7-10z" fill="#C4E0F0"/>
<path transform="translate(868,764)" d="m0 0h2l5 22 5 30v8l2 1v13l-4-1-2-6-4-22-3-11-5 3-7 14-6 21-4 8-5 16-2 7-4-1 4-21 5-25 6-16 5-16 5-15 4-6z" fill="#C4E0F0"/>
<path transform="translate(358,915)" d="m0 0h2l5 12 8 28v5l-4-2h-6l-3-4v-2l-7 3-6 7-5 5-5 7-2-1v-2l-6-1 4-16 5-13 13-18z" fill="#C5E0F0"/>
<path transform="translate(755,818)" d="m0 0 3 1 4 8 5 28v11l-5-4-3-6-7-1-4 4-6 11-6 7-5 10-1 9h-3l1-12 4-23 4-17 6-9 6-8 2-6z" fill="#C4E0F0"/>
<path transform="translate(302,927)" d="m0 0 4 2 5 15 5 19v6l-5-2-10-2-5 2-7 5-3 4-11-1-1-4 5-18 4-8 13-12 5-5z" fill="#C4E0F0"/>
<path transform="translate(1140,723)" d="m0 0h5l-3 21-4 21-4 13-4 20-4 26h35v1l-35 1-6 26-4 2-4-3-5-14-1-9 6-1 2-2v-5l8-7 2-3v-5l-1-5 3-16 2-2v-6l-1-5 4-23 4-14z" fill="#C7E0F0"/>
<path transform="translate(639,855)" d="m0 0 5 1 7 27 5 20 1 10-4-3-1-5-5-2-4-13h-4l-7 8-8 20-4 3-2 4-5-1 3-17 5-13 8-18 6-16 2-4z" fill="#C4E0F0"/>
<path transform="translate(1616,458)" d="m0 0h1v20h17v-7h1v12l-3 40-1 7v15l-4 24-3 4h-2l-2-19-2-42v-17l5-3v-5l-6-4-1-4z" fill="#F6F9FB"/>
<path transform="translate(1486,438)" d="m0 0 5 1 2 2 3 19 2 12v6h31l5-19h1v11l-4 29-5 18h-1v-12l3-22 1-3h-31v7l-1-2-4-2-1-2-3 1-4 8-7 26-1 2-2 16-5 16h-1v-12l2-19 6-23 5-25 6-19 1-1-4-1-3-4 1-6z" fill="#C7E0F0"/>
<path transform="translate(582,948)" d="m0 0 4 2 3 4 8 38v4h-35l-1-2 7-21 11-18z" fill="#FDFDFD"/>
<path transform="translate(1883,809)" d="m0 0h1v15l4-1 40 1v1h-44v170h100l43 1v1h-133l-10-1v112h-1l-1-6v-92l1-13-3-1 2-1 1-170h-207l1-2h205v-13z" fill="#E1E2E4"/>
<path transform="translate(1038,693)" d="m0 0 2 1 5 18 4 28v4l-4 1-2-5v-12l-1-1h-7l-7 16-8 23-4 11-2 9-2-2v-12l3-20 5-19 8-21 7-16z" fill="#C5E0F1"/>
<path transform="translate(1717,256)" d="m0 0h3l4 33 1 18h32l1-8h1v19l-2 13-3 9h-1v-12l3-20h-31v16h-1l-5-30h-3l-2 5-4 13-5 25-4 24-3 11-2-2 1-14 3-19 5-22 1-7h-91v-1l91-1 4-22 5-21z" fill="#C9E0EE"/>
<path transform="translate(845,874)" d="m0 0 8 2-1 7-5 19-5 26-5 16-4 4-4-2-4-10-4-21-2-15v-6h3l6 18v2l7-4 4-11 5-23z" fill="#C4E0F1"/>
<path transform="translate(1424,569)" d="m0 0 4 2 7-1 4 4 2 16 3 39v5l-4 3v8l5 2v3h-15v-71l-1-1h-6l-2 1 1-7z" fill="#FAFCFD"/>
<path transform="translate(1886,210)" d="m0 0 5 1 1 3 3 56v37h-11v-88z" fill="#FAFCFD"/>
<path transform="translate(1902,307)" d="m0 0h14v14l-3 42-4 40-2 2-2-13-1-11-3-59v-14z" fill="#F6FAFC"/>
<path transform="translate(1206,666)" d="m0 0 4 1 3 23 1 11v13h-1l-1-8-4-2h-2l-3 9-9 16-4 18-3 20-1 2h-3l1-16 5-44 1-3 4-2v-8l4-2 1-4-1-6 3-5 4-3v-9z" fill="#C5E0F0"/>
<path transform="translate(1772,253)" d="m0 0 2 4 3 39v12h-10l-1 16-4 38-6 36-4 34h-1v-11l3-48 3-27 5-23 5-49 4-19z" fill="#C2DEEF"/>
<path transform="translate(1886,173)" d="m0 0 3 2 1 4 1 16v16l-5-1-1 9-1 63h-1l-1-8v-42l-10 42-3 21h-1v-24l2-27 5-25 5-17 5-28z" fill="#C7E0EF"/>
<path transform="translate(1020,808)" d="m0 0 1 3-3 13h29l1-2 1 3-30 1-2 10-5 37-5 16-5 9-3-1-4-15-3-24v-14l2 4 4 13 3 1 7-14 4-16 2-2v-16l2-5z" fill="#C5E0F0"/>
<path transform="translate(1715,306)" d="m0 0h2l2 10 1 10v13h-2l-3 10-5 26-6 33-4 21-4 33h-1v-11l2-36 4-39 5-22 7-41z" fill="#C5E0F0"/>
<path transform="translate(1543,451)" d="m0 0h5l1 10-5 2-1 1 1 7 6 1 1 6-2 2h-4v6h-2l-2 13-5 34-6 26-2 5 4-2 5 1 2 3-1 6-3 2-5-1-2-1-2 24h-1v-14l1-17v-15l5-38 4-14 5-39 2-7z" fill="#C6E0F0"/>
<path transform="translate(822,825)" d="m0 0h22l-2 14-4 22-4 14-3 3-3 5h-3l-3-16v-8l4-4-2-6-2-17z" fill="#FDFDFD"/>
<path transform="translate(1660,392)" d="m0 0h4l2 5 3 49v33l-11-1v-78z" fill="#FAFCFD"/>
<path transform="translate(1945,113)" d="m0 0h1l1 26-2 14-4 15-10 63-4 19-2 18h-1v-16l2-34 3-21 4-21 5-36 4-20z" fill="#C4E0F0"/>
<path transform="translate(981,722)" d="m0 0 4 1 3 5 4 25 1 8v15l-4-4-3-11-2-2 1-4 3-5-3-5-6 1-7 7-4 2-1 4 1 3 5 2-2 7-7 2-1 6 1 4-5 6h-2v-8l5-27 6-10 10-20z" fill="#C5E0F0"/>
<path transform="translate(1264,650)" d="m0 0 3 1 2 15v14l-2-1-3-7-9 27-1 7h2l1 2v6l-5 3-5-2-1 16-4-1v-9l4-33 4-13 5-15 2-1 5 1 3-3z" fill="#C5E0F0"/>
<path transform="translate(1319,610)" d="m0 0 2 1 3 26-3 4 1 5 3 2v9h-1v-5h-8l-2 11-4 23-4 13-3 7-5-1 2-18 2-10 6-2v-7l-4-2 3-9 3-13 4-22z" fill="#C6E0F1"/>
<path transform="translate(1659,357)" d="m0 0h3l2 10 1 14v13l-1-2h-4l-2 13-2 6-6 21-7 21h-2l1-20 3-25 5-16 2-3 4-2v-6l-1-1v-7z" fill="#C5E0F0"/>
<path transform="translate(1072,813)" d="m0 0h1v7l-1 4h30v1h-30l-3 23-5 21-4 6-4 2-4-13-3-20-1-8v-9l2-1 5 14 2 1 5-5 4-11 2-9 4-1z" fill="#C5E0F0"/>
<path transform="translate(1604,417)" d="m0 0h2l3 13 2 26v22h-17v-13l3-26z" fill="#FBFCFD"/>
<path transform="translate(1655,312)" d="m0 0 7 1 5 8 1 5 3 49v22h-1l-2-30-2-10-4-7-4 2-5 2-1 7-3 2-5-1-2-2v-6l3-3 5-1 5-25v-2l-3-3v-5z" fill="#C5E0F0"/>
<path transform="translate(1434,500)" d="m0 0 4 1 3 6 2 17 2 31v9l-2-1-2-19-4-8v-2l-5 1-3 4-3 10-1 1-7 1-2 1 2-9 7-20 4-18z" fill="#C5E0F0"/>
<path transform="translate(1577,584)" d="m0 0 3 1-1 17-5 40-1 5 4 2 1 1v6l-5 3-5-2-2-4-6-1 3-2 2-1-5-30v-22h1l3 14v3l7-3 2-5 3-21z" fill="#C4E0F0"/>
<path transform="translate(1320,562)" d="m0 0 6 1 2 3-1 6-3 3 3 15 4 38v10l-3-1-5-34v-4l-5 4-3 5h-7l1-11 4-19-1-5 4-5 3-5z" fill="#C4E0F0"/>
<path transform="translate(1406,645)" d="m0 0h1l-1 17-1 10v12l-3 18-4 15h-2l-3-22-1-18-1-27h15z" fill="#F7F9FB"/>
<path transform="translate(1656,406)" d="m0 0h1v72h-16v-15l2-1 1-5-1-7 9-27z" fill="#FDFDFD"/>
<path transform="translate(1882,228)" d="m0 0h1v79h-15v-12l3-21 8-33z" fill="#FEFEFE"/>
<path transform="translate(1095,665)" d="m0 0 2 1 6 35 1 17-3-1v-9l-3-1-3-8-5 5-5 1-3 9-2 8-6 1-4-4 1-6 3-2 5-1 6-25 6-15z" fill="#C4E0F0"/>
<path transform="translate(750,909)" d="m0 0h1l1 86h225v-5l2-1v6l2 1-1 1-1 111h-1l-1-30 1-81h-227v112h-1v-112h-84v-1l83-1z" fill="#E1E2E4"/>
<path transform="translate(1605,337)" d="m0 0 2 3 3 15 2 17v16h5v1l-7 1-2-6-3-12-3 3-8 25h-1v-12l2-21 2-8-3-1v-2h-2l-2-3v-5l3-3h5l3 2 1-5z" fill="#C4E0F0"/>
<path transform="translate(1657,405)" d="m0 0h1v73h7l4 1v-15h1v16h-12v170h67v1l-66 1-1 170h-1l-1-170-77-1-1 4v-5h79v-170h-17v-16h1v14h16z" fill="#E1E2E4"/>
<path transform="translate(1945,70)" d="m0 0h1v38h-4l-1 5-4 12-4 21-5 37-3 14h-1v-15l4-29 3-17h-42v-1l42-1 4-31 6-25 3-7z" fill="#C6E0EF"/>
<path transform="translate(1151,635)" d="m0 0h2l5 15 9 1v1h-9l2 13 3 1-5-1-2-4-5-1-3 2-1 4 1 7-8 16-3 18-4 4 1 7-6-3 2-10 5-12 2-8 4-27 3-8z" fill="#C5E0F1"/>
<path transform="translate(1089,716)" d="m0 0 6 2 2 10 3 19 1 12v13h-1l-5-29-1-2-6 15-1 7 1 5-4 5-5-1-3-3 1-6 3-1-2-9 4-9 2-10 6-3 1-1v-5l-4-4z" fill="#C5E0F0"/>
<path transform="translate(1182,781)" d="m0 0h3v10l-4 35-4 12-5 10-3-1-1-12-4-1-3-3 1-6 3-4 2-3 1 1 7-1 1-6-3-3 3-9 4-4v-9z" fill="#C4E0F0"/>
<path transform="translate(1296,734)" d="m0 0h2l1 3-5 43-5 21-3 5h-3l-4-14-2-10-1-15v-16h1l4 17v3l-1 1v6l6 2 4-1v-6l-5-5 4-5 3-8 2-3v-12z" fill="#C4E0F0"/>
<path transform="translate(1265,595)" d="m0 0 2 1 4 16 2 14v9h-6l-1-5-7 3-5 1-4-4 1-6 3-1v-7l7-16z" fill="#C4E0F0"/>
<path transform="translate(1831,147)" d="m0 0h2l5 34 1 19v22h-1l-2-18-3-18-2-4-2 2-8 30h-1v-20l2-15z" fill="#C5E0F0"/>
<path transform="translate(1675,473)" d="m0 0h1v5h10l2 1v10l-2 28-4 25-2 2-2-12-1-12-1-26-1-15z" fill="#F6F9FB"/>
<path transform="translate(980,799)" d="m0 0 7 1-1 10 3 3 1 4v9h-10l-1 163h-1v-164h-12l2-5 8-13z" fill="#E1E2E4"/>
<path transform="translate(1488,494)" d="m0 0 3 1v9l3 5 1 13v11h-1l-1-8h-2l-5 16-5 22-8 1v-10l8-28 5-2 1-5-4-4 1-7 3-13z" fill="#C4E0F0"/>
<path transform="translate(1038,746)" d="m0 0h2l3 17 1 14-4-1-2-5-6 12-5 15-4 8-2-3-1-3-3-1v-6l7-2 5-6v-6l-9-1 2-9 3-7 10-1v-8l-5-3 1-3z" fill="#C5E0F0"/>
<path transform="translate(244,935)" d="m0 0 4 1 4 8 7 24 1 9h-8l-6-8-5 1-1-1v-32z" fill="#C4E0F0"/>
<path transform="translate(1378,604)" d="m0 0 2 3 1 6h2l2 25-1 1v6l1 5h-17l1-17 4-17z" fill="#FBFCFD"/>
<path transform="translate(1691,511)" d="m0 0h1v27l-3 25-4 20-3 9h-3l-4-31v-16h1l1 12 4-1 5-15z" fill="#C4E0F0"/>
<path transform="translate(1428,595)" d="m0 0h1v55h-15l3-23 6-20z" fill="#FEFEFE"/>
<path transform="translate(1861,406)" d="m0 0h1v21l-2 26-5 31-3 18h-3l-1-3-2-33v-9h1v5h4l9-45z" fill="#C7E1F1"/>
<path transform="translate(1419,584)" d="m0 0 2 1v2h9v6l-6 14-6 20-2 13h-2l-3 59-1 4h-3l1-12 6-73 2-9v-12l2-12z" fill="#C7E1F0"/>
<path transform="translate(1746,482)" d="m0 0h1l1 20-4 37-2 8-4 4h-2l-3-16-2-15v-7l2-4 2 7 3 1 2-6 3-7z" fill="#C4E0F1"/>
<path transform="translate(1347,737)" d="m0 0h6l-1 17-2 13 1 5-3 4h-2l-2 5-4 1-4-9-2-10-1-20 4-1-1 11 3 2 7-1-1-8v-3z" fill="#C4E0F0"/>
<path transform="translate(1774,204)" d="m0 0h2l1 3 3 38 1 10 1 37h-1l-3-34-2-20-3 1-6 18-3 12h-1v-15l2-16 7-28z" fill="#C7E0F0"/>
<path transform="translate(1917,372)" d="m0 0h1v22l-2 24-5 28-3 13-3-1-3-35v-10h1v8l5-1 5-20z" fill="#C6E0F0"/>
<path transform="translate(531,941)" d="m0 0h2l2 7v9l-4 5-2 4-7 1-3-1-6 3-7-1-1-3 3-11 5 2 1-5 3-2 5 1h3l2-2 1-5z" fill="#04060C"/>
<path transform="translate(479,967)" d="m0 0h1l2 11v6h-2l1 11-1 1h-23l2-1 2-9 3-11 7-2z" fill="#FDFDFD"/>
<path transform="translate(1161,706)" d="m0 0 2 1 3 28 3 22 2 11h2l3-10 2-7 2 4-1 11-2 6v13l-1 3-5 2-1 3h-2l-2-16-5-59-1-11z" fill="#C6E0F0"/>
<path transform="translate(1819,292)" d="m0 0h1v15h17v-14h1v16l-18-1v9l-3 23-5 27-4 35h-1v-14l2-35 5-43z" fill="#C7E0EF"/>
<path transform="translate(476,952)" d="m0 0h2l2 14-4 5-7 4-7-1-1-2-3-1v6l-5 3-6-1 3-10 5-8 4-3 4-1 5 3 4-2 3-3z" fill="#040409"/>
<path transform="translate(585,921)" d="m0 0h3l2 10 1 9-4 3-3 5-3 1-5-2h-3l-3 5-4 4h-4l2-10 4-9 6-6h11l-2-3 1-6z" fill="#04060B"/>
<path transform="translate(1498,508)" d="m0 0h2l2 16 3 39 1 19 4 26v5l2-1 4-16h1v18l-5 30-2 1-4-25v-18l-1-2-4-55z" fill="#C6E0EF"/>
<path transform="translate(1459,681)" d="m0 0h6v10l-4 24-4 4-6-1-2-3v-7l-1-5v-14l2-1 2 4h2z" fill="#C4E0F0"/>
<path transform="translate(881,825)" d="m0 0h14l2 1v7l2 3-1 11-4 2-1 2v7l-5-1v-2l-8-1-1-4 5-5-2-7z" fill="#FBFCFC"/>
<path transform="translate(1603,384)" d="m0 0 2 2 2 15 1 26h-1l-1-10h-2l-2 9-4 13-2 14-1 2-1 9h-1v-12l2-29 1-11 2-12z" fill="#C6E0F0"/>
<path transform="translate(412,964)" d="m0 0h6l3 4 2 11-5 1-4-2-4 6-7-1-2-2v-4l-4 1 1 1v6l-2 2h-5l3-12 4-8 1-1h5 4z" fill="#04070E"/>
<path transform="translate(1220,774)" d="m0 0h1l3 13v4l4 1 2 2h8v7l-5 17-4 7h-3l-4-17-2-18z" fill="#C4E0F0"/>
<path transform="translate(1363,598)" d="m0 0h1v12l-3 22-5 15-3 15h-1v-10h-13l-6-1 3 25v13l-3-2-4-37v-3h2l1-2v5h20l1-13 4-20 5-16z" fill="#CAE1EF"/>
<path transform="translate(1548,394)" d="m0 0 2 2 5 44 1 23-2 2-5-39-4 3-8-1 5-21 5-12z" fill="#C6E0EF"/>
<path transform="translate(366,957)" d="m0 0 5 1 3 5v2l5 3 1 6h2l1-3 10-2-6 16-3 3-6-1-6-4-2-7-4-9-2-9z" fill="#04060D"/>
<path transform="translate(709,891)" d="m0 0 5 2 2 5 3 3v5h3l1-4 5-6h2l-1 11-3 9-2 1-2 7-5 2-4-2-1-7 3-3 1-5h-6l-3-17z" fill="#040409"/>
<path transform="translate(275,974)" d="m0 0h6l3 3-5 10-2 5-2 1 1 4-3 5h-6-4-5l-2-10 4-5 5-1 3 1 2-5 3-5z" fill="#04050B"/>
<path transform="translate(319,982)" d="m0 0 9 1 3-1 1 7-4 14-4 8-4 2-4-10-4-20z" fill="#C6E0F0"/>
<path transform="translate(1090,1171)" d="m0 0h3l1 11 3-4h8v2l-7 1v2l7 3 1 1v5l-3 2h-7l-2-2-1 2h-11l-3-3-1-7 3-5 1-1h7z" fill="#040409"/>
<path transform="translate(1558,501)" d="m0 0h1l4 42 4 24 2 6 3 1v13l-3 20-2-1-3-12-1-7v-13l-1-2-2-30-2-29z" fill="#C6E0EF"/>
<path transform="translate(1392,728)" d="m0 0 2 1v2h3l3 5 6 1v8l-5 15-3 6-2-1-3-11v-7l-5-1-1-7 3-3z" fill="#C4E0F0"/>
<path transform="translate(1829,197)" d="m0 0 2 1 2 13 1 17v11h-1l-1-10-3 9-5 18-1 6h-1v-25l2-19z" fill="#C6E1F1"/>
<path transform="translate(697,893)" d="m0 0 7 1 1 11h-5l-1 5-6 2h-2l-2 6-5 2-7 1 1-5 4-8 4-6 6-2 3-6z" fill="#04070D"/>
<path transform="translate(1336,689)" d="m0 0 2 3 4 12h2l3-14h1v18l-4 25-2 2-1-3-3-2-2-9-2-19v-6h2z" fill="#C4E0F0"/>
<path transform="translate(358,962)" d="m0 0h3l3 12-1 4-4 7-5 1-4-2-1-5-8 7-4 1 1-6 3-6 7-8 7 2 3-1-1-4z" fill="#04080F"/>
<path transform="translate(307,966)" d="m0 0 6 1 4 3v2h2v-2h14l3 3-1 8-2 5h-2l-1-3-5 1-6-1h-6l-3-5z" fill="#04070E"/>
<path transform="translate(926,786)" d="m0 0h2l1 14-6 2h-2v2l4 2 1 1v6l-3 3h-5v5l-3 3h-6l3-9 1-2h2v-6l1-1-2-1 1-10 4-2 3-3h3z" fill="#04060C"/>
<path transform="translate(936,787)" d="m0 0h1l2 25v12h14l1-3v8l-5 5v6l3 2v6l-9-2 1-7-7-8-4-32v-5l2-1z" fill="#FCFCFC"/>
<path transform="translate(1220,716)" d="m0 0h2l1 2 3 21 2 10 4-2h3l-1 13-5 20-3 1-2-11 3-2 1-5-5-6-3-28z" fill="#C6E0EF"/>
<path transform="translate(1392,660)" d="m0 0h1l4 24 1 5 4-16 2-4 1 3v12l-3 18-4 15h-2l-3-22-1-18z" fill="#C5E0F0"/>
<path transform="translate(1657,405)" d="m0 0h1v73h7l4 1v-15h1v16h-12v169h-1v-169h-17v-16h1v14h16z" fill="#E1E2E4"/>
<path transform="translate(648,904)" d="m0 0 4 1 3 6 6 8 1 5h9l-1 10-1 4-8-1-5-4-1-5-3-1-4-18z" fill="#04050B"/>
<path transform="translate(756,864)" d="m0 0h2l4 20v2h-2l-1-5-7 1v6l-6 4-7 2h-4l1-8 1-3 6-4h6l1-7 5-1v-6z" fill="#04070D"/>
<path transform="translate(470,933)" d="m0 0 4 4 2 8v10l-6 6-4-2-7-1 2-10 3-9z" fill="#C4E0F0"/>
<path transform="translate(1276,702)" d="m0 0h3l3 15 3 10 2 1 3 6v8l-5 5-1 4 2 4v6l-2 1-4-16z" fill="#C7E1F0"/>
<path transform="translate(809,838)" d="m0 0h5l1 11h-4l2 2 3-1 1 11-5-1v-2l-6 5-7 1-4-1 2-6 6-9h5l-1-7z" fill="#04060D"/>
<path transform="translate(1302,627)" d="m0 0 6 3-3 21-6 16-2 3v-14l1-5h-24l2 14v9l-2 2-2-13v-13h27l1-13z" fill="#C6E0F1"/>
<path transform="translate(538,941)" d="m0 0 9 3 3 5 2 1 2-4 1-1h5l-2 11-4 5-4 2-6-1-2-2-2-7-2-5-1-6z" fill="#04040A"/>
<path transform="translate(642,906)" d="m0 0h2l3 13-1 4-5 3-3 2h-8l-6 2-1 4h-2l1-6 3-6 5-8h8l2-2z" fill="#04070F"/>
<path transform="translate(1882,274)" d="m0 0h1l1 8v25h11v-15h1v17l-12-1v143h-1l-1-98v-38l1-7h-16v-12h1v11h15l-1-2z" fill="#DDE1E5"/>
<path transform="translate(1087,704)" d="m0 0v3l-2 7-4 12-1 10-4 13-3 7-4 16h-1v-9l3-25 3-14 6-2 2-10 3-7z" fill="#C6E1F1"/>
<path transform="translate(526,929)" d="m0 0 4 1 2 5v6l-4 4-1 5h-2l-1 2-3-2-6 1-2 5-4-2 1-7 7-8z" fill="#C7E1F0"/>
<path transform="translate(1630,592)" d="m0 0 3 1-1 12-6 26-1 2-3-1-3-25v-9l4 2 5-1 2-2z" fill="#C4E0F0"/>
<path transform="translate(523,970)" d="m0 0h1v26h-16l2-12 4-6z" fill="#FEFEFE"/>
<path transform="translate(1460,633)" d="m0 0h1v16l-4 23-2 8-2-1-3-16-1-20 3-3 1 9h3z" fill="#C4E0F1"/>
<path transform="translate(1882,167)" d="m0 0 1 3-3 11-5 26-6 20-2-1v-15l3-17 3-12h3l4-13z" fill="#C4E0F1"/>
<path transform="translate(526,967)" d="m0 0 6 2 3 8 3 14v5h-13v-15z" fill="#FEFEFE"/>
<path transform="translate(1103,728)" d="m0 0 2 1 6 39 4 12 2 1 1-4 1 6 2 1v4l-6-2-6 2-2-10-5-40v-9z" fill="#C7E0F0"/>
<path transform="translate(1470,588)" d="m0 0h5l-2 1-1 18-4 41-1 2h36v1l-35 1-2 18h-4l2-16 4-42 1-17z" fill="#D5E1E9"/>
<path transform="translate(445,962)" d="m0 0 4 1-9 27-4 1-3-5-5-2-2-9 2-1h9l2 1 1-4 2-1 2-7z" fill="#04050A"/>
<path transform="translate(1519,668)" d="m0 0h9l3 4-1 5-2 2h-9l1 2v6l-5 3-5-2-1-7 3-3 3-1v-6z" fill="#04060C"/>
<path transform="translate(841,860)" d="m0 0h2l-4 24-4 8-9 2-1-4v-7l4-2 3-6h2l1-7 5-1z" fill="#040409"/>
<path transform="translate(304,1132)" d="m0 0h6l3 3 1 3v8l-3 5-3 2-5-1-3-3-1-9 3-7z" fill="#050307"/>
<path transform="translate(85,985)" d="m0 0 7 1 3 6v7l-3 5-3 2-5-1-3-3-1-3v-7l3-6z" fill="#040409"/>
<path transform="translate(614,936)" d="m0 0 1 4-5 21-4 9-4-2-4-15v-5l6 2 4-2 2-8-2-2z" fill="#CAE1F0"/>
<path transform="translate(87,813)" d="m0 0 7 1 3 6v7l-3 5-2 2-7-1-3-6v-7l2-5z" fill="#04050B"/>
<path transform="translate(87,124)" d="m0 0 7 1 3 6v7l-3 5-2 2h-5l-4-4-1-10 3-6z" fill="#050307"/>
<path transform="translate(530,1132)" d="m0 0 7 1 3 7-1 8-5 5-5-1-4-5v-9l3-5z" fill="#04050B"/>
<path transform="translate(285,1132)" d="m0 0h6l4 4 1 8-3 7-3 2-5-1-3-3-1-3v-8l3-5z" fill="#040308"/>
<path transform="translate(104,641)" d="m0 0 5 1 3 3 1 2v10l-4 5h-6l-4-4-1-7 2-7z" fill="#04080F"/>
<path transform="translate(1870,1132)" d="m0 0 7 1 3 6-1 9-5 5-5-1-3-3-1-3v-7l3-6z" fill="#040409"/>
<path transform="translate(737,1132)" d="m0 0h6l3 3 1 3v9l-4 5-5 1-5-5-1-7 2-7z" fill="#04070E"/>
<path transform="translate(103,985)" d="m0 0h6l3 3 1 3v9l-5 6-6-1-3-4-1-7 2-6z" fill="#04050B"/>
<path transform="translate(1143,692)" d="m0 0 7 1 3-1 1 5-2 3 1 7 3 2 1 7v11l-2-4-2-8h-3l-2 2-3-5-3-3v-10z" fill="#C5E0F0"/>
<path transform="translate(965,1132)" d="m0 0h6l3 4 1 9-3 6-6 2-5-4-1-10 3-6z" fill="#F8F8F9"/>
<path transform="translate(696,874)" d="m0 0 4 2 3 14v3l-8 2-3 6-5 1 1-11 3-10z" fill="#C7E0F0"/>
<path transform="translate(85,298)" d="m0 0 7 1 3 6-1 9-5 5-5-1-3-3-1-10 3-6z" fill="#040308"/>
<path transform="translate(755,1132)" d="m0 0h6l4 5v11l-5 5-6-1-3-4v-11z" fill="#F8F8F9"/>
<path transform="translate(122,985)" d="m0 0h5l4 5v11l-5 5-6-1-3-5v-10z" fill="#040308"/>
<path transform="translate(106,813)" d="m0 0 6 1 3 5v10l-5 5h-5l-4-5v-11z" fill="#F8F8F8"/>
<path transform="translate(86,641)" d="m0 0 5 1 3 3 1 10-3 6-7 1-4-4-1-9 3-6z" fill="#040409"/>
<path transform="translate(124,124)" d="m0 0h5l4 4v12l-5 5-6-1-3-5v-9l3-5z" fill="#F8F8F9"/>
<path transform="translate(105,124)" d="m0 0h6l3 3 1 3v9l-3 5-6 1-5-5v-11z" fill="#F8F8F9"/>
<path transform="translate(1190,1132)" d="m0 0h6l4 4v12l-3 4-5 1-4-2-2-4v-9l3-5z" fill="#04060C"/>
<path transform="translate(124,813)" d="m0 0 6 1 3 4v11l-4 5-7-1-3-5v-9l3-5z" fill="#F8F8F8"/>
<path transform="translate(123,641)" d="m0 0 5 1 3 4v11l-4 5h-6l-4-5v-10l2-4z" fill="#040409"/>
<path transform="translate(103,470)" d="m0 0h6l4 5v10l-4 5h-6l-4-4-1-7 2-7z" fill="#F9F9F9"/>
<path transform="translate(84,470)" d="m0 0h7l3 4 1 9-3 6-1 1h-7l-3-4-1-9 3-6z" fill="#040308"/>
<path transform="translate(121,298)" d="m0 0h6l4 5v11l-3 4-5 1-4-2-2-4v-10z" fill="#040308"/>
<path transform="translate(103,298)" d="m0 0h6l3 3 1 3v9l-4 5-4 1-5-3-2-9 2-6z" fill="#04070E"/>
<path transform="translate(1418,1132)" d="m0 0h6l4 5v10l-3 5-5 1-5-3-1-3v-10z" fill="#F8F8F9"/>
<path transform="translate(511,1132)" d="m0 0h6l4 5v11l-4 4-4 1-5-3-1-3v-10z" fill="#F8F8F8"/>
<path transform="translate(1644,1132)" d="m0 0h6l3 3 1 3v8l-3 5-5 2-5-3-1-2v-12z" fill="#050307"/>
<path transform="translate(302,969)" d="m0 0h2l3 9v3l-4 1-4 4-7 1-1 1-8-1 1-5 12-10 5-2z" fill="#04060D"/>
<path transform="translate(121,470)" d="m0 0h7l3 4v12l-4 4h-6l-4-5v-10z" fill="#F8F9F9"/>
<path transform="translate(1620,527)" d="m0 0h1l3 26 5-21h1l1 13-4 24-3 4h-2l-2-19z" fill="#C6E0EF"/>
<path transform="translate(865,817)" d="m0 0h5l2 11h-2l1 5 2 1 1 11-5-1-3-5v-2l-5-1-2-2v-6l3-3 2-7z" fill="#04050A"/>
<path transform="translate(1762,352)" d="m0 0 1 2-4 26-3 18-4 34h-1v-11l3-48 1-10h1l1 5 2-13z" fill="#C4E0F0"/>
<path transform="translate(894,848)" d="m0 0h4l-1 9-3 12-2 1-9-1-2-4-1-11h6l3 3h3v-6z" fill="#04070E"/>
<path transform="translate(981,744)" d="m0 0 5 1 3 5-3 5-2 2-8 3-3 4-5-1-2-5 3-5 5-3z" fill="#04050B"/>
<path transform="translate(1378,525)" d="m0 0 2 1 5 23v1l-7 2-1 2-8 1 2-9 5-15z" fill="#C2DFF0"/>
<path transform="translate(1677,494)" d="m0 0h1l3 23 4-18 2 4-1 14-4 25-2 2-2-12-1-12z" fill="#C4E0F1"/>
<path transform="translate(1789,404)" d="m0 0h1l4 28 2 11 1-8h1v10l-2 21-2 3-2-11-3-25z" fill="#CAE0EE"/>
<path transform="translate(1362,674)" d="m0 0 1 3-4 15-4 26-1 8h-4l1-14 3-28 1-5 5-1z" fill="#C4E0F0"/>
<path transform="translate(1630,571)" d="m0 0 4 2v7l4 4v6l-5 3-2 1-1 4-4 3-5-1-2-2v-6l2 1 1 3h2l2-6h2l-1-6 1-4z" fill="#04080F"/>
<path transform="translate(1733,450)" d="m0 0h1l4 25v3l2-5 1-5h1v10l-3 27-2 1-3-18-1-13z" fill="#CCE0ED"/>
<path transform="translate(412,946)" d="m0 0 3 1 4 13v4l-9 2-5 2-4-2 2-5 4-9z" fill="#C4E0F0"/>
<path transform="translate(852,856)" d="m0 0h5l3 4-1 6-3 3-1 5-2 2-7-1-2-1 2-13 2-3z" fill="#04050A"/>
<path transform="translate(1211,630)" d="m0 0 6 2 1 7-3 3h-2l1 2v6l-4 3-7-2-1-6 3-4h3l-2-5 3-5z" fill="#04080F"/>
<path transform="translate(1250,630)" d="m0 0 4 3 5-1h3l-5 8-6 18-7-3 1-10z" fill="#C6E0F0"/>
<path transform="translate(1476,562)" d="m0 0 5 1 2 2v6l-3 3h-5l4 6v5l-3 3h-6l1-16 1-1v-6z" fill="#06080E"/>
<path transform="translate(264 1e3)" d="m0 0 9 1 1 2-3 11-5 7h-3l-4-11-1-8z" fill="#C5E0F0"/>
<path transform="translate(980,799)" d="m0 0 7 1-1 10 3 3v11h-10v-24z" fill="#FDFDFD"/>
<path transform="translate(540,954)" d="m0 0h2l2 7 6 1 5-3 2 1-3 13-5 9-2 1-4-11z" fill="#CAE2F1"/>
<path transform="translate(369,975)" d="m0 0 3 2 2 7 6 3 6-1-1 7-4 10-4 2-4-8-4-18z" fill="#CFE4F0"/>
<path transform="translate(1151,659)" d="m0 0 5 1 3 5 6 2 1 2v6l-3 2h-6l-3-6-7-2-1-4 3-5z" fill="#04060D"/>
<path transform="translate(937,832)" d="m0 0 4 2 4 5-1 6 6 2 2 2-1 9-4 1-6-3-1-1v-7l-2-2z" fill="#04050B"/>
<path transform="translate(1534,459)" d="m0 0h1v11l-4 29-5 18h-1v-12l3-22 1-3-4-1 4-1z" fill="#C4E0F1"/>
<path transform="translate(653,927)" d="m0 0 3 1 2 6 6 3 4 1-2 10-3 8h-3l-4-10-3-15z" fill="#C4E0F0"/>
<path transform="translate(71,124)" d="m0 0h5v3l-7 1-2 3 6-1 4 2 1 2v7l-4 4h-5l-4-4-1-3v-7l4-6z" fill="#040409"/>
<path transform="translate(240,984)" d="m0 0h7l3 3 3 10v3h-7l-2-4-3 1-5-4v-6z" fill="#040810"/>
<path transform="translate(1077,755)" d="m0 0h2l1 7-3 3 1 5 6 3-1 8-4 7-1 5h-1l-2-6-3-1 1-12z" fill="#CBE3F1"/>
<path transform="translate(1379,550)" d="m0 0h6l3 4-1 5-4 3-7 1-3 3-5-3v-6l3-3h6z" fill="#04050B"/>
<path transform="translate(1711,330)" d="m0 0 1 2 2 1-4 22-2 7-4 19-2 19-2 1v-18l7-35 2-12z" fill="#F3F8FB"/>
<path transform="translate(773,1132)" d="m0 0h6l4 4 1 9-3 5-2 2-6 1-3-3 8-1 2-5-6 1-5-5 1-6z" fill="#040308"/>
<path transform="translate(724,916)" d="m0 0h2l-1 13-5 13-3 3-3-7-2-14 7 1 3-2z" fill="#CBE2F0"/>
<path transform="translate(594,930)" d="m0 0 6 2 8 8 1 2v6l-5 3-5-2-3-5z" fill="#040A12"/>
<path transform="translate(502,955)" d="m0 0 2 1-4 16-5 5h-6l-3-3v-5l7-7h8v-6z" fill="#050307"/>
<path transform="translate(1320,562)" d="m0 0 6 1 2 3-1 6-3 3-2 4-7 1-3-4 1-5 3-3 3-5z" fill="#04060C"/>
<path transform="translate(1242,745)" d="m0 0h1v11l-3 27-2 4v-2l-5-1 2-12 3-14 1-10z" fill="#C6E0F0"/>
<path transform="translate(1906,1132)" d="m0 0h6l4 5v10l-4 5-6 1-3-1v-2l9-2 2-5-4 2-5-1-3-3 1-7z" fill="#040409"/>
<path transform="translate(1135,707)" d="m0 0h2l-1 15-2 7-10-3-2-2v-6l4-3 5 1h2l-1-5z" fill="#04060D"/>
<path transform="translate(777,890)" d="m0 0h1l2 7 3 2-1 7-7 2-1 6h-4l-2-10v-5l6-3 1-5z" fill="#C5E0F0"/>
<path transform="translate(928,800)" d="m0 0 2 2 1 10v12h-13l3-7 4-4v-6l-4-3v-2z" fill="#FCFDFD"/>
<path transform="translate(996,810)" d="m0 0 3 2 1 7 2 1-2 5 2 4 5 3-1 7-6-1-3 1-2-13-1-14h2z" fill="#C9E1F0"/>
<path transform="translate(1855,397)" d="m0 0h1v17l-4 26-2 3-1-2-1-12v-28h1l1 17h2l1-10z" fill="#D7E1E8"/>
<path transform="translate(936,787)" d="m0 0h1l2 25v12h14l1-3v8l-3 3-1-3 2-4h-12l1 9-4-3-4-32v-5l2-1z" fill="#CBE0ED"/>
<path transform="translate(1587,449)" d="m0 0h2l-1 14-5 16-1 7h-1v-6h-25v-2h24l4-27z" fill="#CBE0ED"/>
<path transform="translate(1593,345)" d="m0 0h5l7 7v6l-4 3-4-1-3-2v-2h-2l-2-3v-5z" fill="#04050A"/>
<path transform="translate(1092,1171)" d="m0 0h1l1 11 3-4h8v2l-7 1v2l7 3 1 1v5l-3 2h-7l-2-2-1 2-2-1z" fill="#F0F1F1"/>
<path transform="translate(1433,540)" d="m0 0 4 2 1 7v14h-3l-3-2-5-1 5-19z" fill="#C5E0F0"/>
<path transform="translate(1579,434)" d="m0 0 6 1 5 6-1 7-2 2-5-1-7-8 1-5z" fill="#040308"/>
<path transform="translate(1657,405)" d="m0 0h1v73h7l4 1v-15h1v16l-13 1-17-1v-16h1v14h16z" fill="#D8E1E7"/>
<path transform="translate(825,857)" d="m0 0 2 3 4 11h3v4l-3 3-3 5h-3l-3-16v-8z" fill="#C9E1F0"/>
<path transform="translate(413,981)" d="m0 0 3 1 4 10v4h-16l2-6 5-8z" fill="#FDFDFD"/>
<path transform="translate(621,919)" d="m0 0 2 1-3 5-4 10-4 3h-5l-3-4 1-5 5-4 8-1z" fill="#040409"/>
<path transform="translate(583,913)" d="m0 0 3 3 1 5-3 3 1 7-5 1h-6l-6 5 2-5 5-8 7-10z" fill="#CEE3F1"/>
<path transform="translate(1380,561)" d="m0 0h5l3 25 2 26v19h-1l-3-28-2-22-1-9v-5l-3-3z" fill="#CCE0ED"/>
<path transform="translate(72,470)" d="m0 0h4v12l3 1-3 1v6h-3l-1-5-9-1 2-5z" fill="#050307"/>
<path transform="translate(1543,451)" d="m0 0h5l1 10-5 2-1 1-2 16-2 10-2 4v-10l4-30z" fill="#E2E9EE"/>
<path transform="translate(865,806)" d="m0 0 3 1 1 10-5 2-2 7-2 2v6l3 2h4l-2 9h-1l-2-6-7-1 4-18 4-10z" fill="#EAEEF1"/>
<path transform="translate(1503,718)" d="m0 0h7l5 3 1 7-3 3-7-1-5-4 1-7z" fill="#040308"/>
<path transform="translate(639,895)" d="m0 0 2 1 2 10-3 7-4 2-6-1 3-10z" fill="#C7E0F0"/>
<path transform="translate(1023,777)" d="m0 0 4 1 3 3-1 6-6 6h-6l2-13z" fill="#040A13"/>
<path transform="translate(753,859)" d="m0 0 4 1-1 5-1 6-4 1-2 7-7 2-4 1 4-7 7-10z" fill="#D0E5F2"/>
<path transform="translate(1263,639)" d="m0 0 2 1 2 10-2 1 1 6-4 4-5-1-1-1 1-9 4-2v-7z" fill="#06060B"/>
<path transform="translate(1126,727)" d="m0 0 6 1 1 2-4 10-4 17-2 15-3 2 1-11 4-25z" fill="#CCE3F1"/>
<path transform="translate(1428,560)" d="m0 0 6 1 3 2 2-1v11l-4-1v-2l-3 2-6-1-1-1 1-8z" fill="#040911"/>
<path transform="translate(777,906)" d="m0 0h5l-2 11-4 8h-3l-3-7v-4h4v-6z" fill="#04050B"/>
<path transform="translate(1819,292)" d="m0 0h1v15h17v-14h1v16l-18-1v9l-1 9h-2v7h-1v-31z" fill="#B4D5EA"/>
<path transform="translate(764,877)" d="m0 0h5l2 5-1 4 5 4v6l-5 3-3-1z" fill="#04050B"/>
<path transform="translate(1308,608)" d="m0 0h6l-2 9-4 13-5-2-1-1v-6l5-4-1-1 1-7z" fill="#04070D"/>
<path transform="translate(1451,640)" d="m0 0 2 4v18l4 3v7l-2 8-2-1-3-16-1-20z" fill="#DCE4EA"/>
<path transform="translate(1498,508)" d="m0 0h2l2 16 3 39 1 19 1 9h-2l-2-20z" fill="#CCE0ED"/>
<path transform="translate(1904,359)" d="m0 0h1l2 17 2 1 1 8v10l-2 10-2-3-2-21z" fill="#D3E1EA"/>
<path transform="translate(1773,283)" d="m0 0 3 1 1 12v10l-5 1-4-2z" fill="#F6FAFC"/>
<path transform="translate(1413,640)" d="m0 0 1 4-3 55-1 4h-3l1-12 4-50z" fill="#C4E0F1"/>
<path transform="translate(882,868)" d="m0 0 10 1h1l-1 9-3 10-3-3-3-9z" fill="#C5E0F0"/>
<path transform="translate(1053,815)" d="m0 0 10 2-1 8-3 9-2 1-4-13z" fill="#050307"/>
<path transform="translate(1640,372)" d="m0 0h6l3 5 1 4-2 7-2-1v-4l-4 1-5-5 1-5z" fill="#040308"/>
<path transform="translate(1871,1134)" d="m0 0 4 1 2 3v9l-2 3h-5l-2-3v-10z" fill="#F8F8F8"/>
<path transform="translate(965,1132)" d="m0 0h6l3 4 1 9-3 6-6 2-5-4-1-10 3-6zm1 2-3 3v10l2 3h5l2-3v-9l-3-4z" fill="#040308"/>
<path transform="translate(88,815)" d="m0 0 5 2 1 2v9l-4 4-4-2-1-2v-9z" fill="#F8F8F8"/>
<path transform="translate(88,126)" d="m0 0 4 1 2 3v9l-4 4-4-2-1-2v-9z" fill="#F8F8F9"/>
<path transform="translate(755,1132)" d="m0 0h6l4 5v11l-5 5-6-1-3-4v-11zm1 2-3 6 1 8 2 2 5-1 2-4v-6l-3-5z" fill="#050307"/>
<path transform="translate(103,470)" d="m0 0h6l4 5v10l-4 5h-6l-4-4-1-7 2-7zm1 2-3 4v7l3 5 5-1 2-8-3-7z" fill="#04060D"/>
<path transform="translate(124,124)" d="m0 0h5l4 4v12l-5 5-6-1-3-5v-9l3-5zm1 2-3 3v11l5 3 4-4v-8l-2-4z" fill="#040308"/>
<path transform="translate(105,124)" d="m0 0h6l3 3 1 3v9l-3 5-6 1-5-5v-11zm2 2-3 3-1 2 1 9 3 3 4-2 2-5-1-7-3-3z" fill="#050307"/>
<path transform="translate(1645,1134)" d="m0 0 4 1 2 2v10l-2 3h-5l-2-4v-8z" fill="#F9F9F9"/>
<path transform="translate(738,1134)" d="m0 0 4 1 2 2v10l-2 3h-5l-2-4v-8z" fill="#F8F8F9"/>
<path transform="translate(287,1134)" d="m0 0 4 1 2 3v8l-3 4-5-1-1-2v-10z" fill="#F8F8F9"/>
<path transform="translate(104,987)" d="m0 0 4 1 2 2 1 6-2 6-5 1-3-5 1-9z" fill="#F8F8F9"/>
<path transform="translate(86,987)" d="m0 0 4 1 2 3v8l-2 4h-5l-2-3v-9z" fill="#F8F8F9"/>
<path transform="translate(124,813)" d="m0 0 6 1 3 4v11l-4 5-7-1-3-5v-9l3-5zm1 2-3 3v11l3 3 5-2 1-2v-8l-2-4z" fill="#040308"/>
<path transform="translate(106,813)" d="m0 0 6 1 3 5v10l-5 5h-5l-4-5v-11zm1 2-3 3-1 2 1 9 3 3 4-2 2-5-1-7-3-3z" fill="#04040A"/>
<path transform="translate(122,644)" d="m0 0 5 1 2 3v8l-3 4-4-1-2-2v-11z" fill="#F8F9F9"/>
<path transform="translate(104,644)" d="m0 0 5 1 2 7-2 6-2 2-4-1-2-4v-7z" fill="#F9F9F9"/>
<path transform="translate(85,644)" d="m0 0h5l2 3v9l-3 4-4-1-2-3v-9z" fill="#F9F9F9"/>
<path transform="translate(86,300)" d="m0 0 4 1 2 3v8l-2 4h-5l-2-3v-9z" fill="#F8F9F9"/>
<path transform="translate(1192,1134)" d="m0 0 4 1 2 4v7l-3 4-5-1-1-2v-10z" fill="#F9F9F9"/>
<path transform="translate(531,1134)" d="m0 0 4 1 2 3v8l-3 4-5-1-1-2v-10z" fill="#F8F9F9"/>
<path transform="translate(305,1134)" d="m0 0 4 1 2 2v10l-2 3-5-1-2-3v-8z" fill="#F8F8F9"/>
<path transform="translate(1418,1132)" d="m0 0h6l4 5v10l-3 5-5 1-5-3-1-3v-10zm1 2-2 2-1 8 2 5 5 1 3-5-1-8-3-3z" fill="#04040A"/>
<path transform="translate(123,987)" d="m0 0 4 1 2 4v7l-3 4-5-1-1-1v-11z" fill="#F9F9F9"/>
<path transform="translate(85,472)" d="m0 0 5 1 2 3v8l-3 4-4-1-2-2v-10z" fill="#F8F9F9"/>
<path transform="translate(121,470)" d="m0 0h7l3 4v12l-4 4h-6l-4-5v-10zm1 2-2 3v10l2 3 5-1 2-3v-7l-3-5z" fill="#050307"/>
<path transform="translate(123,300)" d="m0 0 4 1 2 4v7l-3 4-5-1-1-1v-11z" fill="#F9F9F9"/>
<path transform="translate(104,300)" d="m0 0 4 1 2 2 1 6-3 7-5-1-2-4 1-9z" fill="#F9F9F9"/>
<path transform="translate(511,1132)" d="m0 0h6l4 5v11l-4 4-4 1-5-3-1-3v-10zm1 2-2 2-1 8 2 5 5 1 2-2 1-9-3-5z" fill="#04040A"/>
<path transform="translate(1329,647)" d="m0 0 2 1v6h2l3 22v13l-3-2-4-37z" fill="#C5E0F0"/>
<path transform="translate(1880,206)" d="m0 0h1v7l-6 23-3 16h-1v-15l5-21z" fill="#F2F7FB"/>
<path transform="translate(1882,167)" d="m0 0 1 3-3 11-5 26-1 4h-2v-9l5-23 3-10z" fill="#EFF6FA"/>
<path transform="translate(851,843)" d="m0 0h2l1 4 8 2-3 9-7-1-5 1z" fill="#CEE3F0"/>
<path transform="translate(977,805)" d="m0 0h1v19h-12l5-9z" fill="#FEFEFE"/>
<path transform="translate(1360,573)" d="m0 0h7l3 4-3 10h-2l-1-2-5-3-1-1 1-7z" fill="#04040A"/>
<path transform="translate(1401,721)" d="m0 0 2 2v3l4 1 1 1v7l-2 2h-6l-3-3 1-5z" fill="#04060D"/>
<path transform="translate(1423,577)" d="m0 0h6l2 2v7l-2 2h-6l-5-4 1-5z" fill="#040308"/>
<path transform="translate(65,298)" d="m0 0h11v2h-8v4l7 1 2 2 1 6-2 4-5 2-6-1-1-3h9l1-1v-5l-1-1-8-1z" fill="#04060D"/>
<path transform="translate(1814,267)" d="m0 0 2 4-2 25-3 11-2-2 1-14z" fill="#C6E0EF"/>
<path transform="translate(1758,299)" d="m0 0h1v19l-2 13-3 9h-1v-12l2-15 2-10z" fill="#C4E0F0"/>
<path transform="translate(1678,1132)" d="m0 0h11v2h-9v3l8 3 2 2v7l-3 3-7 1-3-1 1-3h7l1-1v-6l-8-1-1-7z" fill="#040D18"/>
<path transform="translate(498,973)" d="m0 0 1 4-3 9-5 5-2-7-3-5 1-4 2 1h6z" fill="#D2E6F2"/>
<path transform="translate(1224,796)" d="m0 0h6l3 4-1 5-4 3-5-1-2-3v-5z" fill="#040B14"/>
<path transform="translate(1283,769)" d="m0 0 6 1 2 3-1 6-6 2-5-3v-6z" fill="#040D17"/>
<path transform="translate(857,837)" d="m0 0 5 1 2 2v6l-2 3h-6l-3-2v-7z" fill="#040A12"/>
<path transform="translate(1343,765)" d="m0 0h5l3 5-2 5-5 2-5-3v-6z" fill="#040A12"/>
<path transform="translate(1254,622)" d="m0 0 6 1 2 3-1 5-3 3-6-1-2-3 1-6z" fill="#040B14"/>
<path transform="translate(1435,512)" d="m0 0 6 2 1 7-4 3-6-1-2-2v-5z" fill="#040A12"/>
<path transform="translate(1677,494)" d="m0 0h1l4 31v10h-3l-1-3-1-12z" fill="#C8E0EF"/>
<path transform="translate(1115,785)" d="m0 0 5 3 1 4-3 5h-6l-3-3v-6z" fill="#040408"/>
<path transform="translate(749,895)" d="m0 0 5 1 2 2v6l-3 3-7-1-1-2v-6z" fill="#040B14"/>
<path transform="translate(1074,711)" d="m0 0 6 1 1 1v7l-3 3-6-1-2-3 1-6z" fill="#04080F"/>
<path transform="translate(1453,707)" d="m0 0 6 1 1 1v7l-3 3-6-1-2-3v-5z" fill="#040B14"/>
<path transform="translate(1655,352)" d="m0 0 1 3-3 9-3 14-2-1-2-4-4-2h2l1-9 6-1 2-7h2z" fill="#CCE2EF"/>
<path transform="translate(1436,1132)" d="m0 0h6l3 3v6l-6 7h-2v2h8l1 2-2 1h-11l-1-2 7-8 3-4v-3l-6-1h-3v-2z" fill="#04111F"/>
<path transform="translate(1399,1132)" d="m0 0h6l3 2 1 5-4 6-4 4 7 1 1 2-3 1h-9v-4l4-5 4-4-1-5h-8v-2z" fill="#040C16"/>
<path transform="translate(718,1132)" d="m0 0h6l3 3v6l-5 6-3 3h8l1 2-3 1h-10l-1-2 7-8 3-4-1-4h-9l1-2z" fill="#040D18"/>
<path transform="translate(69,813)" d="m0 0 6 1 2 2v6l-6 7-3 3h9v2h-13l2-5 7-7 1-6-9 1v-3z" fill="#04050A"/>
<path transform="translate(1080,761)" d="m0 0h5l3 5-2 5-2 2-5-1-3-3 1-6z" fill="#040911"/>
<path transform="translate(1850,1132)" d="m0 0h6l4 3-1 7-7 7 8 1v2l-2 1h-10v-4l8-8 1-6h-10v-2z" fill="#040911"/>
<path transform="translate(1625,1132)" d="m0 0h6l3 3v6l-5 6-3 3h8l1 2-3 1h-9l-2-2 7-8 3-4v-3l-6-1-4-1z" fill="#040C16"/>
<path transform="translate(545,1132)" d="m0 0h11v2l-8 1-1 3 7 1 3 3v7l-3 3-7 1-3-2 1-2h8l1-6-1-1-8-1z" fill="#050307"/>
<path transform="translate(492,1132)" d="m0 0h6l3 2 1 5-4 6-4 4 7 1 1 2-3 1h-9v-4l5-5 3-4-1-5h-8v-2z" fill="#040B14"/>
<path transform="translate(266,1132)" d="m0 0h6l4 4-1 6-7 7 8 1v2l-2 1h-10v-4l7-7 2-7h-10v-2z" fill="#040911"/>
<path transform="translate(793,868)" d="m0 0 6 2 1 7-3 3h-3l-1 4-4 2 2-12z" fill="#040A13"/>
<path transform="translate(1339,745)" d="m0 0h6l2 6-1 3-3 2-6-1-2-2v-6z" fill="#040A13"/>
<path transform="translate(1390,736)" d="m0 0h6l2 3v6l-5 3-5-2-1-7z" fill="#040911"/>
<path transform="translate(1645,351)" d="m0 0h5l3 3-1 7-3 2-5-1-2-2v-6z" fill="#04060C"/>
<path transform="translate(1655,312)" d="m0 0 7 1 2 6-4 4-3 1-4-2-1-7z" fill="#040911"/>
<path transform="translate(1887,1132)" d="m0 0h6l4 4-1 5-7 8 7 1v3h-11v-4l8-9-1-5h-8v-2z" fill="#04050A"/>
<path transform="translate(1661,1132)" d="m0 0h6l4 3-1 7-7 7 1 1h7l-1 3h-11l-1-2 7-8 3-6v-2h-10v-2z" fill="#040911"/>
<path transform="translate(1164,823)" d="m0 0h6l3 4-2 6-1 1h-6l-3-3 1-6z" fill="#04060C"/>
<path transform="translate(1249,705)" d="m0 0 7 1 1 2v6l-5 3-6-3v-6z" fill="#04060C"/>
<path transform="translate(1471,572)" d="m0 0 4 2 4 6v5l-3 3h-6z" fill="#050307"/>
<path transform="translate(1424,569)" d="m0 0 4 2 7-1 3 4h-2l-1 3h-2l-1 8h-1l-2-7h-6l-2 1 1-7z" fill="#CEE2EF"/>
<path transform="translate(1748,464)" d="m0 0h1v13l30 1-3 2h-27l-1 20h-1v-26z" fill="#DFE1E4"/>
<path transform="translate(945,1132)" d="m0 0h6l4 3-1 7-7 7 8 1v2l-3 1h-7l-3-1 2-4 7-7 1-6h-10v-2z" fill="#040B15"/>
<path transform="translate(1106,817)" d="m0 0 5 1 4 4-1 4-5 3-5-3-1-1v-5z" fill="#040911"/>
<path transform="translate(1512,678)" d="m0 0 6 1 2 2v6l-5 3-5-2-1-7z" fill="#04050A"/>
<path transform="translate(1244,655)" d="m0 0 5 1 2 2-1 6-2 3h-5l-3-3v-6z" fill="#040408"/>
<path transform="translate(1571,647)" d="m0 0 5 1 2 2v6l-5 3-5-2-1-7z" fill="#04060C"/>
<path transform="translate(1532,562)" d="m0 0 5 1 2 3-1 6-3 2-5-1-2-2v-6z" fill="#050307"/>
<path transform="translate(1171,1132)" d="m0 0h6l4 4-1 6-7 7 7 1 1 2-3 1h-7l-3-1 2-4 7-8 1-5h-10v-2z" fill="#040A13"/>
<path transform="translate(995,798)" d="m0 0 6 1 2 3-1 5-4 3h-2v2h-2l-1-3v-9z" fill="#04050A"/>
<path transform="translate(1e3 819)" d="m0 0h7v10l-1 3-6-2-3-5 2-5z" fill="#04070E"/>
<path transform="translate(1559,658)" d="m0 0h7l2 3v5l-4 3-5-1-2-2v-6z" fill="#040408"/>
<path transform="translate(1529,624)" d="m0 0 5 2 1 6-4 4-5-1-2-2v-6z" fill="#04050A"/>
<path transform="translate(1244,702)" d="m0 0h2l2 5-1 1v15l-1 8-4-1v-9z" fill="#D4E7F2"/>
<path transform="translate(1565,680)" d="m0 0 5 1 2 3-1 6-5 2-4-2-1-7z" fill="#040408"/>
<path transform="translate(65,642)" d="m0 0h10l2 2v6 2l1 6-3 3-2 1h-7l-2-3h8l2-1 1-5-7-1v-2h6v-6h-9z" fill="#04060C"/>
<path transform="translate(1604,318)" d="m0 0 6 1 1 2v6l-2 2h-6l-3-3 1-6z" fill="#050307"/>
<path transform="translate(1660,293)" d="m0 0 5 1 2 2v6l-2 2h-7l-2-3 1-6z" fill="#050307"/>
<path transform="translate(67,985)" d="m0 0h6v18l5 1-1 2h-10l-2-2 5-1v-13l1-2h-6v-2z" fill="#04050A"/>
<path transform="translate(1456,724)" d="m0 0h6l2 2v6l-3 3-6-1-2-3 1-5z" fill="#050307"/>
<path transform="translate(1357,550)" d="m0 0h5l3 3v5l-3 3-7-1-1-7z" fill="#050307"/>
<path transform="translate(1486,438)" d="m0 0 5 1 2 2v6l-2 2h-6l-3-3 1-6z" fill="#050307"/>
<path transform="translate(25,559)" d="m0 0 21 8 2 3v3h-2l-3-4-6 1-10 4h-2l1-3 9-4-2-2-8-3z" fill="#04050A"/>
<path transform="translate(1609,297)" d="m0 0 5 2 1 1v6l-3 3-6-1-2-6z" fill="#04060C"/>
<path transform="translate(321,1132)" d="m0 0h6v18l5 1v1l-11 1-2-2 5-1v-15h-5v-2z" fill="#040408"/>
<path transform="translate(1232,784)" d="m0 0 6 1 1 6-1 3-2 1h-6l-2-2 1-6z" fill="#040A12"/>
<path transform="translate(1761,332)" d="m0 0h1v8l-4 28-2 2v-15l2-14z" fill="#F2F8FB"/>
<path transform="translate(1e3 1132)" d="m0 0h7l3 3v5 3l1 1v5l-3 3h-10v-2l10-1-1-5-6-2 1-2 5-1-1-4h-7l-1-2z" fill="#040408"/>
<path transform="translate(1172,809)" d="m0 0 4 1 1 6-4 4h-5l-3-3v-6l7 1z" fill="#040A12"/>
<path transform="translate(1415,557)" d="m0 0 1 2 6 2-3 10-2 4-4-1 1-15z" fill="#C7E0EF"/>
<path transform="translate(940,856)" d="m0 0 9 3-1 7-3 7h-2l-3-13z" fill="#E8F1F7"/>
<path transform="translate(982,1132)" d="m0 0h5l1 1v17l5 1v1l-11 1-2-2 5-1v-16l-5 1v-2z" fill="#040408"/>
<path transform="translate(923,777)" d="m0 0 3 2 1 6-2 5-5 1-2 4-2-2 2-8z" fill="#EFF5F8"/>
<path transform="translate(836,890)" d="m0 0 1 2-5 15h-2l-3-8v-5z" fill="#D2E2EC"/>
<path transform="translate(1769,263)" d="m0 0h2v11l-2 15-1 8-2 1v-15z" fill="#F1F7FB"/>
<path transform="translate(1183,769)" d="m0 0 6 1 2 2v6l-5 3-4-1v-10z" fill="#040409"/>
<path transform="translate(1455,1132)" d="m0 0 5 1v17l4 1v1l-11 1v-3h4v-15h-5v-2z" fill="#040B15"/>
<path transform="translate(1047,744)" d="m0 0 5 1 2 2v6l-4 3-4-1-1-1v-9z" fill="#04060D"/>
<path transform="translate(1611,389)" d="m0 0h6l3 4-1 5-4 2h-4l-1-10z" fill="#050307"/>
<path transform="translate(1197,686)" d="m0 0h2l1 5-2 4-3 2v7l-5 2v-7l6-12z" fill="#04111E"/>
<path transform="translate(1537,428)" d="m0 0h6l1 5-3 6-5-1-2-2v-5z" fill="#040409"/>
<path transform="translate(1815,308)" d="m0 0h2v9l-3 22-2 3v-16l2-16z" fill="#F3F8FB"/>
<path transform="translate(1141,709)" d="m0 0 4 2 3 3-1 7-2 2-6-1z" fill="#04111E"/>
<path transform="translate(1147,682)" d="m0 0 4 1 3 3-1 6-3 2-5-1-1-5z" fill="#040409"/>
<path transform="translate(1272,650)" d="m0 0h26v1h-24l2 14v9l-2 2-2-13z" fill="#D3E1E9"/>
<path transform="translate(1734,480)" d="m0 0 3 1v3h2v21l-2 1-3-18z" fill="#DBE1E6"/>
<path transform="translate(1587,480)" d="m0 0h3l-1 13-2 12-2 7h-1v-11z" fill="#F0F7FA"/>
<path transform="translate(1083,1180)" d="m0 0h5l1 1v10l-5 1-3-3v-7z" fill="#F7F8F8"/>
<path transform="translate(1349,726)" d="m0 0h5l3 4-1 5-5 3-3-1v-9z" fill="#040409"/>
<path transform="translate(1394,693)" d="m0 0 2 3 4 5-1 14-1 2h-2l-2-12z" fill="#DAE1E6"/>
<path transform="translate(1275,691)" d="m0 0h7l2 2v6l-4 3h-4z" fill="#050307"/>
<path transform="translate(254,976)" d="m0 0h5l3 6-2 4-5 2-3-8v-3z" fill="#040912"/>
<path transform="translate(1e3 837)" d="m0 0 5 2 1 4-2 6h-5l-2-4v-6z" fill="#04050B"/>
<path transform="translate(1029,751)" d="m0 0 6 1 1 1v6l-3 3h-6l-1-2z" fill="#04070D"/>
<path transform="translate(1418,550)" d="m0 0h7l-1 8-2 3-4-1-3-3 2-6z" fill="#040912"/>
<path transform="translate(1241,730)" d="m0 0 5 1 1 7-3 3-2 5h-3l1-14z" fill="#04050B"/>
<path transform="translate(1406,703)" d="m0 0 5 1 2 3-1 5-3 3-5-1 1-10z" fill="#04070D"/>
<path transform="translate(1097,1178)" d="m0 0h8v2l-7 1v2l7 3 1 1v5l-3 2h-7l-2-3h7l2-1v-2l-7-3-1-5z" fill="#050307"/>
<path transform="translate(1462,670)" d="m0 0 5 1 2 6-5 5-4-1v-7z" fill="#04070D"/>
<path transform="translate(1932,187)" d="m0 0h1l-1 15-3 17-2-3 1-14 3-14z" fill="#EEF5FA"/>
<path transform="translate(1207,1132)" d="m0 0h6l1 2v15l4 2v1l-10 1-2-1v-2l4-1v-14h-4z" fill="#04050B"/>
<path transform="translate(1223,1132)" d="m0 0h13l-1 6-5 13-3 2 1-6 5-13h-10z" fill="#04050B"/>
<path transform="translate(960,787)" d="m0 0 2 1-4 15h-3l-3-3v-5l3-3h3l1-4z" fill="#04050B"/>
<path transform="translate(1403,714)" d="m0 0 6 1v10l-2 3-4-2-1-9z" fill="#C6E0F0"/>
<path transform="translate(1155,674)" d="m0 0 2 1v2h5l-2 1 1 2 1 10v9l-3-2-3-17z" fill="#CFE1EC"/>
<path transform="translate(1110,795)" d="m0 0 2 1h7l-1 6-3 3v7l1 2-3-1-3-11z" fill="#DBE5EC"/>
<path transform="translate(1039,778)" d="m0 0h5l1 2v9h-5l-3-3v-6z" fill="#040409"/>
<path transform="translate(1298,705)" d="m0 0 5 1 2 2-1 7-3 2-4-1v-7z" fill="#04070E"/>
<path transform="translate(479,967)" d="m0 0h1l2 11v6h-2v6h-1l-4-19z" fill="#C7E0F0"/>
<path transform="translate(937,832)" d="m0 0 4 2 4 5-1 6-2 2-4-1z" fill="#040A13"/>
<path transform="translate(936,817)" d="m0 0h2l1 6 14 1 1-3v8l-3 3-1-3 2-4h-12l1 9-4-3z" fill="#C4E0F1"/>
<path transform="translate(1855,397)" d="m0 0h1v17l-3 21h-1v-21z" fill="#C4E0F0"/>
<path transform="translate(356,957)" d="m0 0 3 2-1 9-5 2-4-3 2-5z" fill="#EEF4F8"/>
<path transform="translate(1545,461)" d="m0 0h4l1 4v7h-6l-2-3v-5z" fill="#04060B"/>
<path transform="translate(1036,734)" d="m0 0 2 1 2 10-4 3-5-1 3-10z" fill="#050307"/>
<path transform="translate(1532,511)" d="m0 0h2l-1 16-2 9-2 2v-13l2-13z" fill="#EBF0F4"/>
<path transform="translate(1268,635)" d="m0 0 7 1 1 7-6 5-2-8z" fill="#050307"/>
<path transform="translate(1387,586)" d="m0 0h1l2 26v19h-1l-3-28z" fill="#D0E0EB"/>
<path transform="translate(1643,383)" d="m0 0h3l1 5-5 16h-1v-18z" fill="#D0E5F1"/>
<path transform="translate(1470,588)" d="m0 0h5l-2 1v8l-2 9-2 16h-1l1-27z" fill="#C9E0EE"/>
<path transform="translate(243,974)" d="m0 0 4 2 2 9-9-1v-7z" fill="#CDE3F1"/>
<path transform="translate(865,806)" d="m0 0 3 1 1 10-5 2h-4l1-5z" fill="#DAE7F0"/>
<path transform="translate(1243,667)" d="m0 0h5l-1 6-4 10-1 5h-1v-16z" fill="#CFE5F2"/>
<path transform="translate(1711,330)" d="m0 0 1 2 2 1-4 22-3-2 1-11z" fill="#ECEFF1"/>
<path transform="translate(1131,752)" d="m0 0 2 3v7l-4 13h-2l2-17z" fill="#DBE3E8"/>
<path transform="translate(1635,545)" d="m0 0h1v19l-1 15h-1l-2-7v-8z" fill="#D3E1EA"/>
<path transform="translate(69,133)" d="m0 0h5l2 3-1 5-4 2-4-4 1-5z" fill="#F6F6F7"/>
<path transform="translate(992,779)" d="m0 0 2 1 2 18-3 2-2-9v-10z" fill="#C8E0EE"/>
<path transform="translate(1202,655)" d="m0 0 6 1 1 4-7 4-3 1-1-6z" fill="#040912"/>
<path transform="translate(1741,468)" d="m0 0h1v10l-2 19h-1v-13h-2l-1-3-2-1v-2l5-1z" fill="#C4E0F1"/>
<path transform="translate(1071,786)" d="m0 0 5 1 1 1v7l-2 2h-5z" fill="#04060C"/>
<path transform="translate(1617,483)" d="m0 0 5 2 2 2v5l-4 3h-3z" fill="#040409"/>
<path transform="translate(677,902)" d="m0 0h4l-2 5-4 9-3 4-2-3 1-5 3-2 2-7z" fill="#04080F"/>
<path transform="translate(1304,666)" d="m0 0 5 2v7l-2 2h-5l1-10z" fill="#040409"/>
<path transform="translate(1368,563)" d="m0 0 5 2-2 10h-3l-7-2v-1h5l1-8z" fill="#E6E7E9"/>
<path transform="translate(424,962)" d="m0 0h5l2 2v6l-3 3-3-1z" fill="#040409"/>
<path transform="translate(877,836)" d="m0 0 6 2 2 7-4 4h-2z" fill="#040409"/>
<path transform="translate(907,827)" d="m0 0 4 2 1 5-2 4h-6l2-10z" fill="#040A12"/>
<path transform="translate(780,887)" d="m0 0h5l-2 12-5-3v-6z" fill="#040A13"/>
<path transform="translate(819,848)" d="m0 0h5l3 5-2 5-4 1-2-10z" fill="#050307"/>
<path transform="translate(1216,755)" d="m0 0h3l1 14-7-6v-5z" fill="#050307"/>
<path transform="translate(1086,722)" d="m0 0 4 1 2 2v5l-3 3h-4v-7z" fill="#04040A"/>
<path transform="translate(882,868)" d="m0 0 10 3-2 7-5-1-2-1z" fill="#DBE2E7"/>
<path transform="translate(1016,798)" d="m0 0 5 2 1 6-2 3h-5v-7z" fill="#04101C"/>
<path transform="translate(1411,672)" d="m0 0h1v12l-1 15-1 4h-3l1-12 1-1z" fill="#DCE1E6"/>
<path transform="translate(1446,676)" d="m0 0h2l2 7-1 5-5-2-1-1v-6z" fill="#04060D"/>
<path transform="translate(1788,465)" d="m0 0h1l2 10 5-1 3-1v5h-3v2l-7-1-1-1z" fill="#E0EAF0"/>
<path transform="translate(1805,420)" d="m0 0h1v21l-3 16h-1v-10z" fill="#CAE0ED"/>
<path transform="translate(525,975)" d="m0 0h1l-1 21h13v1l-12 1-2 1v-2h-16v-1h16v-19z" fill="#E1E2E4"/>
<path transform="translate(896,833)" d="m0 0 3 3-1 11-5 2 1-9z" fill="#C4E0F0"/>
<path transform="translate(996,810)" d="m0 0 3 2 1 7 2 1-3 5h-2v-6h-2l-1-7h2z" fill="#C6E0F0"/>
<path transform="translate(1089,716)" d="m0 0 6 2 1 10-6-4-3-3z" fill="#E5E7EA"/>
<path transform="translate(1161,706)" d="m0 0 2 1 2 16v7l-3-2-2-21z" fill="#C9E0EE"/>
<path transform="translate(1274,676)" d="m0 0 5 2 1 1v6l-5 3-1-1z" fill="#04040A"/>
<path transform="translate(1907,1134)" d="m0 0 5 1 1 1v5l-1 1h-6l-1-1v-5z" fill="#F6F6F7"/>
<path transform="translate(1497,598)" d="m0 0h4v11l-5-2-1-1v-6z" fill="#050307"/>
<path transform="translate(1482,515)" d="m0 0 4 1 2 5-2 4-5 1z" fill="#040B14"/>
<path transform="translate(774,1134)" d="m0 0 5 1 1 1v5l-1 1-7-1v-5z" fill="#F8F8F8"/>
<path transform="translate(486,975)" d="m0 0 9 2-1 5-3 3-4-3z" fill="#DDE2E6"/>
<path transform="translate(1075,796)" d="m0 0h1v7l-2 6-4-4v-7z" fill="#C5E0F0"/>
<path transform="translate(809,833)" d="m0 0 3 1-1 4-3 3v7l-6 1 1-4z" fill="#E4EEF4"/>
<path transform="translate(899,825)" d="m0 0h4l-2 11-4-1-1-6z" fill="#050307"/>
<path transform="translate(978,804)" d="m0 0h1v20h10v-7h1v9h-12l-12-1v-1h12z" fill="#DCE1E5"/>
<path transform="translate(1590,409)" d="m0 0h2v8l-2 4-4-3v-6z" fill="#050307"/>
<path transform="translate(1753,400)" d="m0 0h2l-1 15-2 17h-1v-11l1-19z" fill="#CFE0EB"/>
<path transform="translate(753,859)" d="m0 0 4 1-1 5-1 2-7 3 1-5z" fill="#DEE3E7"/>
<path transform="translate(1087,704)" d="m0 0v3l-2 7-4 12v4h-2v-8l3-10 3-7z" fill="#E9EFF3"/>
<path transform="translate(1441,635)" d="m0 0h3l1 11-5-1-1-2v-6z" fill="#04050A"/>
<path transform="translate(430,985)" d="m0 0 4 1 4 7-3 4-3-3-3-8z" fill="#E2EEF5"/>
<path transform="translate(947,835)" d="m0 0h1l2 6 2 1v6l-9-2 2-7h2z" fill="#C9E0EE"/>
<path transform="translate(1459,716)" d="m0 0 1 3 1 5-6 2-2 1-1-2v-7h5z" fill="#C9E0EE"/>
<path transform="translate(1356,668)" d="m0 0 4 1 2 5-2 4-5 1z" fill="#040B15"/>
<path transform="translate(1578,573)" d="m0 0 4 2v7l-3 2h-3l1-10z" fill="#050307"/>
<path transform="translate(1679,510)" d="m0 0h1l2 15v10h-3z" fill="#E4E5E7"/>
<path transform="translate(1824,218)" d="m0 0h2l1 6-2 10-1 10h-1v-20z" fill="#F0F7FB"/>
<path transform="translate(1009,802)" d="m0 0h1v16l-1 1h-6l2-1z" fill="#C6E0EF"/>
<path transform="translate(1100,718)" d="m0 0 5 1 1 1v6l-4 3-2-5z" fill="#050307"/>
<path transform="translate(1555,571)" d="m0 0h3l1 11-5-2-2-4z" fill="#050307"/>
<path transform="translate(1646,407)" d="m0 0h1v11l-3 17h-1v-13l2-14z" fill="#E0E8ED"/>
<path transform="translate(481,949)" d="m0 0 5 1 1 2v6l-4 3-2-7z" fill="#04050A"/>
<path transform="translate(950,832)" d="m0 0h4l-1 11-5-3v-6z" fill="#050307"/>
<path transform="translate(965,787)" d="m0 0 4 1 1 5-3 4h-4l1-7z" fill="#040911"/>
<path transform="translate(1102,786)" d="m0 0h2l1 4v7l-4-1-2-2v-5z" fill="#050307"/>
<path transform="translate(967,771)" d="m0 0 4 2-6 8h-2l-1-6 2-3z" fill="#04101C"/>
<path transform="translate(1223,758)" d="m0 0 4 2 2 4-2 5-3 1-1-2z" fill="#040B15"/>
<path transform="translate(995,819)" d="m0 0h2v6h3v5l-2 7 2 1-3 1-2-13z" fill="#D9E2E8"/>
<path transform="translate(1227,768)" d="m0 0h2l1 9-2 4h-2l-2-11z" fill="#D8E1E8"/>
<path transform="translate(1412,575)" d="m0 0h4l-1 8-1 3-3-1-1-7z" fill="#050307"/>
<path transform="translate(1408,602)" d="m0 0h3v11l-4-1-2-5z" fill="#050307"/>
<path transform="translate(1797,435)" d="m0 0h1v10l-2 21-2 3-1-8h1l2-22z" fill="#C4E0F1"/>
<path transform="translate(884,845)" d="m0 0 2 3 2 7-8-1-1-4z" fill="#C6E0F0"/>
<path transform="translate(1035,726)" d="m0 0h7l2 2v7l-3-1-1-5-5 1-2 2 1-5z" fill="#04070E"/>
<path transform="translate(1549,482)" d="m0 0h2l1 4v7l-5-2-1-5z" fill="#050307"/>
<path transform="translate(1748,464)" d="m0 0h1v14l1 2-1 5-1 15h-1v-26z" fill="#D5E1E8"/>
<path transform="translate(1708,352)" d="m0 0 1 4-3 15-3 1 1-8 2-10z" fill="#EDF5FA"/>
<path transform="translate(1940,139)" d="m0 0h1l-1 13-2 8h-1v-13l1-7z" fill="#F0F6FA"/>
<path transform="translate(262,1012)" d="m0 0 7 1-1 5-2 3h-3l-2-4z" fill="#D3E3ED"/>
<path transform="translate(1092,706)" d="m0 0 2 1 1 11-6-2 1-6z" fill="#050307"/>
<path transform="translate(1762,336)" d="m0 0h2v10l-2 7h-2l1-13z" fill="#AED4EB"/>
<path transform="translate(1496,496)" d="m0 0 4 1 2 3-1 5-4 2z" fill="#050307"/>
<path transform="translate(931,832)" d="m0 0 3 1 1 11-5-3-1-6z" fill="#04080F"/>
<path transform="translate(1327,687)" d="m0 0h2l1 2v9l-4-2-1-1v-6z" fill="#050307"/>
<path transform="translate(1451,640)" d="m0 0 2 4v8l-2 4h-1l-1-13z" fill="#DBE6EE"/>
<path transform="translate(1069,805)" d="m0 0 4 2 1 3-2 5h-4v-7z" fill="#04080F"/>
<path transform="translate(1120,774)" d="m0 0h3v7l-1 3-4-1v-7z" fill="#04080F"/>
<path transform="translate(1329,623)" d="m0 0h1l1 5v10l-3-1-1-13z" fill="#D2E1EB"/>
<path transform="translate(1622,560)" d="m0 0 4 3v8l-4 2z" fill="#DEE3E7"/>
<path transform="translate(1547,451)" d="m0 0 2 4v6l-6 1v-7z" fill="#C4E0F1"/>
<path transform="translate(480,984)" d="m0 0h3l4 10-6-1-1-2z" fill="#040B14"/>
<path transform="translate(983,772)" d="m0 0h2l1 3v8l-5-3v-6z" fill="#04080F"/>
<path transform="translate(1152,698)" d="m0 0h3l1 2v8l-4-1-1-7z" fill="#04080F"/>
<path transform="translate(931,784)" d="m0 0 4 1 1 1v7l-4 1z" fill="#04050B"/>
<path transform="translate(1124,754)" d="m0 0 1 3-2 15-3 2 1-11z" fill="#C4E0F1"/>
<path transform="translate(1286,745)" d="m0 0h3l-2 10-3-1-1-6z" fill="#050307"/>
<path transform="translate(1192,696)" d="m0 0 3 1v7l-5 2v-7z" fill="#040810"/>
<path transform="translate(1527,565)" d="m0 0h1l1 7-2 13-1 11h-1v-14l1-13z" fill="#E3E4E5"/>
<path transform="translate(715,933)" d="m0 0 6 1v3l-4 1 2 2-1 5-2-1-1-3z" fill="#E3E8ED"/>
<path transform="translate(830,897)" d="m0 0h4l-1 8-1 2h-2l-1-2v-6z" fill="#F2F7FB"/>
<path transform="translate(1389,637)" d="m0 0 4 2 1 1v5l-4 3-1-4z" fill="#050307"/>
<path transform="translate(1528,533)" d="m0 0 2 3 2-3-1 8-2 7h-2z" fill="#D8E1E7"/>
<path transform="translate(1641,453)" d="m0 0h2l2 6-2 4-3 1v-10z" fill="#040B15"/>
<path transform="translate(734,897)" d="m0 0h3l1 6-4 4-2-1z" fill="#040B15"/>
<path transform="translate(1105,801)" d="m0 0h1l2 8 1 8-4-1z" fill="#C8E0EE"/>
<path transform="translate(1276,751)" d="m0 0h1l3 12-1 4h-3z" fill="#CBE0ED"/>
<path transform="translate(1466,652)" d="m0 0h1v12l-1 6h-4l1-5h1z" fill="#DDE2E6"/>
<path transform="translate(1908,390)" d="m0 0h1v13l-2 2-1-3v-11z" fill="#E4F0F8"/>
<path transform="translate(318,1006)" d="m0 0h7l-1 5-4 2-2-4z" fill="#D6E6F1"/>
<path transform="translate(856,833)" d="m0 0 1 2 10 1-2 9h-1l-2-6-7-1z" fill="#CCE3F1"/>
<path transform="translate(953,821)" d="m0 0h1v8l-3 3-1-3 2-4-14 1v-2h15z" fill="#C7E0EF"/>
<path transform="translate(1172,788)" d="m0 0h3l-1 7-1 3-3-1v-7z" fill="#04060B"/>
<path transform="translate(1234,736)" d="m0 0h2v11l-4-2v-6z" fill="#050307"/>
<path transform="translate(1332,731)" d="m0 0h2l2 5v5l-4-1-1-7z" fill="#040910"/>
<path transform="translate(1545,441)" d="m0 0h2v10h-5l2-9z" fill="#050307"/>
<path transform="translate(987,803)" d="m0 0h2l1 10-4-1-1-6z" fill="#050307"/>
<path transform="translate(1479,538)" d="m0 0 1 3-2 9-3 3v-7l3-7z" fill="#D9E1E7"/>
<path transform="translate(1538,476)" d="m0 0 3 4-2 10-2 4v-10z" fill="#D8E1E7"/>
<path transform="translate(72,473)" d="m0 0h1v9h-7z" fill="#F3F3F4"/>
<path transform="translate(481,993)" d="m0 0 5 1-4 2zm-1 2m-24 1h24v1h-24z" fill="#D6E2E9"/>
<path transform="translate(710,909)" d="m0 0h6v5l-4 3-2-6z" fill="#E6ECEF"/>
<path transform="translate(762,863)" d="m0 0 4 1 1 7-4 1z" fill="#040C16"/>
<path transform="translate(923,801)" d="m0 0h5l-1 11h-1l-2-6-3-2v-2z" fill="#CEE2EE"/>
<path transform="translate(1197,668)" d="m0 0h3l-3 10-3-2 1-6z" fill="#04060C"/>
<path transform="translate(1567,593)" d="m0 0 2 1v13l-2-1-1-3v-9z" fill="#D8E1E7"/>
<path transform="translate(1654,380)" d="m0 0 3 1v6l-2 2-4-1z" fill="#050307"/>
<path transform="translate(784,875)" d="m0 0h3l-1 9h-3l-1-5z" fill="#04060C"/>
<path transform="translate(1290,724)" d="m0 0h2l-1 11-4-4 1-5z" fill="#04060C"/>
<path transform="translate(1322,638)" d="m0 0h2l1 10-4-2-1-5z" fill="#040911"/>
<path transform="translate(1488,494)" d="m0 0 3 1v5l-3 4-2 1 1-10z" fill="#E3E7EA"/>
<path transform="translate(357,962)" d="m0 0 1 4v2l-5 2-2-5z" fill="#C5E0F0"/>
<path transform="translate(1131,752)" d="m0 0 2 3v7l-4 2 1-11z" fill="#E0E9F0"/>
<path transform="translate(885,879)" d="m0 0 5 1v6l-2 2-3-5z" fill="#EFF6FA"/>
<path transform="translate(1309,654)" d="m0 0h1l-1 9-2 2-3 1 3-9z" fill="#E0E7EC"/>
<path transform="translate(1635,545)" d="m0 0h1v17l-3 1 1-10z" fill="#CDE0EC"/>
<path transform="translate(1792,444)" d="m0 0h1l2 13v7l-2-3-1-3z" fill="#F8FBFC"/>
<path transform="translate(658,948)" d="m0 0 4 2 2-1-1 7h-3l-2-4z" fill="#EDF4F8"/>
<path transform="translate(1122,804)" d="m0 0 3 1-1 7-4 2z" fill="#040D18"/>
<path transform="translate(1370,597)" d="m0 0h1v11l-2 9h-1v-10z" fill="#DCE1E6"/>
<path transform="translate(1373,579)" d="m0 0h2l1 5-3 4h-3z" fill="#040A12"/>
<path transform="translate(1581,554)" d="m0 0h1v10l-1 8-3 1 1-7z" fill="#DCE1E6"/>
<path transform="translate(1708,342)" d="m0 0h3l1 2-2 11-3-2z" fill="#DFE6EC"/>
<path transform="translate(929,802)" d="m0 0h1l1 10v10h-1l-2-7z" fill="#C4E0F0"/>
<path transform="translate(1189,723)" d="m0 0h1v7l-2 9h-1v-14z" fill="#DFE6EB"/>
<path transform="translate(1368,563)" d="m0 0 2 1-1 9-2 1-6-1v-1h5l1-8z" fill="#CCE1EE"/>
<path transform="translate(1737,494)" d="m0 0h2v11l-2 1-1-4v-7z" fill="#E2EEF5"/>
<path transform="translate(1116,803)" d="m0 0h2l-1 9h-3v-7z" fill="#050307"/>
<path transform="translate(1296,725)" d="m0 0 3 1v6l-1 2h-3z" fill="#040E19"/>
<path transform="translate(1297,716)" d="m0 0 4 1-1 8h-3z" fill="#C9E1F0"/>
<path transform="translate(1204,669)" d="m0 0 2 3-1 5-4 2 2-9z" fill="#04060D"/>
<path transform="translate(1359,658)" d="m0 0h2v8l-2 2-2-2 1-6z" fill="#DEE1E5"/>
<path transform="translate(988,772)" d="m0 0 4 1 1 6-1 2h-2z" fill="#041727"/>
<path transform="translate(1537,439)" d="m0 0h3l-3 15-2-4z" fill="#DAE1E6"/>
<path transform="translate(1678,1132)" d="m0 0h11v2h-9v2h-2l-1-3z" fill="#04070D"/>
<path transform="translate(495,982)" d="m0 0 1 4-5 5v-7z" fill="#ECF3F7"/>
<path transform="translate(486,975)" d="m0 0 8 4-3 3h-3l-2-3z" fill="#CBE2F0"/>
<path transform="translate(1466,571)" d="m0 0h1v10l-3-1-1-4z" fill="#050307"/>
<path transform="translate(1493,484)" d="m0 0 4 1 1 7-3 1z" fill="#040B14"/>
<path transform="translate(653,927)" d="m0 0 3 1 1 9-3-1z" fill="#E7EEF3"/>
<path transform="translate(767,867)" d="m0 0h1l1 10-5-1 1-4z" fill="#C6E0F0"/>
<path transform="translate(922,785)" d="m0 0h4l-1 5-5 1 1-5z" fill="#C9E0EE"/>
<path transform="translate(1098,708)" d="m0 0h3l1 2v6l-3 1z" fill="#04070E"/>
</svg>
