<?xml version="1.0" standalone="no"?>
<!DOCTYPE svg PUBLIC "-//W3C//DTD SVG 20010904//EN"
 "http://www.w3.org/TR/2001/REC-SVG-20010904/DTD/svg10.dtd">
<svg version="1.0" xmlns="http://www.w3.org/2000/svg"
 width="248.000000pt" height="204.000000pt" viewBox="0 0 248.000000 204.000000"
 preserveAspectRatio="xMidYMid meet">

<g transform="translate(0.000000,204.000000) scale(0.100000,-0.100000)"
fill="#000000" stroke="none">
<path d="M274 1903 c-54 -71 -130 -170 -170 -222 l-72 -94 362 -276 c448 -342
434 -331 440 -331 4 0 37 41 141 178 9 11 14 10 28 -6 17 -19 11 -28 -183
-282 -111 -145 -210 -276 -221 -291 l-19 -27 62 -49 c35 -27 120 -93 190 -146
l127 -97 84 107 c46 60 146 190 221 291 76 100 141 182 145 182 3 0 15 -7 25
-15 18 -14 15 -19 -54 -111 -60 -80 -70 -98 -59 -109 56 -52 781 -595 789
-590 13 8 319 410 326 428 3 10 -123 112 -385 313 -214 164 -394 300 -399 302
-5 1 -41 -40 -81 -93 -65 -87 -73 -94 -91 -83 -11 7 -20 17 -20 22 0 8 76 111
281 382 6 7 -21 32 -71 69 -108 79 -103 97 15 54 132 -47 293 -5 389 102 l46
51 -130 99 c-72 55 -130 103 -130 108 0 5 23 11 51 13 69 7 100 38 107 107 4
47 2 53 -31 86 -30 30 -42 35 -80 35 -83 0 -138 -77 -109 -154 7 -17 8 -34 4
-38 -4 -4 -66 37 -137 92 -72 55 -133 100 -136 100 -14 0 -68 -97 -83 -149 -9
-30 -16 -76 -16 -102 0 -67 34 -168 75 -222 65 -85 43 -89 -60 -11 -41 31 -78
53 -83 51 -4 -3 -71 -89 -148 -191 -76 -102 -141 -185 -144 -185 -3 0 -13 6
-23 14 -18 13 -14 19 52 105 39 51 71 96 71 100 0 8 -783 610 -794 610 -3 0
-49 -57 -102 -127z m1645 27 c42 -22 31 -70 -15 -70 -38 0 -52 51 -20 72 14
10 14 10 35 -2z m-1437 -71 c51 -39 92 -76 90 -82 -2 -5 -24 -36 -49 -68 -39
-50 -48 -57 -62 -46 -100 74 -171 131 -169 137 4 8 92 129 95 130 1 0 44 -32
95 -71z m1304 -134 c123 -94 223 -172 224 -175 1 -15 -103 -71 -149 -81 -183
-39 -356 103 -354 291 0 68 25 144 44 138 6 -2 112 -80 235 -173z m-1449 -62
c49 -37 90 -68 92 -70 5 -3 -92 -132 -100 -133 -7 0 -176 126 -182 137 -6 9
83 133 95 133 4 0 47 -30 95 -67z m406 -4 c51 -39 93 -74 95 -79 3 -8 -87
-130 -95 -130 -3 0 -49 34 -103 76 -59 45 -97 81 -93 88 22 36 87 116 95 116
5 0 51 -32 101 -71z m-138 -200 l93 -72 -51 -68 c-32 -43 -55 -65 -61 -60 -13
10 -189 144 -194 147 -10 6 95 133 106 129 7 -3 55 -37 107 -76z m386 10 c50
-38 77 -65 72 -72 -15 -26 -88 -117 -94 -117 -9 0 -154 110 -157 120 -3 8 86
130 95 130 2 0 40 -27 84 -61z m439 -25 c25 -20 45 -40 45 -45 0 -14 -499
-668 -510 -668 -5 0 -30 17 -54 38 l-44 38 254 336 c140 185 256 336 259 336
3 1 25 -15 50 -35z m165 -126 c24 -18 44 -35 45 -38 0 -8 -501 -665 -510 -668
-11 -4 -100 60 -97 70 4 15 502 667 510 667 4 1 28 -14 52 -31z m-754 -40 c43
-34 79 -63 79 -65 0 -3 -21 -32 -47 -66 -25 -34 -48 -64 -49 -65 -4 -6 -165
121 -162 128 5 10 93 129 96 130 2 0 39 -28 83 -62z m908 -385 c47 -36 89 -69
94 -73 13 -11 -93 -143 -106 -132 -145 111 -177 137 -175 142 5 11 93 129 97
130 2 0 42 -30 90 -67z m355 -274 c9 -8 -15 -49 -67 -113 l-24 -30 -101 78
c-62 47 -99 83 -95 90 3 6 26 37 51 68 l44 57 91 -71 c51 -39 96 -74 101 -79z
m-497 74 c49 -37 90 -68 92 -69 5 -4 -92 -134 -100 -134 -4 0 -48 32 -99 71
l-91 71 24 31 c13 18 34 47 47 65 13 17 27 32 32 32 4 0 47 -30 95 -67z m-648
-54 c67 -51 121 -95 121 -98 0 -3 -13 -21 -29 -40 l-28 -34 -129 98 c-71 54
-131 100 -132 101 -9 6 54 74 65 70 6 -3 66 -46 132 -97z m-76 -158 c97 -74
98 -74 79 -94 -20 -19 -21 -19 -150 79 -127 96 -129 99 -115 121 l15 23 37
-27 c20 -16 80 -61 134 -102z m994 6 l91 -70 -50 -68 -51 -67 -101 75 c-56 42
-103 78 -105 79 -9 8 102 133 112 127 7 -4 53 -38 104 -76z m384 12 c50 -38
77 -65 72 -72 -15 -26 -88 -117 -94 -117 -9 0 -154 110 -157 120 -3 8 86 130
95 130 2 0 40 -27 84 -61z m-150 -191 c43 -34 79 -63 79 -65 0 -3 -21 -32 -47
-66 -25 -34 -48 -63 -49 -65 -2 -3 -122 86 -153 114 -12 11 -6 23 35 78 27 36
50 65 52 66 2 0 39 -28 83 -62z"/>
</g>
</svg>
