<?xml version="1.0" standalone="no"?>
<!DOCTYPE svg PUBLIC "-//W3C//DTD SVG 20010904//EN"
 "http://www.w3.org/TR/2001/REC-SVG-20010904/DTD/svg10.dtd">
<svg version="1.0" xmlns="http://www.w3.org/2000/svg"
 width="251.000000pt" height="201.000000pt" viewBox="0 0 251.000000 201.000000"
 preserveAspectRatio="xMidYMid meet">

<g transform="translate(0.000000,201.000000) scale(0.100000,-0.100000)"
fill="#000000" stroke="none">
<path d="M655 2000 c3 -5 10 -10 16 -10 5 0 9 5 9 10 0 6 -7 10 -16 10 -8 0
-12 -4 -9 -10z"/>
<path d="M630 1969 c0 -5 4 -8 9 -5 5 4 11 2 13 -2 1 -5 39 -28 83 -52 98 -53
88 -40 -18 23 -84 51 -87 52 -87 36z"/>
<path d="M840 1856 c0 -6 92 -57 97 -53 2 2 -19 16 -47 31 -27 15 -50 25 -50
22z"/>
<path d="M2412 1759 c2 -7 10 -15 17 -17 8 -3 12 1 9 9 -2 7 -10 15 -17 17 -8
3 -12 -1 -9 -9z"/>
<path d="M137 1253 c-4 -3 -7 -46 -7 -95 l0 -88 63 39 c63 38 219 140 225 146
2 2 -59 4 -136 4 -76 1 -142 -2 -145 -6z"/>
<path d="M610 1010 l0 -150 80 0 c64 0 80 3 80 15 0 17 2 17 -65 19 l-50 1 4
102 c4 123 -3 163 -30 163 -18 0 -19 -9 -19 -150z"/>
<path d="M817 1154 c-14 -15 -6 -34 14 -34 14 0 19 5 17 17 -3 18 -20 27 -31
17z"/>
<path d="M1130 1010 l0 -150 25 0 c24 0 25 2 25 73 0 59 4 77 18 90 47 43 82
3 82 -95 0 -61 2 -68 20 -68 18 0 20 7 20 84 0 66 -4 88 -18 106 -23 28 -75
30 -103 4 -18 -17 -19 -15 -19 44 0 59 -1 62 -25 62 l-25 0 0 -150z"/>
<path d="M1607 1146 c-48 -18 -62 -29 -81 -70 -35 -74 -10 -168 53 -201 34
-17 107 -20 145 -5 25 9 26 14 26 80 l0 70 -50 0 c-43 0 -50 -3 -50 -20 0 -16
7 -20 31 -20 29 0 30 -2 27 -37 -2 -29 -8 -38 -28 -43 -37 -10 -88 7 -106 35
-22 33 -21 104 1 138 23 36 83 54 130 40 33 -10 35 -10 35 12 0 18 -7 24 -37
29 -49 8 -51 7 -96 -8z"/>
<path d="M1800 1010 l0 -150 74 0 c93 0 126 21 126 79 0 38 -23 71 -50 71 -7
0 -1 11 14 25 21 19 27 33 24 58 -4 43 -51 67 -130 67 l-58 0 0 -150z m128 98
c33 -33 2 -78 -52 -78 -24 0 -26 3 -26 45 0 44 1 45 33 45 18 0 38 -5 45 -12z
m10 -130 c14 -14 15 -47 3 -66 -4 -8 -27 -16 -50 -19 l-41 -6 0 52 0 51 38 0
c21 0 43 -5 50 -12z"/>
<path d="M2060 1011 c0 -144 1 -151 20 -151 18 0 20 8 22 117 l3 117 45 -114
c62 -157 71 -157 130 -5 25 63 47 115 50 115 3 0 4 -52 2 -115 l-3 -115 25 0
26 0 0 150 0 150 -33 0 c-33 0 -34 0 -82 -121 l-48 -122 -46 119 c-45 116 -47
119 -79 122 l-32 3 0 -150z"/>
<path d="M1387 1143 c-4 -3 -7 -19 -7 -35 0 -15 -4 -28 -10 -28 -5 0 -10 -9
-10 -20 0 -11 5 -20 10 -20 6 0 10 -33 10 -78 0 -88 8 -102 57 -102 38 0 44
20 11 35 -20 9 -23 19 -26 78 -3 66 -3 67 23 67 18 0 25 5 25 20 0 15 -7 20
-25 20 -22 0 -25 4 -25 35 0 33 -16 46 -33 28z"/>
<path d="M937 1069 c-43 -25 -61 -114 -32 -168 22 -44 80 -56 123 -25 21 15
22 14 22 -14 0 -37 -28 -62 -71 -65 -19 -2 -43 -8 -54 -14 -19 -11 -18 -12 8
-18 47 -12 108 1 136 29 25 25 26 32 30 156 l3 130 -26 0 c-18 0 -26 -5 -26
-17 0 -15 -1 -15 -18 0 -21 19 -68 22 -95 6z m91 -35 c30 -21 31 -95 2 -124
-24 -24 -38 -25 -68 -4 -39 27 -27 121 18 137 23 8 24 8 48 -9z"/>
<path d="M810 965 c0 -98 1 -105 20 -105 19 0 20 7 20 105 0 98 -1 105 -20
105 -19 0 -20 -7 -20 -105z"/>
<path d="M136 983 c-3 -4 -6 -32 -6 -64 0 -52 2 -57 20 -52 26 7 34 19 19 29
-8 5 -9 3 -4 -6 5 -8 3 -11 -6 -8 -19 6 -26 90 -7 87 21 -2 62 1 57 5 -9 7
-67 15 -73 9z"/>
<path d="M216 962 c-3 -5 5 -8 17 -8 13 1 21 -4 19 -12 -2 -10 2 -10 18 -2 23
12 27 25 5 16 -8 -3 -15 -1 -15 4 0 12 -37 13 -44 2z"/>
<path d="M175 927 c-17 -13 -17 -14 6 -20 13 -4 28 -2 34 4 7 7 4 8 -9 3 -16
-6 -18 -4 -13 9 8 20 6 21 -18 4z"/>
<path d="M40 10 c0 -5 7 -10 16 -10 8 0 12 5 9 10 -3 6 -10 10 -16 10 -5 0 -9
-4 -9 -10z"/>
<path d="M990 10 c0 -5 7 -10 15 -10 8 0 15 5 15 10 0 6 -7 10 -15 10 -8 0
-15 -4 -15 -10z"/>
</g>
</svg>
