<?xml version="1.0" standalone="no"?>
<!DOCTYPE svg PUBLIC "-//W3C//DTD SVG 20010904//EN"
 "http://www.w3.org/TR/2001/REC-SVG-20010904/DTD/svg10.dtd">
<svg version="1.0" xmlns="http://www.w3.org/2000/svg"
 width="980.000000pt" height="980.000000pt" viewBox="0 0 980.000000 980.000000"
 preserveAspectRatio="xMidYMid meet">

<g transform="translate(0.000000,980.000000) scale(0.100000,-0.100000)"
fill="#000000" stroke="none">
<path d="M533 5864 c4 -1875 10 -3836 14 -4359 l6 -950 3026 0 c1664 0 3624
-4 4355 -8 l1329 -8 -6 3133 c-4 2471 -21 5546 -31 5554 -9 8 -3850 32 -6435
40 l-2264 7 6 -3409z m8686 3099 c-1 -142 -4 -311 -8 -375 l-6 -117 -99 110
c-99 109 -486 496 -580 580 l-49 44 79 6 c43 3 211 6 372 7 l292 2 -1 -257z
m-733 111 c178 -163 452 -440 610 -615 l113 -126 -5 -1024 c-3 -563 -8 -1030
-10 -1037 -2 -8 -31 23 -66 70 -458 619 -1083 1274 -1657 1736 -579 466 -1156
806 -1821 1073 -91 37 -93 38 -55 40 49 2 1677 14 2296 17 l446 2 149 -136z
m-4374 110 c13 -13 -218 -513 -368 -797 -174 -327 -190 -352 -238 -381 -65
-38 -125 -111 -261 -316 -68 -102 -143 -204 -166 -228 -53 -53 -117 -84 -324
-157 -280 -100 -348 -145 -384 -259 -27 -84 -27 -89 -51 -285 -36 -309 -47
-336 -224 -520 -55 -58 -123 -128 -149 -156 -66 -69 -133 -171 -147 -224 -14
-51 -7 -120 20 -219 15 -54 16 -70 6 -82 -7 -8 -66 -82 -132 -165 -217 -274
-522 -639 -639 -765 -178 -191 -340 -362 -384 -405 l-51 -49 0 548 0 548 189
196 c240 250 351 374 532 592 748 901 1335 1907 1730 2960 l58 155 363 5 c200
3 420 6 489 8 69 1 128 -1 131 -4z m905 -6 c-12 -31 -294 -642 -374 -812 l-89
-189 -104 -64 c-148 -90 -189 -103 -313 -103 -56 0 -156 7 -222 15 -66 8 -146
15 -177 15 -32 0 -58 3 -58 6 0 4 52 102 115 220 130 239 258 499 365 744 40
91 74 168 77 173 2 4 180 7 395 7 308 0 389 -3 385 -12z m401 -39 c753 -282
1482 -711 2135 -1258 569 -475 1152 -1112 1605 -1751 l32 -46 0 -754 c0 -414
-1 -755 -3 -756 -1 -2 -75 106 -164 239 -403 605 -837 1144 -1315 1632 l-214
220 -13 110 c-25 221 -54 317 -114 377 -44 45 -167 103 -342 164 -77 27 -176
67 -220 89 -95 48 -131 89 -265 300 -144 228 -217 305 -306 325 -58 14 -202
12 -349 -5 -71 -8 -163 -15 -203 -15 -66 0 -80 4 -160 44 -48 24 -138 67 -200
95 -62 28 -151 74 -198 100 -46 27 -115 57 -152 66 -95 25 -183 58 -189 72 -2
6 42 112 100 235 57 122 139 301 182 396 l79 172 69 0 c58 0 89 -8 205 -51z
m-4283 24 c-27 -71 -328 -590 -451 -778 l-59 -90 -3 430 c-1 237 0 436 3 443
3 9 65 12 261 12 240 0 256 -1 249 -17z m952 -15 c-149 -353 -426 -882 -661
-1263 -180 -293 -449 -678 -694 -992 l-107 -138 -3 660 -2 660 28 45 c16 25
76 119 134 210 161 252 313 515 419 725 28 55 56 106 61 113 8 9 105 12 424
12 l414 0 -13 -32z m933 28 c0 -12 -216 -541 -271 -661 -160 -356 -428 -857
-633 -1184 -338 -537 -751 -1087 -1165 -1551 -99 -111 -318 -340 -326 -340 -3
0 -5 253 -5 563 l0 562 98 121 c407 503 760 1034 1092 1644 93 170 280 556
351 722 l54 128 403 0 c221 0 402 -2 402 -4z m2050 -1556 c340 -26 625 -103
929 -253 407 -199 750 -510 1000 -904 323 -510 447 -1139 342 -1740 -91 -517
-352 -1005 -733 -1368 -165 -157 -476 -381 -498 -359 -5 5 -11 36 -14 69 l-6
60 115 75 c342 223 614 534 800 915 244 498 306 1040 179 1575 -191 811 -812
1469 -1612 1709 -571 170 -1205 114 -1732 -155 -457 -233 -816 -596 -1045
-1059 -231 -465 -299 -990 -195 -1505 79 -390 246 -733 508 -1046 143 -171
291 -305 470 -426 l74 -50 -4 -64 c-2 -35 -7 -66 -11 -70 -3 -4 -57 27 -119
69 -596 401 -984 1031 -1080 1757 -18 136 -15 499 5 633 84 554 322 1032 707
1418 311 312 704 537 1124 644 287 73 523 95 796 75z m-6 -231 c528 -40 1012
-256 1391 -621 366 -352 595 -797 671 -1303 24 -161 24 -465 0 -628 -59 -409
-236 -812 -491 -1117 -87 -103 -274 -284 -370 -356 -92 -70 -171 -124 -179
-124 -3 0 -6 26 -5 58 l0 57 97 70 c253 184 485 458 633 748 157 306 231 614
232 962 2 351 -66 650 -218 960 -421 862 -1360 1334 -2312 1165 -644 -115
-1221 -543 -1522 -1129 -162 -315 -234 -618 -234 -986 0 -217 17 -352 68 -549
72 -275 223 -571 412 -806 76 -95 267 -280 355 -345 l68 -50 0 -57 c0 -32 -3
-58 -6 -58 -4 0 -29 17 -58 37 -505 365 -826 891 -923 1514 -24 157 -24 480 1
639 60 388 208 738 445 1050 76 100 285 313 388 393 344 271 783 443 1217 476
151 12 187 12 340 0z m108 -204 c834 -110 1515 -720 1723 -1544 70 -278 77
-637 18 -906 -73 -335 -210 -624 -421 -886 -75 -93 -245 -258 -337 -328 l-70
-53 -3 34 c-4 35 11 222 30 371 10 83 12 87 35 87 43 0 144 30 207 62 203 102
370 292 467 532 80 200 115 417 106 662 -8 216 -29 252 -178 299 -173 54 -403
85 -641 85 -104 0 -138 3 -138 13 0 6 -5 64 -10 127 -18 207 -56 246 -286 304
-233 59 -420 78 -779 79 -341 2 -537 -18 -780 -79 -119 -30 -193 -62 -227 -99
-37 -39 -53 -126 -57 -312 l-1 -33 -187 0 c-104 0 -231 -5 -283 -10 -137 -14
-366 -66 -432 -99 -69 -33 -67 -38 -34 109 119 518 433 972 877 1267 237 157
541 271 844 317 124 19 417 20 557 1z m2500 -863 c494 -506 1076 -1256 1456
-1878 l62 -101 0 -535 c0 -294 -3 -636 -7 -760 l-6 -226 -97 157 c-278 450
-626 934 -983 1364 -86 104 -90 110 -94 165 -6 78 -24 146 -94 360 -92 279
-91 284 21 620 123 368 117 391 -176 693 -126 130 -214 238 -214 263 0 12 14
-1 132 -122z m-2397 -253 c137 -13 366 -54 447 -79 67 -20 119 -55 139 -91 23
-44 -36 -98 -146 -132 -72 -23 -311 -64 -450 -78 -155 -15 -600 -15 -735 0
-194 22 -429 67 -511 99 -44 17 -99 72 -99 97 0 72 183 134 540 181 175 23
595 25 815 3z m621 -539 c-12 -455 -148 -821 -397 -1069 -200 -199 -430 -295
-662 -278 -112 9 -184 30 -304 88 -90 43 -114 61 -207 151 -155 154 -253 318
-337 568 -44 132 -64 245 -80 450 -9 127 -5 340 8 340 2 0 17 -7 33 -15 36
-19 176 -59 276 -80 214 -44 773 -63 1049 -36 235 24 481 79 575 130 l35 19 8
-41 c5 -23 6 -125 3 -227z m-2062 -37 c4 -43 11 -114 16 -158 6 -44 10 -85 10
-91 0 -19 -163 -26 -346 -14 -161 10 -226 18 -420 54 -140 25 -214 74 -200
130 20 79 386 151 793 155 l141 1 6 -77z m2429 67 c263 -17 477 -60 547 -110
151 -108 -148 -204 -698 -225 l-174 -6 6 38 c7 42 26 255 26 291 0 21 4 22 73
22 39 0 139 -5 220 -10z m-4349 -209 c64 -196 62 -223 -40 -529 -35 -106 -69
-224 -75 -262 -22 -134 11 -197 210 -402 l129 -133 -65 -85 c-292 -381 -627
-774 -943 -1105 -120 -125 -438 -439 -489 -481 l-33 -28 3 856 4 856 165 169
c341 347 643 692 973 1110 62 78 115 142 119 142 4 1 23 -48 42 -108z m4961
-266 c-24 -439 -181 -778 -450 -970 -219 -156 -455 -177 -690 -61 -98 48 -198
131 -259 215 -42 56 -43 66 -15 82 18 9 23 7 36 -13 33 -50 151 -155 208 -184
216 -114 406 -123 599 -28 183 91 265 191 266 327 0 81 -8 84 -90 32 -59 -38
-95 -43 -140 -20 -34 18 -45 35 -54 90 -9 48 -49 121 -76 135 -10 5 -37 10
-58 10 -33 0 -58 -12 -138 -65 -53 -36 -108 -68 -121 -71 -33 -9 -142 1 -176
14 l-28 12 26 42 c83 137 149 293 190 451 l28 107 111 0 c302 0 651 52 776
115 l45 23 8 -66 c4 -37 5 -116 2 -177z m-3835 177 c161 -47 400 -72 682 -72
l148 0 6 -27 c47 -220 143 -442 255 -590 46 -61 49 -66 32 -79 -41 -30 -92
-46 -126 -40 -46 9 -73 41 -86 105 -14 66 -51 118 -98 137 -31 13 -38 13 -80
-6 -26 -11 -71 -39 -101 -61 -70 -54 -110 -69 -177 -69 -107 0 -217 64 -267
157 -15 27 -34 89 -44 138 -9 50 -27 109 -40 131 -27 47 -81 98 -130 121 -28
14 -36 14 -49 3 -15 -12 -16 -28 -10 -115 16 -253 76 -449 189 -625 70 -107
144 -173 261 -230 131 -65 213 -84 330 -77 233 14 474 177 501 340 l7 38 38
-37 c22 -21 39 -42 39 -46 0 -19 -82 -118 -146 -177 -83 -76 -173 -131 -274
-168 -67 -24 -89 -27 -200 -27 -111 0 -134 3 -205 28 -256 88 -433 295 -546
636 -57 176 -72 302 -70 593 l1 78 28 -15 c15 -7 74 -27 132 -44z m43 -979
c82 -106 195 -201 295 -246 26 -11 87 -33 137 -47 l90 -26 7 -44 c12 -72 38
-316 38 -360 l0 -41 -32 22 c-65 45 -296 286 -369 384 -92 125 -185 285 -244
425 -25 59 -45 111 -45 116 0 5 18 -21 39 -58 22 -37 59 -93 84 -125z m1431
-33 c46 -22 123 -49 172 -61 49 -11 90 -22 91 -23 7 -6 43 -333 53 -477 14
-190 10 -573 -5 -587 -11 -10 -159 1 -265 19 -178 31 -368 90 -527 164 -96 45
-278 149 -287 164 -9 14 22 386 40 482 4 22 12 26 67 36 88 15 165 47 249 102
73 48 191 157 243 225 l27 36 29 -21 c16 -11 66 -38 113 -59z m3502 -2 c141
-168 339 -426 553 -720 167 -229 394 -578 529 -813 l80 -140 4 -980 3 -980
-152 -3 c-97 -2 -153 1 -153 7 0 19 -131 352 -196 498 -264 595 -648 1229
-1142 1887 l-135 179 22 66 c27 83 38 142 57 311 20 178 38 259 70 321 16 33
80 107 177 208 84 86 165 173 181 194 16 20 31 37 35 37 4 0 34 -33 67 -72z
m-2571 0 c91 -116 274 -231 420 -263 70 -16 73 -18 79 -48 12 -66 35 -297 42
-412 l7 -120 -94 -52 c-272 -150 -580 -241 -869 -255 l-65 -3 -7 40 c-26 151
-18 536 17 844 21 180 21 181 54 181 76 0 268 71 336 124 30 23 36 20 80 -36z
m-3180 -423 c8 -27 27 -138 40 -245 37 -286 66 -383 134 -442 46 -41 179 -102
361 -168 267 -96 281 -108 465 -385 149 -225 211 -293 292 -316 62 -17 203
-15 395 7 83 9 185 14 228 12 93 -5 163 -36 346 -151 67 -41 159 -95 205 -118
78 -40 90 -43 164 -44 73 0 87 3 165 41 47 22 141 76 210 119 187 117 257 148
349 153 42 2 146 -4 231 -13 195 -23 330 -24 395 -6 37 11 64 29 105 70 56 57
71 78 205 286 144 223 160 235 470 350 99 37 204 80 234 96 30 16 58 29 62 29
4 0 65 -78 136 -172 577 -770 974 -1459 1239 -2148 35 -90 62 -165 61 -166 -1
-1 -769 -7 -1707 -13 -1912 -13 -4304 -14 -5595 -4 l-858 6 7 791 7 791 107
99 c446 415 860 864 1285 1394 l211 263 18 -33 c9 -18 24 -55 33 -83z m1586
-550 c369 -205 802 -300 1206 -267 306 25 543 91 816 228 59 30 110 54 112 54
3 0 5 -25 5 -56 l0 -55 -122 -59 c-624 -297 -1343 -292 -1964 15 -116 57 -153
80 -158 97 -7 29 -8 98 0 98 3 0 50 -25 105 -55z m26 -239 c523 -262 1181
-307 1751 -120 105 34 309 119 326 135 20 19 28 7 21 -33 -18 -117 -12 -108
-84 -141 -623 -282 -1437 -271 -2046 30 -57 28 -61 32 -72 79 -12 52 -16 104
-8 104 3 0 53 -24 112 -54z"/>
<path d="M4628 6033 c6 -2 18 -2 25 0 6 3 1 5 -13 5 -14 0 -19 -2 -12 -5z"/>
<path d="M4705 6030 c4 -6 11 -8 16 -5 14 9 11 15 -7 15 -8 0 -12 -5 -9 -10z"/>
<path d="M4319 6010 c-131 -22 -159 -31 -159 -50 0 -10 4 -21 8 -24 7 -4 123
13 270 40 14 3 22 12 22 24 0 17 -6 20 -47 19 -27 -1 -69 -5 -94 -9z"/>
<path d="M5716 5568 c-3 -7 -7 -42 -11 -78 -3 -36 -13 -107 -22 -159 -16 -90
-16 -94 2 -107 11 -8 24 -13 30 -11 16 6 44 163 47 267 3 92 2 95 -20 98 -12
2 -24 -3 -26 -10z"/>
<path d="M4011 5541 c-21 -13 -9 -276 18 -404 76 -359 258 -645 482 -754 142
-70 230 -95 346 -101 61 -3 128 0 165 8 144 28 331 131 426 235 70 76 96 147
87 237 -5 45 -11 68 -20 68 -7 0 -44 -18 -81 -41 -63 -36 -74 -40 -123 -36
-69 5 -106 41 -117 114 -9 64 -35 113 -80 153 -34 29 -42 32 -86 28 -40 -4
-65 -17 -133 -64 -143 -100 -156 -106 -260 -102 -107 4 -177 32 -250 104 -60
58 -91 127 -114 256 -26 145 -47 181 -151 259 -65 49 -83 56 -109 40z"/>
<path d="M5575 4925 c-21 -70 -17 -89 17 -93 24 -3 28 1 38 40 6 24 14 51 16
61 7 22 -13 47 -37 47 -14 0 -22 -14 -34 -55z"/>
<path d="M3260 5514 c-14 -2 -58 -11 -97 -20 -59 -13 -73 -20 -73 -35 0 -22
21 -24 85 -9 22 5 60 11 86 14 62 7 79 15 79 37 0 19 -17 22 -80 13z"/>
<path d="M6726 5142 c-3 -5 -10 -49 -16 -98 -6 -49 -15 -109 -21 -133 -10 -45
0 -71 26 -71 26 0 66 270 45 296 -14 16 -26 18 -34 6z"/>
<path d="M6623 4642 c-13 -9 -35 -100 -28 -113 4 -5 15 -9 25 -9 31 0 55 112
27 123 -8 3 -18 2 -24 -1z"/>
<path d="M6828 1887 l-38 -11 0 -378 0 -378 40 0 40 0 0 390 c0 215 -1 389 -2
389 -2 -1 -20 -6 -40 -12z"/>
<path d="M5170 1811 c-107 -20 -173 -69 -214 -160 -49 -111 -46 -284 9 -391
48 -94 128 -139 260 -148 78 -4 83 -6 100 -34 35 -59 145 -165 204 -196 64
-35 123 -41 194 -21 54 15 49 39 -9 39 -33 0 -64 9 -107 32 -62 34 -217 171
-217 193 0 7 13 18 30 25 44 18 105 90 127 151 60 161 26 354 -79 443 -65 56
-195 85 -298 67z m178 -70 c78 -40 119 -116 129 -238 6 -86 -9 -209 -33 -258
-24 -50 -91 -78 -189 -79 -66 -1 -87 3 -121 22 -87 51 -119 146 -112 333 6
144 22 184 88 217 59 30 183 31 238 3z"/>
<path d="M2491 1743 c10 -38 56 -193 101 -345 l82 -278 46 0 45 0 80 240 c74
223 81 238 92 213 6 -16 44 -124 84 -240 l73 -213 46 0 45 0 94 333 c52 182
96 338 99 345 3 10 -4 13 -28 10 l-33 -3 -57 -205 c-31 -113 -67 -247 -80
-298 -12 -51 -24 -91 -26 -90 -2 2 -35 96 -74 208 -40 113 -79 226 -88 253
-15 43 -20 47 -49 47 l-31 0 -84 -250 c-45 -137 -86 -250 -89 -250 -4 0 -10
16 -13 36 -6 31 -82 302 -137 487 l-20 67 -49 0 -49 0 20 -67z"/>
<path d="M3487 1782 l-27 -28 30 -29 30 -29 30 29 30 29 -27 28 c-15 15 -30
28 -33 28 -3 0 -18 -13 -33 -28z"/>
<path d="M7050 1786 c-26 -29 -22 -48 15 -72 25 -16 27 -16 50 6 31 29 31 41
2 68 -30 28 -38 28 -67 -2z"/>
<path d="M7305 1611 c-66 -55 -74 -74 -32 -79 l27 -3 0 -185 c0 -183 0 -185
25 -209 14 -15 36 -25 53 -25 44 0 129 28 136 45 4 12 -5 15 -48 15 -35 0 -58
5 -66 15 -8 9 -12 67 -13 177 l-2 163 60 10 c43 8 61 15 63 28 3 15 -5 17 -62
17 l-66 0 0 40 c0 22 -3 40 -8 40 -4 0 -34 -22 -67 -49z"/>
<path d="M3921 1574 c-25 -9 -55 -23 -67 -31 -27 -17 -44 -10 -44 18 0 16 -7
19 -40 19 l-40 0 0 -230 0 -230 45 0 45 0 0 184 0 185 55 20 c69 26 116 27
146 2 23 -19 24 -24 27 -206 l4 -186 41 3 42 3 0 185 c-1 158 -3 190 -18 218
-32 58 -109 76 -196 46z"/>
<path d="M4397 1576 c-81 -29 -118 -92 -125 -211 -5 -103 10 -159 56 -206 62
-61 167 -62 276 -1 54 30 76 60 35 48 -13 -4 -56 -14 -95 -22 -63 -14 -75 -14
-107 -1 -46 20 -65 50 -73 119 l-7 56 79 6 c116 9 196 24 211 39 11 11 11 20
-1 55 -40 113 -136 158 -249 118z m118 -60 c19 -19 50 -94 42 -102 -1 -1 -45
-4 -97 -6 l-95 -3 4 35 c4 40 25 86 43 93 34 14 80 6 103 -17z"/>
<path d="M6400 1575 c-96 -27 -109 -36 -92 -63 7 -10 17 -9 51 3 48 17 118 20
140 6 21 -13 28 -130 10 -142 -8 -5 -42 -9 -76 -9 -122 0 -173 -41 -173 -138
0 -112 113 -155 226 -87 l39 24 21 -26 c24 -30 63 -34 113 -13 40 16 41 40 1
40 -19 0 -33 7 -40 19 -5 11 -10 84 -10 164 0 80 -5 158 -11 176 -20 57 -97
75 -199 46z m120 -306 l0 -70 -35 -15 c-19 -7 -52 -14 -74 -14 -50 0 -63 20
-59 93 3 50 5 53 38 64 19 7 56 12 83 12 l47 1 0 -71z"/>
<path d="M7934 1583 c-20 -4 -22 -10 -22 -86 0 -45 -6 -104 -12 -132 -14 -64
-61 -168 -70 -158 -5 4 -24 54 -45 111 -46 131 -88 223 -109 245 -22 22 -126
25 -126 4 0 -8 11 -19 25 -25 15 -7 38 -37 60 -81 33 -66 47 -99 116 -281 l29
-74 -25 -36 c-76 -110 -199 -215 -260 -223 -50 -6 -37 -32 18 -35 87 -6 162
56 274 226 129 197 194 353 197 472 1 79 -2 83 -50 73z"/>
<path d="M3480 1350 l0 -230 40 0 40 0 0 230 0 230 -40 0 -40 0 0 -230z"/>
<path d="M5720 1391 c0 -179 1 -190 23 -222 52 -78 113 -78 283 -3 6 3 14 -7
18 -21 6 -23 11 -26 44 -23 20 2 36 6 35 11 -2 4 -3 106 -3 227 l0 220 -40 0
-40 0 -2 -182 -3 -183 -37 -18 c-20 -10 -59 -20 -86 -24 -45 -5 -53 -3 -76 20
l-26 26 0 181 0 180 -45 0 -45 0 0 -189z"/>
<path d="M7040 1350 l0 -230 45 0 45 0 0 230 0 230 -45 0 -45 0 0 -230z"/>
</g>
</svg>
